<svg width="40" height="40" viewBox="0 0 40 40" fill="none" xmlns="http://www.w3.org/2000/svg">
<g clip-path="url(#clip0)">
<path d="M32.1725 16.6655H34.1725C34.5407 16.6655 34.8392 16.367 34.8392 15.9988V13.9988C34.8392 13.6307 34.5407 13.3322 34.1725 13.3322C33.8044 13.3322 33.5059 13.6307 33.5059 13.9988V15.3322H32.1725C31.8044 15.3322 31.5059 15.6307 31.5059 15.9988C31.5059 16.367 31.8044 16.6655 32.1725 16.6655Z" fill="#1BB899"/>
<path d="M16.488 13.9997C17.9606 13.9997 19.1546 12.8057 19.1546 11.333C19.1546 9.86039 17.9606 8.66638 16.488 8.66638C15.015 8.66638 13.8213 9.86039 13.8213 11.333C13.8213 12.8057 15.015 13.9997 16.488 13.9997ZM16.488 9.99972C17.2243 9.99972 17.8213 10.5967 17.8213 11.333C17.8213 12.0694 17.2243 12.6664 16.488 12.6664C15.7513 12.6664 15.1546 12.0694 15.1546 11.333C15.1546 10.5967 15.7513 9.99972 16.488 9.99972Z" fill="#1BB899"/>
<path d="M1.92528 13.7786C2.20751 13.9245 2.52099 14.0003 2.83869 14C3.68733 14 4.44221 13.4613 4.71858 12.6585L9.96142 12.5775L9.0467 13.3333C8.79475 13.5404 8.72965 13.8991 8.89273 14.1813L10.1385 16.3333L10.1658 19.3333H6.8387C6.79963 19.3372 6.7609 19.3451 6.72313 19.3568C6.40836 18.43 5.46923 17.8672 4.50341 18.0267C3.53791 18.1862 2.82958 19.0212 2.82958 20C2.82958 20.9788 3.53791 21.8138 4.50341 21.9733C5.46923 22.1328 6.40836 21.57 6.72313 20.6432C6.7609 20.6549 6.79963 20.6628 6.8387 20.6667H10.8387C11.0164 20.6667 11.187 20.5957 11.312 20.4694C11.4373 20.3431 11.507 20.1719 11.5054 19.9941L11.4748 16.6152L13.6079 15.8154C13.7528 15.9092 13.8999 15.9948 14.0487 16.0726L14.4985 18.7754C14.5522 19.0967 14.8306 19.3324 15.1567 19.332H15.5054V22.6654H13.5054C13.1372 22.6654 12.8387 22.9639 12.8387 23.332V33.0573L7.03401 38.862C6.84325 39.0527 6.78629 39.3395 6.88948 39.5885C6.99267 39.8376 7.23583 40 7.50536 40H28.8387C29.1082 40 29.3514 39.8376 29.4543 39.5885C29.5574 39.3395 29.5005 39.0527 29.31 38.862L24.8387 34.3906V30.8512L26.3312 28.3652C28.8494 29.8848 30.3719 30.6667 30.8387 30.6667H34.8387C35.2069 30.6667 35.5054 30.3682 35.5054 30V26.276L36.6427 25.1387C36.7674 25.0133 36.838 24.8438 36.8387 24.6667V22.6667H37.8127C38.2638 22.6667 38.6847 22.4385 38.9308 22.0599C39.1766 21.6816 39.2147 21.2044 39.0314 20.792L36.9585 16.1253C37.7453 15.1885 38.175 14.0039 38.172 12.7806C38.187 8.36816 35.6919 4.33138 31.7388 2.37142L29.8052 1.40332C29.5119 1.25716 29.1558 1.3457 28.9653 1.61263L28.686 2H24.172V0.666667C24.172 0.298503 23.8735 0 23.5054 0H16.8387C16.4705 0 16.172 0.298503 16.172 0.666667V3.33333H15.1548C14.8286 3.33301 14.55 3.56901 14.4966 3.89062L14.0467 6.59277C13.8979 6.67057 13.7505 6.75586 13.6059 6.84994L11.0386 5.88802C10.7336 5.77344 10.3905 5.89648 10.2274 6.17871L9.55517 7.34342C9.53791 7.34342 9.52392 7.33333 9.50666 7.33333H5.50536V5.21061C6.42366 4.88607 6.97444 3.94694 6.80972 2.98698C6.64501 2.02669 5.81265 1.3252 4.83869 1.3252C3.86441 1.3252 3.03205 2.02669 2.86734 2.98698C2.70263 3.94694 3.25373 4.88607 4.17203 5.21061V8C4.17203 8.36816 4.47053 8.66667 4.83869 8.66667H8.8286C8.76741 8.91244 8.85204 9.17122 9.0467 9.33333L11.1613 11.0745C11.1613 11.1234 11.1613 11.1732 11.1574 11.2227L4.71597 11.3219C4.41324 10.4769 3.58414 9.93685 2.68863 10.002C1.79312 10.0667 1.05061 10.7204 0.872874 11.6003C0.694814 12.4805 1.12515 13.3711 1.92528 13.7786ZM4.83869 20.6667C4.47053 20.6667 4.17203 20.3682 4.17203 20C4.17203 19.6318 4.47053 19.3333 4.83869 19.3333C5.20686 19.3333 5.50536 19.6318 5.50536 20C5.50536 20.3682 5.20686 20.6667 4.83869 20.6667ZM4.83869 2.66667C5.20686 2.66667 5.50536 2.96517 5.50536 3.33333C5.50536 3.7015 5.20686 4 4.83869 4C4.47053 4 4.17203 3.7015 4.17203 3.33333C4.17203 2.96517 4.47053 2.66667 4.83869 2.66667ZM16.8387 19.3333H17.8214C18.147 19.3333 18.425 19.098 18.4787 18.7767L18.9292 16.0739C19.0773 15.9967 19.2248 15.9108 19.3693 15.8167L21.938 16.7786C22.243 16.8932 22.5861 16.7702 22.7492 16.488L23.0314 16H26.172C26.2212 15.9961 26.2697 15.9863 26.3166 15.9707L27.5054 17.5553V18.6667H24.8387V20H26.3768L24.5913 20.7139C24.338 20.8151 24.1717 21.0605 24.172 21.3333V22.6667H16.8387V19.3333ZM24.0825 8.48796L23.8013 8H25.5054V10.6667H22.3127L23.9292 9.33333C24.1795 9.1263 24.244 8.76953 24.0825 8.48796ZM25.5054 12V14.6667H23.8013L24.0825 14.1787C24.244 13.8971 24.1795 13.5404 23.9292 13.3333L22.3127 12H25.5054ZM21.034 28.4714L23.5054 30.9427V31.3333H19.5054V24H20.8387V28C20.8387 28.1768 20.909 28.3464 21.034 28.4714ZM16.8081 37.3333H16.8387V37.2988L19.3406 34.4395C19.4471 34.3177 19.5054 34.1615 19.5054 34V32.6667H20.8387V38.6667H15.6385L16.8081 37.3333ZM9.11474 38.6667L13.9767 33.8047C14.1017 33.6797 14.172 33.5101 14.172 33.3333V24H18.172V33.7494L16.8387 35.2734V32H15.5054V36.8001L13.8693 38.6667H9.11474ZM27.2293 38.6667H22.172V32.6667H23.5054V34.6667C23.5054 34.8434 23.5757 35.013 23.7007 35.138L27.2293 38.6667ZM24.0386 29.5921L22.172 27.7253V24H24.172V26.6667C24.172 26.8965 24.2905 27.11 24.4852 27.2321C24.7339 27.388 24.9585 27.5254 25.1932 27.6699L24.0386 29.5921ZM29.7166 2.85059L31.1421 3.56413C34.6424 5.29915 36.8517 8.8737 36.8387 12.7806C36.8416 13.8118 36.4318 14.8014 35.7007 15.5286C35.5057 15.7236 35.4507 16.0186 35.5627 16.2705L37.8127 21.3333H36.172C35.8039 21.3333 35.5054 21.6318 35.5054 22V24H35.3908C34.3595 24.0029 33.3703 23.5931 32.6434 22.862C32.3817 22.6094 31.966 22.613 31.7088 22.8701C31.4517 23.1273 31.4481 23.543 31.7007 23.8047C32.4907 24.5973 33.5168 25.112 34.6245 25.2715L34.3673 25.5286C34.2423 25.6536 34.172 25.8232 34.172 26V29.3333L30.9018 29.3372C29.3618 28.625 27.8745 27.8027 26.452 26.8773L26.4487 26.874H26.4445C26.1307 26.6833 25.8159 26.4899 25.5054 26.2972V21.7845L28.4194 20.6195C28.6727 20.5182 28.8387 20.2728 28.8387 20V17.3333C28.8387 17.1891 28.7918 17.0488 28.7052 16.9333L26.8387 14.4447V6.87988L29.7166 2.85059ZM17.5054 1.33333H22.8387V2.66667C22.8387 3.03483 23.1372 3.33333 23.5054 3.33333H27.7339L25.63 6.2793C25.5487 6.39225 25.505 6.52767 25.5054 6.66667H23.0314L22.7492 6.17871C22.5861 5.89648 22.243 5.77344 21.938 5.88802L19.3719 6.84994C19.2274 6.75586 19.0799 6.66992 18.9318 6.59277L18.4787 3.88997C18.425 3.56869 18.147 3.33333 17.8214 3.33333H17.5054V1.33333ZM10.3299 8.66667L11.0985 7.33333L13.466 8.2207C13.6785 8.30013 13.9168 8.26628 14.0985 8.13053C14.3494 7.94141 14.6219 7.78255 14.91 7.65723C15.1186 7.56771 15.2674 7.37793 15.3045 7.15397L15.7192 4.66667H17.2567L17.6714 7.15462C17.7085 7.37858 17.8573 7.56836 18.0659 7.65788C18.354 7.78353 18.6261 7.94238 18.8774 8.13119C19.0591 8.26693 19.297 8.30078 19.5093 8.22135L21.8774 7.33333L22.6453 8.66667L20.6951 10.2715C20.52 10.4157 20.4302 10.6396 20.4572 10.8652C20.4982 11.1764 20.4982 11.4915 20.4572 11.8027C20.4302 12.0283 20.52 12.2523 20.6951 12.3968L22.6453 14L21.8774 15.3333L19.5093 14.446C19.297 14.3665 19.0591 14.4004 18.8774 14.5361C18.6261 14.7249 18.354 14.8838 18.0659 15.0094C17.8573 15.099 17.7085 15.2887 17.6714 15.5127L17.2567 18H15.7186L15.3052 15.512C15.2681 15.2881 15.1193 15.0983 14.9106 15.0088C14.6225 14.8835 14.3501 14.7246 14.0994 14.5355C13.9175 14.3997 13.6792 14.3656 13.4666 14.4453L11.0985 15.3333L10.3299 14L12.2801 12.3952C12.2918 12.3838 12.3032 12.3714 12.314 12.3587C12.327 12.3464 12.339 12.3337 12.3507 12.32C12.4009 12.266 12.4412 12.2038 12.4705 12.1361L12.4748 12.1286C12.5024 12.0553 12.5171 11.9772 12.5174 11.8988C12.5197 11.8893 12.5216 11.8796 12.5226 11.8701C12.5226 11.862 12.5187 11.8555 12.5181 11.8473C12.5174 11.8392 12.5181 11.8167 12.5181 11.8014C12.477 11.4902 12.477 11.1751 12.5181 10.8639C12.5447 10.6383 12.4549 10.4144 12.2794 10.2699L10.3299 8.66667ZM2.24592 11.6953C2.32535 11.5361 2.46597 11.416 2.63524 11.362C2.97639 11.2751 3.32632 11.4684 3.4344 11.8037C3.54247 12.1387 3.37092 12.5 3.04345 12.6286C2.69286 12.7412 2.31721 12.5485 2.20458 12.1979C2.15152 12.0316 2.16617 11.8509 2.24592 11.6953Z" fill="#1BB899"/>
<path d="M15.5059 26.6678H16.8392V28.0012H15.5059V26.6678Z" fill="#1BB899"/>
<path d="M15.5059 29.3337H16.8392V30.6671H15.5059V29.3337Z" fill="#1BB899"/>
<path d="M19.5059 18.6664H20.8392V19.9997H19.5059V18.6664Z" fill="#1BB899"/>
<path d="M22.1719 18.6664H23.5052V19.9997H22.1719V18.6664Z" fill="#1BB899"/>
<path d="M28.1719 6.66785H29.5052V9.33451H28.1719V6.66785Z" fill="#1BB899"/>
<path d="M28.1719 10.6663H29.5052V11.9996H28.1719V10.6663Z" fill="#1BB899"/>
<path d="M28.1719 13.3322H29.5052V14.6655H28.1719V13.3322Z" fill="#1BB899"/>
</g>
<defs>
<clipPath id="clip0">
<rect width="40" height="40" fill="white"/>
</clipPath>
</defs>
</svg>
