<svg id="Capa_1" enable-background="new 0 0 512 512" height="512" viewBox="0 0 512 512" width="512" xmlns="http://www.w3.org/2000/svg"><g><path d="m255.957 376.086-255.957-140.462v251.67h512v-250.045zm15.043 71.568h-30v-30h30z"/><path d="m386.003 271.444 125.997-68.321v-88.829h-125.999z"/><path d="m126 270.549v-156.255h-126v87.11z"/><path d="m156 287.012 100.043 54.901 99.96-54.203-.003-173.417h-23.236v-12.823c0-42.328-34.437-76.765-76.765-76.765s-76.765 34.437-76.765 76.765v12.823h-23.234zm53.235-185.541c0-25.786 20.979-46.765 46.765-46.765s46.765 20.979 46.765 46.765v12.823h-93.529v-12.823z"/></g></svg>