<svg id="Layer_1" enable-background="new 0 0 512 512" height="512" viewBox="0 0 512 512" width="512" xmlns="http://www.w3.org/2000/svg"><g><path d="m474.5 106h-113.5v-37.5c0-20.678-16.822-37.5-37.5-37.5h-135c-20.678 0-37.5 16.822-37.5 37.5v45c0 4.143 3.358 7.5 7.5 7.5h316c12.406 0 22.5 10.094 22.5 22.5v180c0 12.406-10.094 22.5-22.5 22.5h-152.3c.833-2.349 1.3-4.869 1.3-7.5 0-9.777-6.271-18.114-15-21.21v-68.79c0-4.143-3.357-7.5-7.5-7.5h-90c-4.142 0-7.5 3.357-7.5 7.5v68.79c-8.729 3.096-15 11.433-15 21.21 0 2.631.467 5.151 1.3 7.5h-152.3c-12.407 0-22.5-10.094-22.5-22.5v-180c0-12.406 10.093-22.5 22.5-22.5h91c4.142 0 7.5-3.357 7.5-7.5s-3.358-7.5-7.5-7.5h-91c-20.678 0-37.5 16.822-37.5 37.5v180c0 12.242 5.898 23.131 15 29.98v90.02c0 20.678 16.822 37.5 37.5 37.5h407c20.678 0 37.5-16.822 37.5-37.5v-90.02c9.102-6.848 15-17.737 15-29.98v-180c0-20.678-16.822-37.5-37.5-37.5zm-158.5 0h-120v-15h120zm30 0h-15v-22.5c0-4.143-3.357-7.5-7.5-7.5h-135c-4.142 0-7.5 3.357-7.5 7.5v22.5h-15v-37.5c0-12.406 10.093-22.5 22.5-22.5h135c12.406 0 22.5 10.094 22.5 22.5zm-52.5 150v60h-75v-60zm-90 82.5c0-4.136 3.364-7.5 7.5-7.5h90c4.136 0 7.5 3.364 7.5 7.5s-3.364 7.5-7.5 7.5h-90c-4.136 0-7.5-3.364-7.5-7.5zm15 22.5h75v37.5c0 20.678-16.822 37.5-37.5 37.5s-37.5-16.822-37.5-37.5zm-188.5 82.5v-83.255c2.424.494 4.932.755 7.5.755h37.5v82.5c0 8.436 2.801 16.228 7.52 22.5h-30.02c-12.407 0-22.5-10.094-22.5-22.5zm82.5 22.5c-12.407 0-22.5-10.094-22.5-22.5v-82.5h113.5v37.5c0 28.948 23.551 52.5 52.5 52.5 28.948 0 52.5-23.552 52.5-52.5v-37.5h113.5v82.5c0 12.406-10.094 22.5-22.5 22.5zm369.5-22.5c0 12.406-10.094 22.5-22.5 22.5h-30.02c4.719-6.272 7.52-14.064 7.52-22.5v-82.5h37.5c2.568 0 5.076-.261 7.5-.755z"/><path d="m256 421c12.406 0 22.5-10.094 22.5-22.5s-10.094-22.5-22.5-22.5c-12.407 0-22.5 10.094-22.5 22.5s10.093 22.5 22.5 22.5zm0-30c4.136 0 7.5 3.364 7.5 7.5s-3.364 7.5-7.5 7.5-7.5-3.364-7.5-7.5 3.364-7.5 7.5-7.5z"/></g></svg>