<svg width="60" height="60" viewBox="0 0 40 40" fill="none" xmlns="http://www.w3.org/2000/svg">
<path d="M22.6048 13.552C22.5118 13.4583 22.4012 13.3839 22.2794 13.3332C22.1575 13.2824 22.0268 13.2563 21.8948 13.2563C21.7628 13.2563 21.6321 13.2824 21.5102 13.3332C21.3883 13.3839 21.2777 13.4583 21.1848 13.552L15.5708 19.282C15.3821 19.473 15.2763 19.7306 15.2763 19.9991C15.2763 20.2675 15.3821 20.5251 15.5708 20.716L21.1848 26.444C21.2775 26.5383 21.388 26.6131 21.5099 26.6642C21.6318 26.7152 21.7626 26.7415 21.8948 26.7415C22.0269 26.7415 22.1578 26.7152 22.2797 26.6642C22.4016 26.6131 22.5121 26.5383 22.6048 26.444C22.7935 26.2531 22.8993 25.9955 22.8993 25.727C22.8993 25.4586 22.7935 25.201 22.6048 25.01L18.0008 20L22.6048 14.988C22.7931 14.7965 22.8987 14.5387 22.8987 14.27C22.8987 14.0014 22.7931 13.7436 22.6048 13.552ZM20.0008 0.800049C14.9086 0.800049 10.025 2.8229 6.42433 6.4236C2.82363 10.0243 0.800781 14.9079 0.800781 20C0.800781 30.606 9.39678 39.2001 20.0008 39.2001C30.6048 39.2001 39.2008 30.606 39.2008 20C39.2008 17.4787 38.7042 14.982 37.7393 12.6525C36.7744 10.3231 35.3601 8.20648 33.5772 6.4236C31.7943 4.64071 29.6778 3.22645 27.3483 2.26156C25.0189 1.29667 22.5222 0.800049 20.0008 0.800049V0.800049ZM20.0008 36.708C17.8066 36.7083 15.6338 36.2763 13.6066 35.4368C11.5794 34.5972 9.73739 33.3665 8.18585 31.815C6.63432 30.2634 5.40363 28.4215 4.56407 26.3942C3.7245 24.367 3.29252 22.1942 3.29278 20C3.29278 16.6955 4.27269 13.4652 6.10859 10.7176C7.94449 7.96996 10.5539 5.82846 13.6069 4.56387C16.6599 3.29928 20.0193 2.96841 23.2604 3.61309C26.5014 4.25777 29.4785 5.84905 31.8151 8.18571C34.1518 10.5224 35.7431 13.4994 36.3877 16.7405C37.0324 19.9815 36.7016 23.3409 35.437 26.3939C34.1724 29.4469 32.0309 32.0563 29.2832 33.8922C26.5356 35.7281 23.3053 36.708 20.0008 36.708V36.708Z" fill="#1BB899"/>
</svg>
