<svg width="40" height="40" viewBox="0 0 40 40" fill="none" xmlns="http://www.w3.org/2000/svg">
<g clip-path="url(#clip0)">
<path d="M35.7031 25.9157C33.7401 25.9157 32.0816 27.2394 31.57 29.0407H27.4219V24.4661H31.6573C36.2575 24.4661 40 20.7236 40 16.1234C40 12.435 37.5537 9.19485 34.0809 8.13953C33.0312 3.93609 29.2368 0.921328 24.8423 0.921328C23.1388 0.921328 21.507 1.36063 20.0668 2.19992C18.5416 0.805078 16.5416 0.0214844 14.4403 0.0214844C9.93305 0.0214844 6.24914 3.61453 6.10211 8.08656C2.53484 9.08367 0 12.3498 0 16.1234C0 20.7236 3.7425 24.4661 8.34273 24.4661H12.5781V29.0407H8.43C7.91852 27.2394 6.25992 25.9157 4.29688 25.9157C1.92758 25.9157 0 27.8433 0 30.2126C0 32.5819 1.92758 34.5095 4.29688 34.5095C6.25992 34.5095 7.91844 33.1858 8.43 31.3845H13.75C14.3972 31.3845 14.9219 30.8598 14.9219 30.2126V24.4661H18.8281V31.5482C17.0268 32.0597 15.7031 33.7183 15.7031 35.6813C15.7031 38.0506 17.6307 39.9782 20 39.9782C22.3693 39.9782 24.2969 38.0506 24.2969 35.6813C24.2969 33.7183 22.9732 32.0598 21.1719 31.5482V24.4661H25.0781V30.2126C25.0781 30.8598 25.6028 31.3845 26.25 31.3845H31.57C32.0815 33.1858 33.7401 34.5095 35.7031 34.5095C38.0724 34.5095 40 32.5819 40 30.2126C40 27.8433 38.0724 25.9157 35.7031 25.9157ZM4.29688 32.1657C3.21992 32.1657 2.34375 31.2895 2.34375 30.2126C2.34375 29.1356 3.21992 28.2595 4.29688 28.2595C5.37383 28.2595 6.25 29.1356 6.25 30.2126C6.25 31.2895 5.37383 32.1657 4.29688 32.1657ZM21.9531 35.6813C21.9531 36.7583 21.077 37.6345 20 37.6345C18.923 37.6345 18.0469 36.7583 18.0469 35.6813C18.0469 34.6044 18.923 33.7282 20 33.7282C21.077 33.7282 21.9531 34.6044 21.9531 35.6813ZM8.34273 22.1223C5.03492 22.1223 2.34375 19.4313 2.34375 16.1234C2.34375 13.1669 4.54742 10.6151 7.46953 10.1877C8.08617 10.0976 8.5243 9.54055 8.4668 8.92008C8.44984 8.73703 8.44125 8.55 8.44125 8.36414C8.44125 5.05641 11.1324 2.36531 14.4402 2.36531C16.2051 2.36531 17.8694 3.1325 19.0063 4.47016C19.4054 4.93977 20.1 5.01992 20.5957 4.65367C21.8248 3.74523 23.2932 3.26508 24.8423 3.26508C28.407 3.26508 31.3714 5.88063 31.9255 9.28305C32.0039 9.76414 32.372 10.1465 32.8497 10.2432C35.6348 10.807 37.6562 13.2799 37.6562 16.1234C37.6562 19.4313 34.965 22.1223 31.6572 22.1223H8.34273ZM35.7031 32.1657C34.6262 32.1657 33.75 31.2895 33.75 30.2126C33.75 29.1356 34.6262 28.2595 35.7031 28.2595C36.7801 28.2595 37.6562 29.1356 37.6562 30.2126C37.6562 31.2895 36.7801 32.1657 35.7031 32.1657Z" fill="#1BB899"/>
</g>
<defs>
<clipPath id="clip0">
<rect width="40" height="40" fill="white"/>
</clipPath>
</defs>
</svg>
