<svg width="40" height="40" viewBox="0 0 40 40" fill="none" xmlns="http://www.w3.org/2000/svg">
<path d="M16.875 6.875H18.125V8.125H16.875V6.875Z" fill="#1BB899"/>
<path d="M33.125 21.875H34.375V23.125H33.125V21.875Z" fill="#1BB899"/>
<path d="M21.875 31.875H23.125V33.125H21.875V31.875Z" fill="#1BB899"/>
<path d="M16.875 33.75H18.125V35H16.875V33.75Z" fill="#1BB899"/>
<path d="M6.875 19.375H8.125V20.625H6.875V19.375Z" fill="#1BB899"/>
<path d="M21.875 6.875H23.125V8.125H21.875V6.875Z" fill="#1BB899"/>
<path d="M31.875 16.875H33.125V18.125H31.875V16.875Z" fill="#1BB899"/>
<path d="M28.75 10.625H30V11.875H28.75V10.625Z" fill="#1BB899"/>
<path d="M10 10.625H11.25V11.875H10V10.625Z" fill="#1BB899"/>
<path d="M28.75 28.125H30V29.375H28.75V28.125Z" fill="#1BB899"/>
<path d="M10 28.125H11.25V29.375H10V28.125Z" fill="#1BB899"/>
<path d="M19.9261 19.3759C19.489 19.39 19.0707 19.5567 18.7437 19.8472C18.4167 20.1377 18.2019 20.5335 18.1363 20.9659C18.0708 21.3983 18.1589 21.84 18.3851 22.2142C18.6114 22.5885 18.9616 22.8717 19.3749 23.0146V24.3759H20.6249V23.0103C21.0483 22.8619 21.4044 22.5664 21.6281 22.1775C21.8518 21.7886 21.9282 21.3322 21.8435 20.8916C21.7588 20.451 21.5186 20.0555 21.1666 19.7773C20.8146 19.499 20.3744 19.3566 19.9261 19.3759ZM20.6249 21.2265C20.6281 21.3085 20.6152 21.3904 20.5868 21.4675C20.5584 21.5445 20.5151 21.6152 20.4594 21.6755C20.4037 21.7358 20.3366 21.7845 20.2621 21.8189C20.1875 21.8533 20.1069 21.8727 20.0249 21.8759C19.9427 21.8791 19.8607 21.8661 19.7836 21.8375C19.7065 21.809 19.6358 21.7655 19.5755 21.7096C19.4846 21.6258 19.4207 21.5168 19.3918 21.3966C19.3629 21.2764 19.3702 21.1503 19.413 21.0343C19.4557 20.9183 19.532 20.8175 19.632 20.7448C19.732 20.6721 19.8513 20.6307 19.9749 20.6259H19.9999C20.1614 20.6257 20.3167 20.6882 20.4332 20.8C20.5497 20.9119 20.6184 21.0645 20.6249 21.2259V21.2265Z" fill="#1BB899"/>
<path d="M23.125 17.615V16.875C23.125 16.0462 22.7958 15.2513 22.2097 14.6653C21.6237 14.0792 20.8288 13.75 20 13.75C19.1712 13.75 18.3763 14.0792 17.7903 14.6653C17.2042 15.2513 16.875 16.0462 16.875 16.875V17.615C16.5107 17.7438 16.1951 17.982 15.9713 18.2971C15.7476 18.6121 15.6266 18.9886 15.625 19.375V24.375C15.625 24.8723 15.8225 25.3492 16.1742 25.7008C16.5258 26.0525 17.0027 26.25 17.5 26.25H22.5C22.9973 26.25 23.4742 26.0525 23.8258 25.7008C24.1775 25.3492 24.375 24.8723 24.375 24.375V19.375C24.3734 18.9886 24.2524 18.6121 24.0287 18.2971C23.8049 17.982 23.4893 17.7438 23.125 17.615ZM18.125 16.875C18.125 16.3777 18.3225 15.9008 18.6742 15.5492C19.0258 15.1975 19.5027 15 20 15C20.4973 15 20.9742 15.1975 21.3258 15.5492C21.6775 15.9008 21.875 16.3777 21.875 16.875V17.5H18.125V16.875ZM23.125 24.375C23.125 24.5408 23.0592 24.6997 22.9419 24.8169C22.8247 24.9342 22.6658 25 22.5 25H17.5C17.3342 25 17.1753 24.9342 17.0581 24.8169C16.9408 24.6997 16.875 24.5408 16.875 24.375V19.375C16.875 19.2092 16.9408 19.0503 17.0581 18.9331C17.1753 18.8158 17.3342 18.75 17.5 18.75H22.5C22.6658 18.75 22.8247 18.8158 22.9419 18.9331C23.0592 19.0503 23.125 19.2092 23.125 19.375V24.375Z" fill="#1BB899"/>
<path d="M36.875 25.625C36.5966 25.6261 36.322 25.6902 36.0719 25.8125L34.6344 24.375H28.75V23.125H31.875V21.875H28.75V20.625H32.0225L35.5769 18.8475C35.8884 19.1459 36.2934 19.3275 36.7234 19.3615C37.1535 19.3956 37.582 19.2801 37.9366 19.0345C38.2913 18.7889 38.5501 18.4283 38.6695 18.0138C38.7888 17.5993 38.7612 17.1562 38.5915 16.7597C38.4217 16.3631 38.1202 16.0374 37.7379 15.8377C37.3555 15.6379 36.9159 15.5763 36.4935 15.6634C36.071 15.7505 35.6916 15.9809 35.4194 16.3155C35.1473 16.6502 34.9991 17.0686 35 17.5C35.0029 17.576 35.0107 17.6518 35.0231 17.7269L31.7275 19.375H28.75V18.125H30.625V16.875H28.75V15.625H31.5088L33.5713 13.5625C33.8216 13.6849 34.0964 13.749 34.375 13.75C34.7458 13.75 35.1084 13.64 35.4167 13.434C35.725 13.228 35.9654 12.9351 36.1073 12.5925C36.2492 12.2499 36.2863 11.8729 36.214 11.5092C36.1416 11.1455 35.963 10.8114 35.7008 10.5492C35.4386 10.287 35.1045 10.1084 34.7408 10.036C34.3771 9.96368 34.0001 10.0008 33.6575 10.1427C33.3149 10.2846 33.022 10.525 32.816 10.8333C32.61 11.1416 32.5 11.5042 32.5 11.875C32.5011 12.1534 32.5652 12.428 32.6875 12.6781L30.9912 14.375H28.75C28.749 13.5465 28.4194 12.7522 27.8336 12.1664C27.2478 11.5806 26.4535 11.251 25.625 11.25V9.63375L29.1969 6.0625C29.447 6.18482 29.7216 6.24892 30 6.25C30.3708 6.25 30.7334 6.14003 31.0417 5.93401C31.35 5.72798 31.5904 5.43514 31.7323 5.09253C31.8742 4.74992 31.9113 4.37292 31.839 4.00921C31.7666 3.64549 31.588 3.3114 31.3258 3.04918C31.0636 2.78695 30.7295 2.60838 30.3658 2.53603C30.0021 2.46368 29.6251 2.50081 29.2825 2.64273C28.9399 2.78464 28.647 3.02496 28.441 3.33331C28.235 3.64165 28.125 4.00416 28.125 4.375C28.1261 4.65343 28.1902 4.928 28.3125 5.17813L24.375 9.11562V11.25H23.125V9.375H21.875V11.25H20.625V6.76C21.042 6.61257 21.3935 6.32246 21.6173 5.94095C21.8411 5.55944 21.9228 5.1111 21.848 4.67517C21.7732 4.23923 21.5467 3.84377 21.2085 3.55869C20.8704 3.2736 20.4423 3.11723 20 3.11723C19.5577 3.11723 19.1296 3.2736 18.7915 3.55869C18.4533 3.84377 18.2268 4.23923 18.152 4.67517C18.0772 5.1111 18.1589 5.55944 18.3827 5.94095C18.6065 6.32246 18.958 6.61257 19.375 6.76V11.25H18.125V9.375H16.875V11.25H15.625V6.61625L12.9375 3.92875C13.0599 3.67844 13.124 3.40364 13.125 3.125C13.125 2.75416 13.015 2.39165 12.809 2.08331C12.603 1.77496 12.3101 1.53464 11.9675 1.39273C11.6249 1.25081 11.2479 1.21368 10.8842 1.28603C10.5205 1.35838 10.1864 1.53695 9.92418 1.79918C9.66195 2.0614 9.48338 2.39549 9.41103 2.75921C9.33868 3.12292 9.37581 3.49992 9.51773 3.84253C9.65964 4.18514 9.89996 4.47798 10.2083 4.68401C10.5166 4.89003 10.8792 5 11.25 5C11.5284 4.99892 11.803 4.93482 12.0531 4.8125L14.375 7.13375V11.25C13.5465 11.251 12.7522 11.5806 12.1664 12.1664C11.5806 12.7522 11.251 13.5465 11.25 14.375H9.00875L7.3125 12.6781C7.43482 12.428 7.49892 12.1534 7.5 11.875C7.5 11.5042 7.39003 11.1416 7.18401 10.8333C6.97798 10.525 6.68514 10.2846 6.34253 10.1427C5.99992 10.0008 5.62292 9.96368 5.25921 10.036C4.89549 10.1084 4.5614 10.287 4.29918 10.5492C4.03695 10.8114 3.85838 11.1455 3.78603 11.5092C3.71368 11.8729 3.75081 12.2499 3.89273 12.5925C4.03464 12.9351 4.27496 13.228 4.58331 13.434C4.89165 13.64 5.25416 13.75 5.625 13.75C5.90343 13.7489 6.178 13.6848 6.42813 13.5625L8.49063 15.625H11.25V16.875H7.27375L4 19.6025C3.73171 19.4553 3.43102 19.3771 3.125 19.375C2.75416 19.375 2.39165 19.485 2.08331 19.691C1.77496 19.897 1.53464 20.1899 1.39273 20.5325C1.25081 20.8751 1.21368 21.2521 1.28603 21.6158C1.35838 21.9795 1.53695 22.3136 1.79918 22.5758C2.0614 22.838 2.39549 23.0166 2.75921 23.089C3.12292 23.1613 3.49992 23.1242 3.84253 22.9823C4.18514 22.8404 4.47798 22.6 4.68401 22.2917C4.89003 21.9833 5 21.6208 5 21.25C5.00042 20.9992 4.95003 20.7508 4.85188 20.52L7.72625 18.125H11.25V19.375H9.375V20.625H11.25V21.875H5.625V23.125H11.25V24.375H7.79063L5.27188 28.1525C5.18205 28.1367 5.09118 28.1275 5 28.125C4.56519 28.121 4.14227 28.2669 3.80236 28.5381C3.46245 28.8092 3.2263 29.1892 3.13362 29.614C3.04094 30.0389 3.09738 30.4827 3.29346 30.8708C3.48953 31.2589 3.81328 31.5677 4.21025 31.7451C4.60721 31.9226 5.05318 31.9579 5.47315 31.8452C5.89312 31.7325 6.26147 31.4786 6.51625 31.1263C6.77103 30.7739 6.89669 30.3445 6.8721 29.9104C6.84752 29.4763 6.67418 29.0639 6.38125 28.7425L8.45938 25.625H11.25C11.251 26.4535 11.5806 27.2478 12.1664 27.8336C12.7522 28.4194 13.5465 28.749 14.375 28.75V32.8662L12.0531 35.1875C11.803 35.0652 11.5284 35.0011 11.25 35C10.8792 35 10.5166 35.11 10.2083 35.316C9.89996 35.522 9.65964 35.8149 9.51773 36.1575C9.37581 36.5001 9.33868 36.8771 9.41103 37.2408C9.48338 37.6045 9.66195 37.9386 9.92418 38.2008C10.1864 38.463 10.5205 38.6416 10.8842 38.714C11.2479 38.7863 11.6249 38.7492 11.9675 38.6073C12.3101 38.4654 12.603 38.225 12.809 37.9167C13.015 37.6083 13.125 37.2458 13.125 36.875C13.1239 36.5966 13.0598 36.322 12.9375 36.0719L15.625 33.3844V28.75H16.875V32.5H18.125V28.75H19.375V34.0962L23.1713 36.4712C23.0692 36.9091 23.1256 37.369 23.3303 37.7693C23.5351 38.1696 23.8749 38.4844 24.2897 38.658C24.7045 38.8315 25.1673 38.8526 25.5961 38.7174C26.0249 38.5823 26.392 38.2996 26.6322 37.9196C26.8725 37.5395 26.9704 37.0867 26.9085 36.6413C26.8467 36.196 26.6292 35.7869 26.2945 35.4867C25.9598 35.1865 25.5296 35.0145 25.0802 35.0013C24.6308 34.988 24.1912 35.1344 23.8394 35.4144L20.625 33.4037V28.75H21.875V30.625H23.125V28.75H24.375V33.75H28.865C29.0124 34.167 29.3025 34.5185 29.684 34.7423C30.0656 34.9661 30.5139 35.0478 30.9498 34.973C31.3858 34.8982 31.7812 34.6717 32.0663 34.3335C32.3514 33.9954 32.5078 33.5673 32.5078 33.125C32.5078 32.6827 32.3514 32.2546 32.0663 31.9165C31.7812 31.5783 31.3858 31.3518 30.9498 31.277C30.5139 31.2022 30.0656 31.2839 29.684 31.5077C29.3025 31.7315 29.0124 32.083 28.865 32.5H25.625V28.75C26.4535 28.749 27.2478 28.4194 27.8336 27.8336C28.4194 27.2478 28.749 26.4535 28.75 25.625H34.1162L35.1875 26.6969C35.0652 26.947 35.0011 27.2216 35 27.5C35 27.8708 35.11 28.2333 35.316 28.5417C35.522 28.85 35.8149 29.0904 36.1575 29.2323C36.5001 29.3742 36.8771 29.4113 37.2408 29.339C37.6045 29.2666 37.9386 29.088 38.2008 28.8258C38.463 28.5636 38.6416 28.2295 38.714 27.8658C38.7863 27.5021 38.7492 27.1251 38.6073 26.7825C38.4654 26.4399 38.225 26.147 37.9167 25.941C37.6084 25.735 37.2458 25.625 36.875 25.625ZM36.875 16.875C36.9986 16.875 37.1194 16.9117 37.2222 16.9803C37.325 17.049 37.4051 17.1466 37.4524 17.2608C37.4997 17.375 37.5121 17.5007 37.488 17.6219C37.4639 17.7432 37.4044 17.8545 37.3169 17.9419C37.2295 18.0294 37.1182 18.0889 36.9969 18.113C36.8757 18.1371 36.75 18.1247 36.6358 18.0774C36.5216 18.0301 36.424 17.95 36.3553 17.8472C36.2867 17.7444 36.25 17.6236 36.25 17.5C36.25 17.3342 36.3158 17.1753 36.4331 17.0581C36.5503 16.9408 36.7092 16.875 36.875 16.875ZM34.375 11.25C34.4986 11.25 34.6194 11.2867 34.7222 11.3553C34.825 11.424 34.9051 11.5216 34.9524 11.6358C34.9997 11.75 35.0121 11.8757 34.988 11.9969C34.9639 12.1182 34.9044 12.2295 34.8169 12.3169C34.7295 12.4044 34.6182 12.4639 34.4969 12.488C34.3757 12.5121 34.25 12.4997 34.1358 12.4524C34.0216 12.4051 33.924 12.325 33.8553 12.2222C33.7867 12.1195 33.75 11.9986 33.75 11.875C33.75 11.7092 33.8158 11.5503 33.9331 11.4331C34.0503 11.3158 34.2092 11.25 34.375 11.25ZM30 3.75C30.1236 3.75 30.2444 3.78666 30.3472 3.85533C30.45 3.92401 30.5301 4.02162 30.5774 4.13582C30.6247 4.25003 30.6371 4.37569 30.613 4.49693C30.5889 4.61817 30.5294 4.72953 30.4419 4.81694C30.3545 4.90435 30.2432 4.96388 30.1219 4.98799C30.0007 5.01211 29.875 4.99973 29.7608 4.95243C29.6466 4.90512 29.549 4.82501 29.4803 4.72223C29.4117 4.61945 29.375 4.49861 29.375 4.375C29.375 4.20924 29.4408 4.05027 29.5581 3.93306C29.6753 3.81585 29.8342 3.75 30 3.75ZM20 4.375C20.1236 4.375 20.2445 4.41166 20.3472 4.48033C20.45 4.54901 20.5301 4.64662 20.5774 4.76082C20.6247 4.87503 20.6371 5.00069 20.613 5.12193C20.5889 5.24317 20.5294 5.35453 20.4419 5.44194C20.3545 5.52935 20.2432 5.58888 20.1219 5.61299C20.0007 5.63711 19.875 5.62473 19.7608 5.57743C19.6466 5.53012 19.549 5.45001 19.4803 5.34723C19.4117 5.24445 19.375 5.12361 19.375 5C19.375 4.83424 19.4408 4.67527 19.5581 4.55806C19.6753 4.44085 19.8342 4.375 20 4.375ZM10.625 3.125C10.625 3.00139 10.6617 2.88055 10.7303 2.77777C10.799 2.67499 10.8966 2.59488 11.0108 2.54758C11.125 2.50027 11.2507 2.48789 11.3719 2.51201C11.4932 2.53613 11.6045 2.59565 11.6919 2.68306C11.7794 2.77047 11.8389 2.88183 11.863 3.00307C11.8871 3.12431 11.8747 3.24997 11.8274 3.36418C11.7801 3.47838 11.7 3.57599 11.5972 3.64467C11.4945 3.71335 11.3736 3.75 11.25 3.75C11.0842 3.75 10.9253 3.68415 10.8081 3.56694C10.6908 3.44973 10.625 3.29076 10.625 3.125ZM5 11.875C5 11.7514 5.03666 11.6305 5.10533 11.5278C5.17401 11.425 5.27162 11.3449 5.38582 11.2976C5.50003 11.2503 5.62569 11.2379 5.74693 11.262C5.86817 11.2861 5.97953 11.3457 6.06694 11.4331C6.15435 11.5205 6.21388 11.6318 6.23799 11.7531C6.26211 11.8743 6.24973 12 6.20243 12.1142C6.15512 12.2284 6.07501 12.326 5.97223 12.3947C5.86945 12.4633 5.74861 12.5 5.625 12.5C5.45924 12.5 5.30027 12.4342 5.18306 12.3169C5.06585 12.1997 5 12.0408 5 11.875ZM3.125 21.875C3.00139 21.875 2.88055 21.8383 2.77777 21.7697C2.67499 21.701 2.59488 21.6034 2.54758 21.4892C2.50027 21.375 2.48789 21.2493 2.51201 21.1281C2.53613 21.0068 2.59565 20.8955 2.68306 20.8081C2.77047 20.7206 2.88183 20.6611 3.00307 20.637C3.12431 20.6129 3.24997 20.6253 3.36418 20.6726C3.47838 20.7199 3.57599 20.8 3.64467 20.9028C3.71335 21.0056 3.75 21.1264 3.75 21.25C3.75 21.4158 3.68415 21.5747 3.56694 21.6919C3.44973 21.8092 3.29076 21.875 3.125 21.875ZM5 30.625C4.87639 30.625 4.75555 30.5883 4.65277 30.5197C4.54999 30.451 4.46988 30.3534 4.42258 30.2392C4.37527 30.125 4.36289 29.9993 4.38701 29.8781C4.41113 29.7568 4.47065 29.6455 4.55806 29.5581C4.64547 29.4706 4.75683 29.4111 4.87807 29.387C4.99931 29.3629 5.12497 29.3753 5.23918 29.4226C5.35338 29.4699 5.45099 29.55 5.51967 29.6528C5.58835 29.7555 5.625 29.8764 5.625 30C5.625 30.1658 5.55915 30.3247 5.44194 30.4419C5.32473 30.5591 5.16576 30.625 5 30.625ZM11.25 37.5C11.1264 37.5 11.0055 37.4633 10.9028 37.3947C10.8 37.326 10.7199 37.2284 10.6726 37.1142C10.6253 37 10.6129 36.8743 10.637 36.7531C10.6611 36.6318 10.7207 36.5205 10.8081 36.4331C10.8955 36.3456 11.0068 36.2861 11.1281 36.262C11.2493 36.2379 11.375 36.2503 11.4892 36.2976C11.6034 36.3449 11.701 36.425 11.7697 36.5278C11.8383 36.6305 11.875 36.7514 11.875 36.875C11.875 37.0408 11.8092 37.1997 11.6919 37.3169C11.5747 37.4342 11.4158 37.5 11.25 37.5ZM25 36.25C25.1236 36.25 25.2444 36.2867 25.3472 36.3553C25.45 36.424 25.5301 36.5216 25.5774 36.6358C25.6247 36.75 25.6371 36.8757 25.613 36.9969C25.5889 37.1182 25.5294 37.2295 25.4419 37.3169C25.3545 37.4043 25.2432 37.4639 25.1219 37.488C25.0007 37.5121 24.875 37.4997 24.7608 37.4524C24.6466 37.4051 24.549 37.325 24.4803 37.2222C24.4117 37.1194 24.375 36.9986 24.375 36.875C24.375 36.7092 24.4408 36.5503 24.5581 36.4331C24.6753 36.3158 24.8342 36.25 25 36.25ZM30.625 32.5C30.7486 32.5 30.8694 32.5367 30.9722 32.6053C31.075 32.674 31.1551 32.7716 31.2024 32.8858C31.2497 33 31.2621 33.1257 31.238 33.2469C31.2139 33.3682 31.1544 33.4795 31.0669 33.5669C30.9795 33.6543 30.8682 33.7139 30.7469 33.738C30.6257 33.7621 30.5 33.7497 30.3858 33.7024C30.2716 33.6551 30.174 33.575 30.1053 33.4722C30.0367 33.3694 30 33.2486 30 33.125C30 32.9592 30.0658 32.8003 30.1831 32.6831C30.3003 32.5658 30.4592 32.5 30.625 32.5ZM27.5 25.625C27.5 26.1223 27.3025 26.5992 26.9508 26.9508C26.5992 27.3025 26.1223 27.5 25.625 27.5H14.375C13.8777 27.5 13.4008 27.3025 13.0492 26.9508C12.6975 26.5992 12.5 26.1223 12.5 25.625V14.375C12.5 13.8777 12.6975 13.4008 13.0492 13.0492C13.4008 12.6975 13.8777 12.5 14.375 12.5H25.625C26.1223 12.5 26.5992 12.6975 26.9508 13.0492C27.3025 13.4008 27.5 13.8777 27.5 14.375V25.625ZM36.875 28.125C36.7514 28.125 36.6306 28.0883 36.5278 28.0197C36.425 27.951 36.3449 27.8534 36.2976 27.7392C36.2503 27.625 36.2379 27.4993 36.262 27.3781C36.2861 27.2568 36.3456 27.1455 36.4331 27.0581C36.5205 26.9706 36.6318 26.9111 36.7531 26.887C36.8743 26.8629 37 26.8753 37.1142 26.9226C37.2284 26.9699 37.326 27.05 37.3947 27.1528C37.4633 27.2555 37.5 27.3764 37.5 27.5C37.5 27.6658 37.4342 27.8247 37.3169 27.9419C37.1997 28.0592 37.0408 28.125 36.875 28.125Z" fill="#1BB899"/>
</svg>
