<svg width="20" height="20" viewBox="0 0 20 20" fill="none" xmlns="http://www.w3.org/2000/svg">
<path d="M10.075 2.5C3.75 2.5 0 10 0 10C0 10 3.75 17.5 10.075 17.5C16.25 17.5 20 10 20 10C20 10 16.25 2.5 10.075 2.5ZM10 5C11.3261 5 12.5979 5.52678 13.5355 6.46447C14.4732 7.40215 15 8.67392 15 10C15 12.775 12.775 15 10 15C8.67392 15 7.40215 14.4732 6.46447 13.5355C5.52678 12.5979 5 11.3261 5 10C5 8.67392 5.52678 7.40215 6.46447 6.46447C7.40215 5.52678 8.67392 5 10 5ZM10 7.5C8.625 7.5 7.5 8.625 7.5 10C7.5 11.375 8.625 12.5 10 12.5C11.375 12.5 12.5 11.375 12.5 10C12.5 9.75 12.4 9.525 12.35 9.3C12.2647 9.47865 12.1377 9.63422 11.9798 9.75365C11.822 9.87308 11.6377 9.95288 11.4426 9.98636C11.2475 10.0198 11.0471 10.006 10.8585 9.94604C10.6698 9.88608 10.4983 9.78172 10.3583 9.64173C10.2183 9.50174 10.1139 9.3302 10.054 9.14153C9.99399 8.95285 9.98016 8.75254 10.0136 8.55742C10.0471 8.36229 10.1269 8.17805 10.2464 8.02015C10.3658 7.86226 10.5214 7.73532 10.7 7.65C10.4765 7.5619 10.24 7.51122 10 7.5Z" fill="#1BB899"/>
</svg>
