<svg width="40" height="40" viewBox="0 0 40 40" fill="none" xmlns="http://www.w3.org/2000/svg">
<path d="M20 7.1875C18.3218 7.18764 16.6883 7.7281 15.3412 8.7289C13.9941 9.7297 13.005 11.1376 12.5204 12.7443C12.0358 14.351 12.0813 16.071 12.6503 17.6498C13.2193 19.2286 14.2815 20.5822 15.6797 21.5102C15.7139 21.533 15.7522 21.5488 15.7925 21.5567C15.8328 21.5647 15.8743 21.5646 15.9145 21.5565C15.9548 21.5484 15.993 21.5325 16.0271 21.5096C16.0612 21.4867 16.0905 21.4573 16.1132 21.4232C16.1359 21.389 16.1517 21.3506 16.1596 21.3103C16.1675 21.2701 16.1674 21.2286 16.1593 21.1884C16.1512 21.1481 16.1352 21.1098 16.1123 21.0758C16.0894 21.0417 16.06 21.0125 16.0258 20.9898C14.7394 20.1361 13.762 18.8909 13.2384 17.4384C12.7148 15.986 12.6729 14.4036 13.1187 12.9254C13.5645 11.4473 14.4745 10.152 15.7138 9.23128C16.9532 8.31059 18.4561 7.81344 20 7.81344C21.5439 7.81344 23.0468 8.31059 24.2862 9.23128C25.5255 10.152 26.4355 11.4473 26.8813 12.9254C27.3271 14.4036 27.2852 15.986 26.7616 17.4384C26.238 18.8909 25.2606 20.1361 23.9742 20.9898C23.9052 21.0357 23.8573 21.1071 23.841 21.1883C23.8247 21.2695 23.8413 21.3539 23.8872 21.4229C23.933 21.4919 24.0044 21.5399 24.0856 21.5562C24.1668 21.5726 24.2512 21.5561 24.3203 21.5102C25.7185 20.5822 26.7807 19.2286 27.3497 17.6498C27.9187 16.071 27.9642 14.351 27.4796 12.7443C26.995 11.1376 26.0059 9.7297 24.6588 8.7289C23.3117 7.7281 21.6782 7.18764 20 7.1875Z" fill="#1BB899"/>
<path d="M18.6983 22.7052C19.5602 22.8492 20.4399 22.8492 21.3018 22.7052C21.3835 22.6915 21.4565 22.6459 21.5046 22.5784C21.5527 22.5109 21.572 22.427 21.5583 22.3453C21.5445 22.2635 21.4989 22.1906 21.4314 22.1425C21.3639 22.0944 21.2801 22.0751 21.1983 22.0888C20.4049 22.2208 19.5952 22.2208 18.8018 22.0888C18.72 22.0751 18.6362 22.0944 18.5687 22.1425C18.5012 22.1906 18.4555 22.2635 18.4418 22.3453C18.4281 22.427 18.4474 22.5109 18.4955 22.5784C18.5436 22.6459 18.6166 22.6915 18.6983 22.7052Z" fill="#1BB899"/>
<path d="M33.5883 12.8836C33.5207 12.4282 33.2913 12.0123 32.942 11.7123C32.5928 11.4123 32.1471 11.2482 31.6867 11.25H30.7375C30.6025 11.2489 30.4708 11.2077 30.3592 11.1316C30.2476 11.0555 30.1612 10.948 30.1109 10.8227C30.1098 10.8201 30.1087 10.8175 30.1078 10.8148L30.1039 10.8063L30.1031 10.8031C30.0502 10.6791 30.0354 10.5422 30.0606 10.4097C30.0858 10.2773 30.1498 10.1553 30.2445 10.0594L30.9148 9.38906C31.2415 9.06441 31.4403 8.63298 31.4749 8.17375C31.5095 7.71451 31.3775 7.25817 31.1031 6.88828C30.2656 5.74292 29.2563 4.73365 28.1109 3.89611C27.7403 3.62398 27.2845 3.49346 26.826 3.52813C26.3674 3.5628 25.9365 3.76039 25.6109 4.08516L24.9406 4.75548C24.8783 4.81781 24.8042 4.86717 24.7227 4.90069C24.6411 4.93422 24.5538 4.95124 24.4656 4.95079C24.3734 4.95069 24.2822 4.93264 24.1969 4.89765L24.1906 4.89453L24.1852 4.8922C24.1826 4.89095 24.18 4.8899 24.1773 4.88907C24.052 4.83878 23.9445 4.75236 23.8684 4.64079C23.7923 4.52923 23.7511 4.39755 23.75 4.26251V3.31327C23.7517 2.85291 23.5875 2.40733 23.2875 2.05813C22.9875 1.70892 22.5718 1.47945 22.1164 1.41172C20.7137 1.19609 19.2863 1.19609 17.8836 1.41172C17.4282 1.47945 17.0125 1.70892 16.7125 2.05813C16.4125 2.40733 16.2483 2.85291 16.25 3.31327V4.2625C16.2489 4.39755 16.2077 4.52922 16.1316 4.64079C16.0555 4.75235 15.948 4.83877 15.8227 4.88907C15.8203 4.88983 15.8172 4.89139 15.8148 4.89219L15.807 4.8953L15.8031 4.89764C15.7178 4.93263 15.6266 4.95068 15.5344 4.95078C15.4462 4.95124 15.3589 4.93421 15.2773 4.90068C15.1958 4.86716 15.1217 4.8178 15.0594 4.75547L14.3891 4.08516C14.0634 3.76023 13.6322 3.56261 13.1735 3.52808C12.7148 3.49354 12.2589 3.62436 11.8883 3.89686C10.7429 4.73442 9.73365 5.74369 8.89609 6.88905C8.62205 7.25898 8.49034 7.7152 8.52506 8.17426C8.55977 8.63333 8.7586 9.06455 9.08516 9.38905L9.75547 10.0594C9.85018 10.1553 9.9142 10.2773 9.93938 10.4097C9.96456 10.5422 9.94977 10.6791 9.89688 10.8031L9.89219 10.8148C9.89128 10.8175 9.89024 10.8201 9.88906 10.8227C9.83877 10.948 9.75235 11.0555 9.64078 11.1316C9.52922 11.2077 9.39754 11.2489 9.2625 11.25H8.31328C7.85287 11.2482 7.40722 11.4123 7.05799 11.7123C6.70875 12.0123 6.47931 12.4282 6.41172 12.8836C6.19609 14.2863 6.19609 15.7137 6.41172 17.1164C6.47944 17.5718 6.70892 17.9875 7.05812 18.2875C7.40733 18.5875 7.85291 18.7517 8.31328 18.75H9.2625C9.39754 18.7511 9.52922 18.7923 9.64078 18.8684C9.75235 18.9445 9.83877 19.052 9.88906 19.1773C9.88977 19.1798 9.89082 19.1822 9.89219 19.1844L9.89766 19.1969C9.95023 19.321 9.96478 19.4579 9.93947 19.5903C9.91416 19.7227 9.85012 19.8446 9.75547 19.9406L9.08516 20.6109C8.75851 20.9356 8.5597 21.367 8.52512 21.8263C8.49055 22.2855 8.62252 22.7418 8.89688 23.1117C9.73442 24.2571 10.7437 25.2664 11.8891 26.1039C12.1956 26.3287 12.5617 26.4579 12.9415 26.4753C13.3212 26.4927 13.6977 26.3975 14.0234 26.2016C13.8386 26.4707 13.7431 26.7911 13.7504 27.1175C13.7577 27.4439 13.8674 27.7597 14.0641 28.0203C13.8603 28.2904 13.75 28.6195 13.75 28.9578C13.75 29.2961 13.8603 29.6252 14.0641 29.8953C13.8602 30.1655 13.75 30.4947 13.75 30.8332C13.75 31.1716 13.8602 31.5009 14.0641 31.7711C13.9317 31.9458 13.838 32.1465 13.7891 32.3601C13.7681 32.4517 13.7681 32.5469 13.7889 32.6385C13.8098 32.7301 13.851 32.8158 13.9096 32.8893C13.9681 32.9628 14.0425 33.0221 14.1271 33.0629C14.2117 33.1037 14.3045 33.125 14.3984 33.125H15.1125L15.4367 34.743C15.5088 35.1001 15.6832 35.4286 15.9385 35.6885C16.1938 35.9484 16.5192 36.1286 16.875 36.207V36.875C16.8751 37.3725 17.0726 37.8497 17.4241 38.2018C17.7757 38.5539 18.2525 38.7522 18.75 38.7531H21.25C21.7475 38.7522 22.2243 38.5539 22.5759 38.2018C22.9274 37.8497 23.1249 37.3725 23.125 36.875V36.207C23.4808 36.1286 23.8062 35.9484 24.0615 35.6885C24.3168 35.4286 24.4912 35.1001 24.5633 34.743L24.8875 33.125H25.1094C25.2064 33.1249 25.3021 33.1024 25.3891 33.0594C25.5934 32.9573 25.7728 32.8116 25.9145 32.6324C26.0561 32.4533 26.1566 32.2451 26.2088 32.0228C26.261 31.8004 26.2636 31.5693 26.2165 31.3458C26.1693 31.1223 26.0735 30.912 25.9359 30.7297C26.1398 30.4596 26.25 30.1305 26.25 29.7922C26.25 29.4538 26.1398 29.1247 25.9359 28.8547C26.1398 28.5846 26.25 28.2555 26.25 27.9172C26.25 27.5788 26.1398 27.2497 25.9359 26.9797C26.0813 26.7876 26.1798 26.5642 26.2234 26.3273C26.5308 26.4561 26.8662 26.5032 27.1971 26.4639C27.528 26.4246 27.8431 26.3003 28.1117 26.1031C29.2571 25.2656 30.2664 24.2563 31.1039 23.1109C31.378 22.741 31.5097 22.2848 31.4749 21.8257C31.4402 21.3667 31.2414 20.9355 30.9148 20.6109L30.2445 19.9406C30.1498 19.8447 30.0858 19.7227 30.0606 19.5903C30.0354 19.4578 30.0502 19.3209 30.1031 19.1969L30.1062 19.1891L30.1078 19.1844C30.1092 19.1822 30.1102 19.1798 30.1109 19.1773C30.1612 19.052 30.2476 18.9445 30.3592 18.8684C30.4708 18.7923 30.6024 18.7511 30.7375 18.75H31.6867C32.1471 18.7517 32.5927 18.5875 32.9419 18.2875C33.2911 17.9875 33.5205 17.5718 33.5883 17.1164C33.8039 15.7137 33.8039 14.2863 33.5883 12.8836H33.5883ZM23.6445 34.5594C23.6014 34.7714 23.4865 34.9622 23.3191 35.0993C23.1518 35.2365 22.9422 35.3118 22.7258 35.3125H17.2742C17.0578 35.3118 16.8482 35.2365 16.6809 35.0993C16.5135 34.9622 16.3986 34.7714 16.3555 34.5594L16.0055 32.8125H23.9945L23.6445 34.5594ZM24.625 31.0508L15.2383 32.0938C15.2266 32.0945 15.2148 32.0953 15.2031 32.0953C15.1232 32.0952 15.0464 32.0644 14.9884 32.0094C14.9305 31.9544 14.8958 31.8793 14.8915 31.7995C14.8872 31.7197 14.9136 31.6413 14.9653 31.5803C15.017 31.5194 15.0901 31.4806 15.1695 31.4719L24.5563 30.4289C24.6387 30.4198 24.7214 30.4438 24.7862 30.4957C24.8509 30.5475 24.8924 30.623 24.9016 30.7055C24.9107 30.7879 24.8867 30.8706 24.8348 30.9354C24.7829 31.0002 24.7075 31.0417 24.625 31.0508H24.625ZM17.1977 15.0781C17.332 15.5984 17.6703 15.968 18.1258 16.0906C18.3433 16.1484 18.5722 16.1476 18.7894 16.0885C19.0066 16.0294 19.2043 15.914 19.3625 15.7539C19.7195 15.3945 19.8336 14.8617 19.6758 14.2914C19.5297 13.7617 19.1133 13.3547 18.5352 13.1367C18.9164 12.925 19.4172 12.8125 20 12.8125C20.5828 12.8125 21.0836 12.925 21.4648 13.1367C20.8867 13.3547 20.4703 13.7617 20.3242 14.2914C20.1664 14.8617 20.2805 15.3945 20.6375 15.7539C20.7568 15.874 20.8986 15.9694 21.0547 16.0347C21.2109 16.1 21.3784 16.1339 21.5477 16.1344C21.658 16.1346 21.7678 16.1199 21.8742 16.0906C22.3297 15.968 22.668 15.5984 22.8023 15.0781C22.9416 14.5875 22.9099 14.064 22.7125 13.5938C23.3672 13.6492 24.0383 13.957 24.2086 14.5687C23.5281 16.0289 22.4172 19.1227 22.2187 24.0625H17.7813C17.5828 19.1227 16.4719 16.0289 15.7914 14.5687C15.9617 13.957 16.6328 13.6492 17.2875 13.5938C17.0901 14.064 17.0584 14.5875 17.1977 15.0781ZM17.9781 13.6312C18.4844 13.732 18.9461 13.9977 19.0742 14.4586C19.1711 14.8109 19.1164 15.1148 18.9195 15.3133C18.8385 15.3944 18.7378 15.4532 18.6273 15.4837C18.5168 15.5142 18.4002 15.5156 18.2891 15.4875C18.0531 15.4234 17.8805 15.2227 17.8023 14.9219C17.675 14.4305 17.7359 13.9859 17.9781 13.6312ZM22.0219 13.6312C22.2641 13.9859 22.325 14.4305 22.1977 14.9219C22.1195 15.2227 21.9469 15.4234 21.7109 15.4875C21.5998 15.5155 21.4832 15.5142 21.3727 15.4836C21.2622 15.4531 21.1615 15.3944 21.0805 15.3133C20.8836 15.1148 20.8289 14.8109 20.9258 14.4586C21.0539 13.9976 21.5156 13.732 22.0219 13.6312ZM24.5555 24.8047C24.6378 24.7955 24.7205 24.8193 24.7852 24.8711C24.85 24.9228 24.8916 24.9981 24.9008 25.0805C24.91 25.1628 24.8861 25.2455 24.8344 25.3102C24.7827 25.375 24.7074 25.4166 24.625 25.4258L15.2383 26.4688C15.2266 26.4695 15.2148 26.4703 15.2031 26.4703C15.1233 26.4703 15.0464 26.4396 14.9885 26.3847C14.9305 26.3297 14.8958 26.2546 14.8915 26.1749C14.8872 26.0951 14.9136 26.0168 14.9654 25.9559C15.0171 25.895 15.0901 25.8563 15.1695 25.8477L24.5555 24.8047ZM15.1695 27.7227L24.5555 26.6797C24.6378 26.6705 24.7205 26.6943 24.7852 26.7461C24.85 26.7978 24.8916 26.8731 24.9008 26.9555C24.91 27.0378 24.8861 27.1205 24.8344 27.1852C24.7827 27.25 24.7074 27.2916 24.625 27.3008L15.2383 28.3438C15.2266 28.3445 15.2148 28.3453 15.2031 28.3453C15.1233 28.3453 15.0464 28.3146 14.9885 28.2597C14.9305 28.2047 14.8958 28.1296 14.8915 28.0499C14.8872 27.9701 14.9136 27.8918 14.9654 27.8309C15.0171 27.77 15.0901 27.7313 15.1695 27.7227H15.1695ZM15.1695 29.5977L24.5555 28.5547C24.6378 28.5455 24.7205 28.5693 24.7852 28.6211C24.85 28.6728 24.8916 28.7481 24.9008 28.8305C24.91 28.9128 24.8861 28.9955 24.8344 29.0602C24.7827 29.125 24.7074 29.1666 24.625 29.1758L15.2383 30.2188C15.2266 30.2195 15.2148 30.2203 15.2031 30.2203C15.1233 30.2203 15.0464 30.1896 14.9885 30.1347C14.9305 30.0797 14.8958 30.0046 14.8915 29.9249C14.8872 29.8451 14.9136 29.7668 14.9654 29.7059C15.0171 29.645 15.0901 29.6063 15.1695 29.5977H15.1695ZM32.6617 16.9734C32.6271 17.2071 32.5095 17.4205 32.3305 17.5746C32.1515 17.7287 31.9229 17.8131 31.6867 17.8125H30.7375C30.4169 17.8132 30.1037 17.9092 29.8379 18.0884C29.572 18.2676 29.3655 18.5218 29.2445 18.8187C29.2436 18.8214 29.2426 18.824 29.2414 18.8266L29.2383 18.8344C29.1132 19.13 29.079 19.4562 29.1401 19.7714C29.2012 20.0866 29.3548 20.3764 29.5813 20.6039L30.2516 21.2742C30.4191 21.441 30.5209 21.6625 30.5384 21.8983C30.5559 22.134 30.4879 22.3681 30.3469 22.5578C29.5661 23.6253 28.6253 24.5661 27.5578 25.3469C27.3681 25.4877 27.134 25.5556 26.8983 25.5381C26.6626 25.5206 26.4411 25.4189 26.2742 25.2516L25.7844 24.7625C25.8396 24.6627 25.8806 24.5557 25.9062 24.4445C25.9167 24.3988 25.9167 24.3512 25.9062 24.3055C25.8958 24.2597 25.8751 24.2169 25.8459 24.1802C25.8166 24.1435 25.7794 24.1138 25.7371 24.0935C25.6948 24.0731 25.6485 24.0625 25.6016 24.0625H22.8453C23.132 17.2195 25.2344 13.9617 25.2602 13.9227C25.306 13.8537 25.3225 13.7693 25.3061 13.6881C25.2897 13.6069 25.2418 13.5356 25.1729 13.4897C25.1039 13.4439 25.0196 13.4272 24.9384 13.4435C24.8572 13.4598 24.7858 13.5077 24.7398 13.5766C24.725 13.5992 24.6594 13.6984 24.5602 13.8766C24.1133 13.25 23.2672 12.9617 22.5047 12.9602C22.4273 12.9609 22.3516 12.9625 22.2766 12.9672C21.7625 12.4625 20.9664 12.1875 20 12.1875C19.0336 12.1875 18.2375 12.4625 17.7234 12.9672C17.6484 12.9625 17.5711 12.9609 17.4953 12.9602C16.7328 12.9617 15.8867 13.25 15.4398 13.8766C15.3406 13.6984 15.275 13.5992 15.2602 13.5766C15.2374 13.5423 15.2082 13.5128 15.174 13.4899C15.1399 13.4669 15.1016 13.4509 15.0613 13.4428C15.0209 13.4347 14.9794 13.4346 14.9391 13.4425C14.8987 13.4505 14.8603 13.4663 14.8261 13.4891C14.7919 13.512 14.7625 13.5413 14.7396 13.5755C14.7168 13.6097 14.7009 13.648 14.6929 13.6884C14.6848 13.7287 14.6849 13.7703 14.6929 13.8106C14.701 13.8509 14.7169 13.8893 14.7398 13.9234C14.7625 13.957 16.8688 17.1961 17.1547 24.0625H14.8906C14.8421 24.0624 14.7942 24.0736 14.7508 24.0953C14.5959 24.1723 14.4589 24.2808 14.3484 24.4139C14.238 24.5469 14.1565 24.7016 14.1094 24.868L13.7258 25.2516C13.559 25.4191 13.3375 25.5209 13.1017 25.5384C12.866 25.5559 12.6319 25.4879 12.4422 25.3469C11.3747 24.5661 10.4339 23.6253 9.65313 22.5578C9.51209 22.3681 9.4441 22.134 9.4616 21.8983C9.4791 21.6625 9.58093 21.441 9.74844 21.2742L10.4188 20.6039C10.645 20.3768 10.7986 20.0874 10.8598 19.7727C10.921 19.4579 10.8872 19.1321 10.7625 18.8367L10.7586 18.8266L10.4703 18.9469L10.7555 18.8187C10.6345 18.5218 10.428 18.2676 10.1621 18.0884C9.89625 17.9092 9.5831 17.8132 9.2625 17.8125H8.31328C8.07707 17.8131 7.84854 17.7287 7.6695 17.5746C7.49045 17.4205 7.37288 17.2071 7.33828 16.9734C7.13724 15.6655 7.13724 14.3345 7.33828 13.0266C7.37288 12.7929 7.49045 12.5795 7.6695 12.4254C7.84854 12.2713 8.07707 12.1869 8.31328 12.1875H9.2625C9.5831 12.1868 9.89625 12.0908 10.1621 11.9116C10.428 11.7324 10.6345 11.4782 10.7555 11.1813C10.7564 11.1786 10.7574 11.176 10.7586 11.1734L10.7617 11.1656C10.8868 10.87 10.921 10.5438 10.8599 10.2286C10.7988 9.91343 10.6452 9.62361 10.4188 9.3961L9.74844 8.72578C9.58093 8.559 9.4791 8.33747 9.4616 8.10174C9.4441 7.86602 9.51209 7.63187 9.65313 7.44219C10.4339 6.37467 11.3747 5.43393 12.4422 4.65313C12.6319 4.51209 12.866 4.4441 13.1017 4.46161C13.3375 4.47911 13.559 4.58094 13.7258 4.74844L14.3961 5.41874C14.6234 5.64508 14.9129 5.79865 15.2277 5.85987C15.5426 5.92109 15.8685 5.88719 16.1641 5.7625L16.1812 5.75546C16.4782 5.63451 16.7324 5.42797 16.9116 5.16211C17.0908 4.89626 17.1868 4.58311 17.1875 4.2625V3.31327C17.1869 3.07706 17.2714 2.84853 17.4254 2.66949C17.5795 2.49045 17.7929 2.37288 18.0266 2.33827C19.3346 2.13829 20.6654 2.13829 21.9734 2.33827C22.2071 2.37288 22.4205 2.49045 22.5746 2.66949C22.7286 2.84853 22.8131 3.07706 22.8125 3.31327V4.2625C22.8131 4.58282 22.9089 4.89573 23.0878 5.16143C23.2667 5.42714 23.5206 5.63364 23.8172 5.75468L23.8344 5.76172C24.13 5.88681 24.4563 5.92098 24.7714 5.8599C25.0866 5.79881 25.3764 5.64523 25.6039 5.41874L26.2742 4.74844C26.441 4.58093 26.6625 4.47911 26.8983 4.4616C27.134 4.4441 27.3681 4.51209 27.5578 4.65313C28.6253 5.43393 29.5661 6.37467 30.3469 7.44218C30.4879 7.63187 30.5559 7.86601 30.5384 8.10174C30.5209 8.33746 30.4191 8.559 30.2516 8.72577L29.5812 9.39609C29.355 9.62323 29.2014 9.9126 29.1402 10.2273C29.079 10.5421 29.1128 10.8679 29.2375 11.1633L29.2414 11.1734L29.5297 11.0531L29.2445 11.1813C29.3655 11.4782 29.572 11.7324 29.8379 11.9116C30.1037 12.0908 30.4169 12.1868 30.7375 12.1875H31.6867C31.9229 12.1869 32.1515 12.2713 32.3305 12.4254C32.5095 12.5795 32.6271 12.7929 32.6617 13.0266C32.8628 14.3345 32.8628 15.6655 32.6617 16.9734H32.6617Z" fill="#1BB899"/>
</svg>
