<?xml version="1.0" encoding="UTF-8"?>
<svg xmlns="http://www.w3.org/2000/svg" viewBox="0 0 512 512" width="512" height="512"><title>innovation-creative-idea-light-bulb-business-technology</title><g id="Solid"><path d="M256,92a100.00812,100.00812,0,0,0-55.29932,183.33105,4.00018,4.00018,0,1,0,4.42969-6.6621,92,92,0,1,1,101.73926,0,4.00018,4.00018,0,0,0,4.42969,6.6621A100.00812,100.00812,0,0,0,256,92Z"/><path d="M239.33789,290.61816a101.14608,101.14608,0,0,0,33.32422,0,4.00048,4.00048,0,0,0-1.32422-7.89062,93.46489,93.46489,0,0,1-30.67578,0,4.00048,4.00048,0,0,0-1.32422,7.89062Z"/><path d="M429.92993,164.90991A24.508,24.508,0,0,0,405.59009,144H393.43994a8.71616,8.71616,0,0,1-8.02-5.47,1.04034,1.04034,0,0,1-.03992-.1001l-.04992-.10986-.01-.04a8.69514,8.69514,0,0,1,1.80993-9.52l8.58-8.58008a24.52849,24.52849,0,0,0,2.41-32.01,176.5481,176.5481,0,0,0-38.29993-38.2998,24.65164,24.65164,0,0,0-32,2.41992L319.24,60.87012a8.53676,8.53676,0,0,1-6.08008,2.5,9.08933,9.08933,0,0,1-3.43994-.68018l-.08-.04-.06994-.02978a.66258.66258,0,0,0-.1001-.04,8.71634,8.71634,0,0,1-5.47-8.02V42.40991a24.51679,24.51679,0,0,0-20.90991-24.33984,178.29265,178.29265,0,0,0-54.18012,0A24.51673,24.51673,0,0,0,208,42.40991V54.56006a8.71634,8.71634,0,0,1-5.47,8.02c-.03.00976-.07.02978-.1.04l-.1.03979-.05.03a9.08918,9.08918,0,0,1-3.44.68018,8.53672,8.53672,0,0,1-6.08-2.5L184.18,52.29a24.64722,24.64722,0,0,0-32.01-2.41016,176.55346,176.55346,0,0,0-38.3,38.30005,24.52864,24.52864,0,0,0,2.42,32l8.58,8.58008a8.69548,8.69548,0,0,1,1.81,9.52l-.06.1499a1.03943,1.03943,0,0,1-.04.1001,8.716,8.716,0,0,1-8.02,5.47H106.41a24.50817,24.50817,0,0,0-24.34,20.90991,178.29652,178.29652,0,0,0,0,54.17993A24.517,24.517,0,0,0,106.41,240h12.15a8.716,8.716,0,0,1,8.02,5.47.3553.3553,0,0,0,.04.09009l.07.15991a8.71646,8.71646,0,0,1-1.82,9.52l-8.58,8.58008a24.52855,24.52855,0,0,0-2.41,32.01,176.54705,176.54705,0,0,0,38.3,38.2998,24.6849,24.6849,0,0,0,27.32,1.25,19.92355,19.92355,0,0,0,.52,23.28,19.92036,19.92036,0,0,0,0,24,19.93531,19.93531,0,0,0,0,24.01,19.81033,19.81033,0,0,0-3.52,7.54,8.00491,8.00491,0,0,0,7.8,9.79h9.14l4.15,20.71A24.06836,24.06836,0,0,0,216,463.45V472a24.04685,24.04685,0,0,0,24,24.04h32A24.04685,24.04685,0,0,0,296,472v-8.55a24.06821,24.06821,0,0,0,18.40991-18.74L318.56006,424h2.84a8.08058,8.08058,0,0,0,3.58-.84009,19.91889,19.91889,0,0,0,7-29.82007,19.92036,19.92036,0,0,0,0-24,19.92036,19.92036,0,0,0,0-24,19.76246,19.76246,0,0,0,3.67993-8.34985,24.7093,24.7093,0,0,0,24.17017-2.86987,176.55452,176.55452,0,0,0,38.29992-38.3,24.52858,24.52858,0,0,0-2.42-32L387.13,255.24a8.69514,8.69514,0,0,1-1.80993-9.52l.03992-.09985.02-.06006a.355.355,0,0,0,.03992-.09009,8.71616,8.71616,0,0,1,8.02-5.47h12.15015a24.51678,24.51678,0,0,0,24.33984-20.91016,178.29141,178.29141,0,0,0,0-54.17993ZM302.65,442.35986A12.03864,12.03864,0,0,1,290.89,452H221.11a12.03869,12.03869,0,0,1-11.76-9.64014L204.87,420H307.13ZM315.2,397.45l-120.15,13.3501c-.15.01-.3.02-.45.02a4.00212,4.00212,0,0,1-.43-7.98023L314.32007,389.49a4.00422,4.00422,0,0,1,.87988,7.96ZM220.13,193c1.72,6.65991,6.05,11.39014,11.88,12.96a16.35893,16.35893,0,0,0,15.83-4.31006c4.56994-4.59985,6.03-11.41992,4.00995-18.72-1.87-6.78-7.2-11.99-14.6-14.78C242.13,165.43994,248.54,164,256,164s13.87,1.43994,18.75,4.1499c-7.4,2.79-12.73,8-14.6,14.78-2.02,7.3-.55993,14.12012,4.00989,18.72A16.49233,16.49233,0,0,0,275.81006,206.52,15.65245,15.65245,0,0,0,279.99,205.96c5.83008-1.56982,10.16-6.3,11.88-12.96a28.79109,28.79109,0,0,0-1.15-19c8.38.71,16.97,4.6499,19.15,12.48-8.71009,18.68994-22.93006,58.29-25.47,121.52H227.6c-2.54-63.23-16.75995-102.83008-25.47-121.52,2.18-7.83008,10.77-11.77,19.15-12.48A28.79071,28.79071,0,0,0,220.13,193Zm9.99-18.52c6.48,1.29,12.39,4.68994,14.03,10.59009,1.24,4.51.54,8.3999-1.98,10.93994a8.47263,8.47263,0,0,1-8.07,2.23c-3.02-.82007-5.23-3.38989-6.23-7.24C226.24,184.71,227.02,179.02,230.12,174.48Zm51.76,0c3.1,4.54,3.88,10.23,2.25,16.52-1,3.8501-3.21008,6.41992-6.23,7.24a8.479,8.479,0,0,1-8.06994-2.23c-2.52-2.54-3.22009-6.42993-1.9801-10.93994C269.49,179.16992,275.4,175.77,281.88,174.48ZM314.31006,317.5a3.9998,3.9998,0,0,1,.88989,7.95l-120.15,13.3501c-.15.01-.3.02-.45.02a3.99674,3.99674,0,0,1-.43-7.97ZM194.17,354.8501,314.31006,341.5a3.9998,3.9998,0,0,1,.88989,7.95l-120.15,13.3501c-.15.01-.3.02-.45.02a3.99674,3.99674,0,0,1-.43-7.97Zm0,24L314.31006,365.5a3.9998,3.9998,0,0,1,.88989,7.95l-120.15,13.3501c-.15.01-.3.02-.45.02a3.99674,3.99674,0,0,1-.43-7.97ZM418.07007,217.26a12.58311,12.58311,0,0,1-12.48,10.74H393.43994a20.6833,20.6833,0,0,0-19.10986,12.87988,1.013,1.013,0,0,1-.04.1001l-.04.1001a20.682,20.682,0,0,0,4.39,22.6499l8.58,8.58008a12.58688,12.58688,0,0,1,1.22,16.42993,164.68206,164.68206,0,0,1-35.69995,35.7,12.59865,12.59865,0,0,1-16.42993-1.22l-6.27-6.26A15.74767,15.74767,0,0,0,331.6,312.89014,4.00089,4.00089,0,0,0,327.7,308h-35.28C296.09009,220.40991,323,178.71,323.33008,178.21a3.99944,3.99944,0,0,0-6.66016-4.42993c-.18994.29-1.02991,1.55981-2.29992,3.84009-5.72-8.02-16.54993-11.71021-26.30994-11.73-.99.00976-1.96008.02978-2.92005.08984C278.56006,159.52,268.37,156,256,156s-22.56,3.52-29.14,9.98c-.96-.06006-1.95-.08008-2.92-.08984-9.76.01977-20.59,3.71-26.31,11.73-1.27-2.28028-2.11-3.55-2.3-3.84009a4.00216,4.00216,0,1,0-6.66,4.43994c.29.42993,27.25,41.88989,30.91,129.78H190.6a3.99222,3.99222,0,0,0-1.79.41992,15.88125,15.88125,0,0,0-8.21,9.89014L175.69,323.22a12.58711,12.58711,0,0,1-16.43,1.22A164.681,164.681,0,0,1,123.56,288.74a12.58688,12.58688,0,0,1,1.22-16.42993l8.58-8.58008a20.66559,20.66559,0,0,0,4.4-22.62012l-.05-.12988-3.69,1.54,3.65-1.64014A20.68334,20.68334,0,0,0,118.56,228H106.41a12.583,12.583,0,0,1-12.48-10.74,166.26847,166.26847,0,0,1,0-50.52A12.583,12.583,0,0,1,106.41,156h12.15a20.68334,20.68334,0,0,0,19.11-12.87988,1.013,1.013,0,0,1,.04-.1001l.04-.1001a20.682,20.682,0,0,0-4.39-22.6499l-8.58-8.58008A12.58688,12.58688,0,0,1,123.56,95.26a164.681,164.681,0,0,1,35.7-35.69995,12.58711,12.58711,0,0,1,16.43,1.22l8.58,8.57983A20.67784,20.67784,0,0,0,206.9,73.76l.22-.09009A20.68313,20.68313,0,0,0,220,54.56006V42.40991a12.58331,12.58331,0,0,1,10.74-12.48,167.13583,167.13583,0,0,1,50.52,0,12.58331,12.58331,0,0,1,10.74,12.48V54.56006a20.67142,20.67142,0,0,0,12.86,19.09985l.22009.09009A20.68185,20.68185,0,0,0,327.73,69.35986L336.31006,60.78a12.587,12.587,0,0,1,16.42993-1.22,164.68206,164.68206,0,0,1,35.7,35.69995,12.58688,12.58688,0,0,1-1.22,16.42993L378.64,120.27a20.66559,20.66559,0,0,0-4.4,22.62012l.05.12988,3.68994-1.54-3.6499,1.64014A20.6833,20.6833,0,0,0,393.43994,156h12.15015a12.58311,12.58311,0,0,1,12.48,10.74,166.27358,166.27358,0,0,1,0,50.52Z"/></g></svg>
