<svg height="465pt" viewBox="0 -46 465.99785 465" width="465pt" xmlns="http://www.w3.org/2000/svg"><path d="m397.683594 170.414062c-11.746094-11.128906-27.613282-17.257812-44.683594-17.257812s-32.9375 6.128906-44.683594 17.257812c-10.332031 9.773438-16.742187 22.980469-18.03125 37.144532 37.992188 25.292968 87.46875 25.253906 125.421875-.101563-1.308593-14.125-7.714843-27.292969-18.023437-37.042969zm0 0"/><path d="m200.859375 287.445312c-16.011719 13.660157-39.574219 13.667969-55.597656.023438l-145.261719-123v176.03125c-.0078125 5.503906 1.371094 10.921875 4.011719 15.753906l83.628906-85.535156c1.738281-1.824219 4.328125-2.574219 6.773437-1.960938 2.449219.613282 4.375 2.5 5.042969 4.929688.671875 2.433594-.019531 5.039062-1.808593 6.820312l-84.449219 86.375c5.707031 4.300782 12.65625 6.625 19.800781 6.617188h280c7.125.007812 14.058594-2.304688 19.757812-6.585938l-84.914062-86.394531c-2.65625-2.765625-2.59375-7.152343.140625-9.84375 2.734375-2.6875 7.125-2.671875 9.84375.03125l84.132813 85.601563c2.65625-4.847656 4.046874-10.285156 4.039062-15.808594v-100.1875c-22.957031-1.167969-45.148438-8.621094-64.152344-21.550781zm0 0"/><path d="m191.804688 276.769531 78.667968-66.714843c-3.425781-2.941407-6.691406-6.058594-9.792968-9.339844-20.757813-21.902344-32.996094-50.503906-34.507813-80.644532h-193.171875c-15.746094.023438-29.289062 11.148438-32.367188 26.589844l153.675782 130.125c10.808594 9.203125 26.699218 9.195313 37.496094-.015625zm0 0"/><path d="m353 .5c-45.121094-.003906-85.917969 26.839844-103.777344 68.273438-17.855468 41.4375-9.351562 89.527343 21.632813 122.324218 2.195312 2.324219 4.46875 4.539063 6.820312 6.644532 7.300781-33.871094 37.765625-58.589844 75.324219-58.589844 37.53125 0 67.984375 24.683594 75.308594 58.519531 34.933594-31.214844 46.972656-80.757813 30.253906-124.523437-16.714844-43.765626-58.714844-72.667969-105.5625-72.648438zm0 125.019531c-25.957031 0-47-21.042969-47-47s21.042969-47 47-47 47 21.042969 47 47c-.03125 25.945313-21.054688 46.96875-47 47zm0 0"/><path d="m386 78.519531c0 18.226563-14.773438 33-33 33s-33-14.773437-33-33c0-18.226562 14.773438-33 33-33s33 14.773438 33 33zm0 0"/></svg>