<svg id="Layer_1" enable-background="new 0 0 512 512" height="512" viewBox="0 0 512 512" width="512" xmlns="http://www.w3.org/2000/svg"><g><path d="m504.5 169.508c4.143 0 7.5-3.357 7.5-7.5v-124.5c0-20.678-16.822-37.5-37.5-37.5h-218.156c-20.678 0-37.5 16.822-37.5 37.5v158.65h-181.344c-20.678 0-37.5 16.822-37.5 37.5v15.375c.347 9.959 14.69 9.881 15 0v-15.375c0-12.406 10.094-22.5 22.5-22.5h218.156c12.406 0 22.5 10.094 22.5 22.5v183.446c0 12.406-10.094 22.5-22.5 22.5h-137.48c-2.002 0-3.922.801-5.33 2.224 0 0-43.987 44.44-43.987 44.44v-39.164c0-4.143-3.357-7.5-7.5-7.5h-23.859c-12.406 0-22.5-10.094-22.5-22.5v-128.11c0-4.143-3.357-7.5-7.5-7.5s-7.5 3.357-7.5 7.5v128.11c0 20.678 16.822 37.5 37.5 37.5h16.358v49.903c0 6.475 8.08 10.075 12.83 5.276l54.616-55.18h134.352c20.678 0 37.5-16.822 37.5-37.5v-158.648h97.539l54.616 55.179c4.75 4.799 12.83 1.199 12.83-5.276v-49.902h16.359c20.678 0 37.5-16.822 37.5-37.5v-20.298c0-4.143-3.357-7.5-7.5-7.5s-7.5 3.357-7.5 7.5v20.298c0 12.406-10.094 22.5-22.5 22.5h-23.858c-4.143 0-7.5 3.357-7.5 7.5v39.164l-43.987-44.44c-1.408-1.423-3.327-2.224-5.33-2.224h-100.669v-9.797c0-20.678-16.822-37.5-37.5-37.5h-21.812v-158.651c0-12.406 10.094-22.5 22.5-22.5h218.156c12.406 0 22.5 10.094 22.5 22.5v124.5c0 4.143 3.357 7.5 7.5 7.5z"/><path d="m101.577 392.59c3.021 0 5.87-1.84 7.01-4.833l8.82-23.159h58.422l8.732 23.139c3.423 9.073 17.457 3.775 14.033-5.297l-42.414-112.393c-3.16-8.507-15.633-8.527-18.807-.016l-42.804 112.388c-1.743 4.574 2.265 10.171 7.008 10.171zm45.175-105.041 23.417 62.049h-47.049z"/><path d="m365.202 63.049c-35.563 0-64.497 28.933-64.497 64.496-.477 53.745 63.952 84.152 104.962 50.172l11.667 11.667c6.859 6.855 17.464-3.749 10.607-10.607l-11.775-11.775c32.811-41.234 2.161-104.438-50.964-103.953zm0 113.993c-65.573-2.488-65.558-96.514.001-98.993 39.878-.377 63.687 46.35 40.254 78.243l-13.982-13.982c-6.859-6.854-17.464 3.749-10.607 10.607l14.125 14.125c-8.295 6.272-18.615 10-29.791 10z"/></g></svg>