<svg width="100" height="100" viewBox="0 0 100 100" fill="none" xmlns="http://www.w3.org/2000/svg">
<g clip-path="url(#clip0)">
<path d="M99.7626 39.0176C99.4085 38.5467 99.0543 38.1926 97.2835 38.0759C96.8126 38.0759 95.396 37.9551 92.9168 37.9551C86.4168 37.9551 81.9335 39.9634 79.6876 43.8592C80.2793 39.9634 76.5001 37.9551 68.2335 37.9551C58.5501 37.9551 52.4085 41.8509 49.9293 49.7634C48.9876 52.7176 48.9876 55.0801 49.696 56.9717H47.3335C45.5626 57.0842 43.2001 57.2051 41.6668 57.2051C38.1251 57.2051 35.8751 56.6134 35.0501 55.4342C34.3418 54.3717 34.3418 52.3634 35.2876 49.4092C36.821 44.5676 40.4835 42.4426 46.3876 42.4426C49.4585 42.4426 52.4085 42.7967 52.4085 42.7967C52.7626 42.7967 53.0001 42.3259 53.0001 41.9717L52.8835 41.6176L52.646 39.9634C52.5293 38.9009 51.7001 38.3092 50.2835 38.0759C48.9876 37.9551 47.921 37.9551 46.5043 37.9551H46.3876C38.7126 37.9551 33.2793 40.5551 30.3293 45.5134C31.3918 40.4342 27.846 37.9551 19.7001 37.9551C15.096 37.9551 11.7835 38.0759 9.89598 38.3092C8.36265 38.5467 7.41681 39.1384 7.06265 40.2009L6.35431 42.3259C6.23765 42.6801 6.47515 42.9176 6.94598 42.9176C7.30015 42.9176 8.71681 42.6801 11.0793 42.5592C13.3969 42.3629 15.7204 42.2447 18.046 42.2051C22.5335 42.2051 24.5418 43.3884 23.8335 45.6301C23.7126 46.1051 23.3585 46.4592 22.771 46.5759C18.521 47.2842 15.096 47.7592 12.6126 48.1134C5.52931 49.0551 1.39598 51.1801 0.333479 54.7259C-1.20402 59.5676 2.57515 61.9259 11.6668 61.9259C16.1585 61.9259 20.0543 61.6926 23.1251 61.1009C24.896 60.7467 25.8418 60.3926 26.196 59.2134L27.846 53.7801C27.7293 59.2134 31.3876 61.9259 39.1835 61.9259C42.4918 61.9259 45.6793 61.8092 47.2126 61.5717C48.7501 61.3384 49.5751 60.9842 49.9293 59.8009L50.2835 58.1509C51.9376 60.7467 55.6001 62.0467 61.1501 62.0467C67.0543 62.0467 70.4793 61.9259 71.421 61.5717C71.7625 61.4951 72.0805 61.3373 72.3481 61.1118C72.6157 60.8862 72.8251 60.5995 72.9585 60.2759L73.0751 59.9217L73.7835 57.6759C73.9043 57.3217 73.6668 57.0842 73.1918 57.0842L69.4168 57.3217C66.9335 57.4426 64.9293 57.5592 63.5085 57.5592C60.796 57.5592 59.0251 57.3217 57.9585 56.9676C56.4251 56.3759 55.7168 55.3134 55.8335 53.5426L67.7626 52.0092C73.0751 51.3009 76.7376 49.6467 78.5085 47.0509L74.3751 60.8634C74.2585 61.1009 74.3751 61.3384 74.4918 61.4551C74.6126 61.5717 74.846 61.6926 75.321 61.6926H80.2793C81.1043 61.6926 81.4585 61.2176 81.5793 60.8634L85.946 45.6301C86.5376 43.6259 88.3085 42.6801 91.6126 42.6801C94.571 42.6801 96.696 42.6801 98.1126 42.7967H98.2293C98.4668 42.7967 98.9376 42.6801 99.2918 42.0884L100 39.9634C100 39.6092 100 39.2551 99.7626 39.0176ZM20.171 57.2092C18.6376 57.4467 16.3918 57.5634 13.5585 57.5634C8.47931 57.5634 6.35431 56.5009 6.94598 54.4926C7.41681 53.0759 8.71681 52.1301 10.8418 51.8926L22.3001 50.3592L20.171 57.2092ZM72.9585 44.9176C72.4835 46.4551 70.2418 47.5176 66.2251 48.1092L56.6626 49.4051L56.896 48.5801C57.7251 45.9801 58.7876 44.3301 60.2043 43.3842C61.621 42.4384 63.9835 41.9676 67.2876 41.9676C71.6626 42.0842 73.5501 43.0301 72.9543 44.9176H72.9585Z" fill="#DFDFDF"/>
</g>
<defs>
<clipPath id="clip0">
<rect width="100" height="100" fill="white"/>
</clipPath>
</defs>
</svg>
