<svg width="100" height="100" viewBox="0 0 100 100" fill="none" xmlns="http://www.w3.org/2000/svg">
<path d="M76.35 38.0695L82.8437 44.5633H93.4875V55.2227L99.9969 61.7164V38.0664L76.35 38.0695ZM8.33437 39.6664L0 60.3383H5.45312L7 56.2352H16.2437L17.9531 60.3383H23.5187L14.3062 39.6664H8.33437ZM25.8781 39.6664V60.3195H31.0219V47.4289L36.6031 53.9383H37.3844L42.9656 47.4602V60.3352H48.125V39.6633H43.6156L36.9906 47.3445L30.35 39.6633L25.8781 39.6664ZM52.05 39.6664V60.3383H60.6281C68.8625 60.3383 72.625 55.9758 72.625 50.0352C72.625 44.3695 68.7188 39.6664 61.1844 39.6664H52.05ZM57.2094 43.457H60.4969C65.3812 43.457 67.3 46.4195 67.3 50.0008C67.3 53.0289 65.7375 56.5445 60.5625 56.5445H57.2094V43.457ZM11.425 44.5977L14.7281 52.6539H8.36562L11.425 44.5977ZM82.8437 45.882L76.1531 52.5539V61.9289H85.5125L92.2031 55.2383H82.8437V45.882Z" fill="#DFDFDF"/>
</svg>
