<svg width="100" height="100" viewBox="0 0 100 100" fill="none" xmlns="http://www.w3.org/2000/svg">
<path d="M99.6 44.9488V39.6738H80.2C76.15 39.6738 74.325 42.1738 74.025 44.5988V44.6738V39.6738H68.325V44.9488H74H99.6ZM74 46.8488L68.3 46.5238V52.5988C68.3 54.4988 67.35 55.0738 64.05 55.0738H59.5C56.775 55.0738 55.625 54.2988 55.625 52.5988V45.9488L49.85 45.5238V53.0738H49.725C49.4 50.8738 48.575 48.3238 43.075 47.9488L25 46.7488C25 49.5238 26.975 51.1738 30.075 51.4988L42.675 52.7738C43.675 52.8488 44.4 53.1488 44.4 53.9738C44.4 54.8738 43.65 54.9738 42.5 54.9738H24.775V46.7488L19 46.3738V60.3238H42.525C47.775 60.3238 49.45 57.5988 49.7 55.3238H49.825C50.475 58.9238 53.625 60.3238 58.95 60.3238H64.825C71.05 60.3238 74 58.4238 74 53.9738V46.8488ZM92.325 47.9238L74.25 46.8488C74.25 49.6238 76.075 51.4738 79.175 51.7238L92.05 52.7238C93.05 52.7988 93.65 53.0488 93.65 53.8738C93.65 54.6488 92.95 54.9488 91.5 54.9488H73.95V60.3238H91.875C97.525 60.3238 100 58.3488 100 53.8488C100 49.7988 97.775 48.2738 92.325 47.9238ZM49.85 39.6738H55.625V44.9488H49.85V39.6738ZM15.825 46.1238L9.55 45.4988L0 60.3238H7.025L15.825 46.1238ZM48.8 39.6738H31.175C27.075 39.6738 25.275 42.2238 24.85 44.6738V39.6738H15.075C13.7 39.6738 13.05 40.0988 12.4 41.0488L9.7 44.9488H48.8V39.6738Z" fill="#DFDFDF"/>
</svg>
