<svg width="70" height="70" viewBox="0 0 70 70" fill="none" xmlns="http://www.w3.org/2000/svg">
<path d="M59.4077 0H17.4532C16.8642 0 16.3867 0.477448 16.3867 1.06705C16.3867 1.65611 16.8642 2.13409 17.4532 2.13409H59.4077C61.199 2.13409 62.6559 3.591 62.6559 5.38223V56.2817C62.6559 56.8707 63.1333 57.3487 63.7229 57.3487C64.312 57.3487 64.79 56.8707 64.79 56.2817V5.38223C64.7894 2.41447 62.3755 0 59.4077 0Z" fill="#1BB899"/>
<path d="M63.7232 59.6959C63.1336 59.6959 62.6562 60.1733 62.6562 60.7629V64.6183C62.6562 66.409 61.1993 67.8664 59.408 67.8664H10.8504C9.05975 67.8664 7.60231 66.409 7.60231 64.6183V5.38223C7.60231 3.591 9.05975 2.13409 10.8504 2.13409H12.866C13.455 2.13409 13.933 1.65611 13.933 1.06705C13.933 0.477448 13.455 0 12.866 0H10.8504C7.88322 0 5.46875 2.41447 5.46875 5.38223V64.6183C5.46875 67.5855 7.88322 70 10.8504 70H59.408C62.3758 70 64.7897 67.5855 64.7897 64.6183V60.7629C64.7897 60.1733 64.3123 59.6959 63.7232 59.6959Z" fill="#1BB899"/>
<path d="M20.3181 6.88672C15.8534 6.88672 12.2207 10.5194 12.2207 14.9841C12.2207 19.4494 15.8534 23.082 20.3181 23.082C24.7833 23.082 28.416 19.4494 28.416 14.9841C28.416 10.5194 24.7833 6.88672 20.3181 6.88672ZM20.3181 20.9479C17.0299 20.9479 14.3543 18.2728 14.3543 14.9846C14.3543 11.6959 17.0299 9.02081 20.3181 9.02081C23.6063 9.02081 26.2819 11.6959 26.2819 14.9846C26.2819 18.2728 23.6063 20.9479 20.3181 20.9479Z" fill="#1BB899"/>
<path d="M33.3907 11.0091H56.6479C57.2369 11.0091 57.7149 10.5311 57.7149 9.94205C57.7149 9.35245 57.2369 8.875 56.6479 8.875H33.3907C32.8017 8.875 32.3242 9.35245 32.3242 9.94205C32.3242 10.5311 32.8017 11.0091 33.3907 11.0091Z" fill="#1BB899"/>
<path d="M33.3907 16.0501H50.2253C50.8149 16.0501 51.2923 15.5727 51.2923 14.9831C51.2923 14.394 50.8149 13.916 50.2253 13.916H33.3907C32.8017 13.916 32.3242 14.394 32.3242 14.9831C32.3242 15.5727 32.8017 16.0501 33.3907 16.0501Z" fill="#1BB899"/>
<path d="M33.3907 21.0911H53.6919C54.2809 21.0911 54.7584 20.6131 54.7584 20.0241C54.7584 19.4345 54.2809 18.957 53.6919 18.957H33.3907C32.8017 18.957 32.3242 19.4345 32.3242 20.0241C32.3242 20.6131 32.8017 21.0911 33.3907 21.0911Z" fill="#1BB899"/>
<path d="M33.3907 31.0423H56.6479C57.2369 31.0423 57.7149 30.5643 57.7149 29.9753C57.7149 29.3857 57.2369 28.9082 56.6479 28.9082H33.3907C32.8017 28.9082 32.3242 29.3857 32.3242 29.9753C32.3242 30.5643 32.8017 31.0423 33.3907 31.0423Z" fill="#1BB899"/>
<path d="M33.3907 36.0833H50.2253C50.8149 36.0833 51.2923 35.6059 51.2923 35.0163C51.2923 34.4272 50.8149 33.9492 50.2253 33.9492H33.3907C32.8017 33.9492 32.3242 34.4272 32.3242 35.0163C32.3242 35.6059 32.8017 36.0833 33.3907 36.0833Z" fill="#1BB899"/>
<path d="M33.3907 41.1243H53.6919C54.2809 41.1243 54.7584 40.6463 54.7584 40.0573C54.7584 39.4682 54.2809 38.9902 53.6919 38.9902H33.3907C32.8017 38.9902 32.3242 39.4682 32.3242 40.0573C32.3242 40.6463 32.8017 41.1243 33.3907 41.1243Z" fill="#1BB899"/>
<path d="M20.3181 46.9512C15.8534 46.9512 12.2207 50.5838 12.2207 55.0486C12.2207 59.5138 15.8534 63.1465 20.3181 63.1465C24.7833 63.1465 28.416 59.5138 28.416 55.0486C28.416 50.5838 24.7833 46.9512 20.3181 46.9512ZM20.3181 61.0124C17.0299 61.0124 14.3543 58.3373 14.3543 55.0486C14.3543 51.7604 17.0299 49.0853 20.3181 49.0853C23.6063 49.0853 26.2819 51.7604 26.2819 55.0486C26.2819 58.3373 23.6063 61.0124 20.3181 61.0124Z" fill="#1BB899"/>
<path d="M33.3907 51.0755H56.6479C57.2369 51.0755 57.7149 50.5975 57.7149 50.0085C57.7149 49.4194 57.2369 48.9414 56.6479 48.9414H33.3907C32.8017 48.9414 32.3242 49.4194 32.3242 50.0085C32.3242 50.5975 32.8017 51.0755 33.3907 51.0755Z" fill="#1BB899"/>
<path d="M33.3907 56.116H50.2253C50.8149 56.116 51.2923 55.6385 51.2923 55.0489C51.2923 54.4599 50.8149 53.9824 50.2253 53.9824H33.3907C32.8017 53.9824 32.3242 54.4599 32.3242 55.0489C32.3242 55.6385 32.8017 56.116 33.3907 56.116Z" fill="#1BB899"/>
<path d="M33.3907 61.1556H53.6919C54.2809 61.1556 54.7584 60.6776 54.7584 60.0885C54.7584 59.4989 54.2809 59.0215 53.6919 59.0215H33.3907C32.8017 59.0215 32.3242 59.4989 32.3242 60.0885C32.3242 60.6776 32.8017 61.1556 33.3907 61.1556Z" fill="#1BB899"/>
<path d="M18.8484 33.3699C18.4318 32.9533 17.7557 32.9533 17.3391 33.3699C16.9225 33.7865 16.9225 34.462 17.3391 34.8786L19.9709 37.5104C20.1798 37.7187 20.4527 37.8229 20.7256 37.8229C20.9985 37.8229 21.2719 37.7187 21.4802 37.5104L26.9853 32.0054C26.9906 32 26.9954 31.9947 27.0007 31.9899L30.6558 28.3348C31.0724 27.9182 31.0724 27.2427 30.6558 26.8261C30.2393 26.4095 29.5632 26.4095 29.1466 26.8261L26.3556 29.6176C24.8319 27.9081 22.6546 26.918 20.3181 26.918C15.8534 26.918 12.2207 30.5506 12.2207 35.0159C12.2207 39.4806 15.8534 43.1132 20.3181 43.1132C24.7833 43.1132 28.416 39.4806 28.416 35.0159C28.416 34.4263 27.938 33.9488 27.349 33.9488C26.7594 33.9488 26.2819 34.4263 26.2819 35.0159C26.2819 38.3041 23.6063 40.9792 20.3181 40.9792C17.0299 40.9792 14.3543 38.3041 14.3543 35.0159C14.3543 31.7271 17.0299 29.052 20.3181 29.052C22.0794 29.052 23.7163 29.8174 24.8416 31.1311L20.7256 35.2476L18.8484 33.3699Z" fill="#1BB899"/>
</svg>
