<svg height="512pt" viewBox="-39 0 511 512" width="512pt" xmlns="http://www.w3.org/2000/svg"><path d="m395.027344 0h-306.867188c-4.308594 0-7.800781 3.492188-7.800781 7.804688 0 4.308593 3.492187 7.804687 7.800781 7.804687h306.867188c13.101562 0 23.757812 10.65625 23.757812 23.757813v372.292968c0 4.308594 3.492188 7.804688 7.804688 7.804688 4.308594 0 7.804687-3.496094 7.804687-7.804688v-372.292968c-.003906-21.707032-17.660156-39.367188-39.367187-39.367188zm0 0"/><path d="m426.589844 436.632812c-4.3125 0-7.804688 3.492188-7.804688 7.804688v28.199219c0 13.097656-10.65625 23.757812-23.757812 23.757812h-355.164063c-13.097656 0-23.757812-10.660156-23.757812-23.757812v-433.269531c0-13.101563 10.660156-23.757813 23.757812-23.757813h14.742188c4.308593 0 7.804687-3.496094 7.804687-7.804687 0-4.3125-3.496094-7.804688-7.804687-7.804688h-14.742188c-21.703125 0-39.363281 17.660156-39.363281 39.367188v433.269531c0 21.703125 17.660156 39.363281 39.363281 39.363281h355.164063c21.707031 0 39.363281-17.660156 39.363281-39.363281v-28.199219c0-4.3125-3.492187-7.804688-7.800781-7.804688zm0 0"/><path d="m109.113281 50.363281c-32.65625 0-59.226562 26.570313-59.226562 59.226563 0 32.660156 26.570312 59.230468 59.226562 59.230468 32.660157 0 59.230469-26.570312 59.230469-59.230468 0-32.65625-26.570312-59.226563-59.230469-59.226563zm0 102.847657c-24.050781 0-43.621093-19.566407-43.621093-43.617188 0-24.054688 19.570312-43.621094 43.621093-43.621094s43.621094 19.566406 43.621094 43.621094c0 24.050781-19.570313 43.617188-43.621094 43.617188zm0 0"/><path d="m204.726562 80.527344h170.109376c4.308593 0 7.804687-3.496094 7.804687-7.804688 0-4.3125-3.496094-7.804687-7.804687-7.804687h-170.109376c-4.308593 0-7.800781 3.492187-7.800781 7.804687 0 4.308594 3.492188 7.804688 7.800781 7.804688zm0 0"/><path d="m204.726562 117.394531h123.132813c4.3125 0 7.804687-3.492187 7.804687-7.804687 0-4.308594-3.492187-7.804688-7.804687-7.804688h-123.132813c-4.308593 0-7.800781 3.496094-7.800781 7.804688 0 4.3125 3.492188 7.804687 7.800781 7.804687zm0 0"/><path d="m204.726562 154.265625h148.488282c4.308594 0 7.800781-3.496094 7.800781-7.804687 0-4.3125-3.492187-7.804688-7.800781-7.804688h-148.488282c-4.308593 0-7.800781 3.492188-7.800781 7.804688 0 4.308593 3.492188 7.804687 7.800781 7.804687zm0 0"/><path d="m204.726562 227.054688h170.109376c4.308593 0 7.804687-3.496094 7.804687-7.804688 0-4.3125-3.496094-7.804688-7.804687-7.804688h-170.109376c-4.308593 0-7.800781 3.492188-7.800781 7.804688 0 4.308594 3.492188 7.804688 7.800781 7.804688zm0 0"/><path d="m204.726562 263.921875h123.132813c4.3125 0 7.804687-3.492187 7.804687-7.804687 0-4.308594-3.492187-7.804688-7.804687-7.804688h-123.132813c-4.308593 0-7.800781 3.496094-7.800781 7.804688 0 4.3125 3.492188 7.804687 7.800781 7.804687zm0 0"/><path d="m204.726562 300.792969h148.488282c4.308594 0 7.800781-3.496094 7.800781-7.804688 0-4.308593-3.492187-7.804687-7.800781-7.804687h-148.488282c-4.308593 0-7.800781 3.496094-7.800781 7.804687 0 4.308594 3.492188 7.804688 7.800781 7.804688zm0 0"/><path d="m109.113281 343.417969c-32.65625 0-59.226562 26.570312-59.226562 59.226562 0 32.660157 26.570312 59.230469 59.226562 59.230469 32.660157 0 59.230469-26.570312 59.230469-59.230469 0-32.65625-26.570312-59.226562-59.230469-59.226562zm0 102.847656c-24.050781 0-43.621093-19.566406-43.621093-43.621094 0-24.050781 19.570312-43.617187 43.621093-43.617187s43.621094 19.566406 43.621094 43.617187c0 24.054688-19.570313 43.621094-43.621094 43.621094zm0 0"/><path d="m204.726562 373.582031h170.109376c4.308593 0 7.804687-3.496093 7.804687-7.804687s-3.496094-7.804688-7.804687-7.804688h-170.109376c-4.308593 0-7.800781 3.496094-7.800781 7.804688s3.492188 7.804687 7.800781 7.804687zm0 0"/><path d="m204.726562 410.449219h123.132813c4.3125 0 7.804687-3.492188 7.804687-7.804688 0-4.308593-3.492187-7.800781-7.804687-7.800781h-123.132813c-4.308593 0-7.800781 3.492188-7.800781 7.800781 0 4.3125 3.492188 7.804688 7.800781 7.804688zm0 0"/><path d="m204.726562 447.320312h148.488282c4.308594 0 7.800781-3.496093 7.800781-7.804687 0-4.3125-3.492187-7.804687-7.800781-7.804687h-148.488282c-4.308593 0-7.800781 3.492187-7.800781 7.804687 0 4.308594 3.492188 7.804687 7.800781 7.804687zm0 0"/><path d="m98.363281 244.082031c-3.046875-3.046875-7.992187-3.046875-11.039062 0s-3.046875 7.988281 0 11.035157l19.25 19.25c1.527343 1.523437 3.523437 2.285156 5.519531 2.285156s3.996094-.761719 5.519531-2.285156l40.265625-40.265626c.039063-.039062.074219-.078124.113282-.113281l26.734374-26.734375c3.046876-3.046875 3.046876-7.988281 0-11.035156-3.046874-3.046875-7.992187-3.046875-11.039062 0l-20.414062 20.417969c-11.144532-12.503907-27.070313-19.746094-44.160157-19.746094-32.65625 0-59.226562 26.570313-59.226562 59.230469 0 32.65625 26.570312 59.226562 59.226562 59.226562 32.660157 0 59.230469-26.570312 59.230469-59.226562 0-4.3125-3.496094-7.804688-7.804688-7.804688-4.3125 0-7.804687 3.492188-7.804687 7.804688 0 24.050781-19.570313 43.617187-43.621094 43.617187s-43.621093-19.566406-43.621093-43.617187c0-24.054688 19.570312-43.621094 43.621093-43.621094 12.882813 0 24.855469 5.597656 33.085938 15.207031l-30.105469 30.109375zm0 0"/></svg>