<svg width="30" height="32" viewBox="0 0 30 32" fill="none" xmlns="http://www.w3.org/2000/svg">
<path d="M25.4996 9.36756V25.6631C25.4996 26.4848 24.8216 26.8768 23.9996 27.4892C23.3396 27.982 22.4996 27.3712 22.4996 26.5651V10.6427C22.4996 10.3106 22.3886 9.99413 22.0286 9.80049C21.6686 9.60685 10.4216 3.40099 10.4216 3.40099C10.2401 3.33015 9.44809 2.80591 8.39209 3.3758C7.38859 3.91736 6.84259 4.50615 6.70309 4.78322L18.9731 11.8392C19.2986 12.0187 19.4996 12.2957 19.4996 12.6515V29.657C19.4959 29.8489 19.4424 30.036 19.3448 30.1983C19.2473 30.3606 19.1094 30.4918 18.9461 30.578C18.7908 30.6584 18.6198 30.6999 18.4466 30.6992C18.2429 30.7017 18.0425 30.6451 17.8676 30.5355C17.5451 30.3293 6.20659 23.0324 5.45809 22.5586C5.09809 22.3319 4.67659 21.8674 4.66759 21.5227L4.49959 5.3295C4.49959 5.01779 4.46509 4.46836 4.93309 3.70483C5.97859 1.9983 9.62659 0.0571962 11.4731 1.06317L24.9716 8.23407C25.2971 8.41039 25.4996 8.76303 25.4996 9.36756Z" fill="#1BB899"/>
</svg>
