<svg width="92" height="92" viewBox="0 0 92 92" fill="none" xmlns="http://www.w3.org/2000/svg">
<path opacity="0.5" d="M84.3337 38.3337H7.66699V72.8337C7.66699 75.8837 8.8786 78.8087 11.0353 80.9654C13.1919 83.1221 16.117 84.3337 19.167 84.3337H72.8337C75.8837 84.3337 78.8087 83.1221 80.9654 80.9654C83.1221 78.8087 84.3337 75.8837 84.3337 72.8337V38.3337ZM26.8337 30.667C25.817 30.667 24.842 30.2631 24.1231 29.5442C23.4042 28.8254 23.0003 27.8503 23.0003 26.8337V11.5003C23.0003 10.4837 23.4042 9.50864 24.1231 8.78975C24.842 8.07086 25.817 7.66699 26.8337 7.66699C27.8503 7.66699 28.8253 8.07086 29.5442 8.78975C30.2631 9.50864 30.667 10.4837 30.667 11.5003V26.8337C30.667 27.8503 30.2631 28.8254 29.5442 29.5442C28.8253 30.2631 27.8503 30.667 26.8337 30.667ZM65.167 30.667C64.1503 30.667 63.1753 30.2631 62.4564 29.5442C61.7375 28.8254 61.3337 27.8503 61.3337 26.8337V11.5003C61.3337 10.4837 61.7375 9.50864 62.4564 8.78975C63.1753 8.07086 64.1503 7.66699 65.167 7.66699C66.1837 7.66699 67.1587 8.07086 67.8776 8.78975C68.5965 9.50864 69.0003 10.4837 69.0003 11.5003V26.8337C69.0003 27.8503 68.5965 28.8254 67.8776 29.5442C67.1587 30.2631 66.1837 30.667 65.167 30.667Z" fill="black"/>
<path d="M72.8337 15.334H69.0003V26.834C69.0003 27.8506 68.5965 28.8257 67.8776 29.5446C67.1587 30.2634 66.1837 30.6673 65.167 30.6673C64.1503 30.6673 63.1753 30.2634 62.4564 29.5446C61.7375 28.8257 61.3337 27.8506 61.3337 26.834V15.334H30.667V26.834C30.667 27.8506 30.2631 28.8257 29.5442 29.5446C28.8253 30.2634 27.8503 30.6673 26.8337 30.6673C25.817 30.6673 24.842 30.2634 24.1231 29.5446C23.4042 28.8257 23.0003 27.8506 23.0003 26.834V15.334H19.167C16.117 15.334 13.1919 16.5456 11.0353 18.7023C8.8786 20.8589 7.66699 23.784 7.66699 26.834V38.334H84.3337V26.834C84.3337 23.784 83.1221 20.8589 80.9654 18.7023C78.8087 16.5456 75.8837 15.334 72.8337 15.334Z" fill="black"/>
</svg>
