<svg width="30" height="30" viewBox="0 0 30 30" fill="none" xmlns="http://www.w3.org/2000/svg">
<circle cx="15" cy="15" r="15" fill="#0A66C2"/>
<path d="M12 9C12 9.7965 11.4675 10.482 10.4993 10.482C9.588 10.482 9 9.8355 9 9.039C9 8.2215 9.57 7.5 10.5 7.5C11.43 7.5 11.982 8.1825 12 9ZM9 21V11.25H12V21H9Z" fill="white"/>
<path d="M13.5003 14.5831C13.5003 13.4244 13.4621 12.4561 13.4238 11.6199H16.1193L16.2528 12.9121H16.3098C16.6893 12.3039 17.6193 11.4121 19.1763 11.4121C21.0753 11.4121 22.5003 12.6834 22.5003 15.4186V21.0001H19.5003V15.8544C19.5003 14.6589 19.0451 13.7469 18.0003 13.7469C17.2038 13.7469 16.8048 14.3919 16.5956 14.9236C16.5191 15.1141 16.5003 15.3796 16.5003 15.6459V21.0001H13.5003V14.5831Z" fill="white"/>
</svg>
