<svg width="50" height="50" viewBox="0 0 40 40" fill="none" xmlns="http://www.w3.org/2000/svg">
<path d="M22.0008 20L17.3968 14.988C17.2084 14.7965 17.1029 14.5387 17.1029 14.27C17.1029 14.0014 17.2084 13.7436 17.3968 13.552C17.4897 13.4583 17.6003 13.3839 17.7222 13.3332C17.8441 13.2824 17.9748 13.2563 18.1068 13.2563C18.2388 13.2563 18.3695 13.2824 18.4914 13.3332C18.6132 13.3839 18.7238 13.4583 18.8168 13.552L24.4308 19.2801C24.6195 19.471 24.7253 19.7286 24.7253 19.997C24.7253 20.2655 24.6195 20.5231 24.4308 20.7141L18.8168 26.442C18.7241 26.5363 18.6136 26.6111 18.4917 26.6622C18.3698 26.7132 18.2389 26.7395 18.1068 26.7395C17.9746 26.7395 17.8438 26.7132 17.7219 26.6622C17.6 26.6111 17.4895 26.5363 17.3968 26.442C17.2081 26.2511 17.1023 25.9935 17.1023 25.725C17.1023 25.4566 17.2081 25.199 17.3968 25.008L22.0008 20ZM20.0008 0.800049C22.5222 0.800049 25.0189 1.29667 27.3483 2.26156C29.6778 3.22645 31.7943 4.64071 33.5772 6.4236C35.3601 8.20648 36.7744 10.3231 37.7393 12.6525C38.7042 14.982 39.2008 17.4787 39.2008 20C39.2008 30.606 30.6048 39.2001 20.0008 39.2001C9.39678 39.2001 0.800781 30.606 0.800781 20C0.800781 14.9079 2.82363 10.0243 6.42433 6.4236C10.025 2.8229 14.9086 0.800049 20.0008 0.800049V0.800049ZM20.0008 36.708C24.4323 36.708 28.6823 34.9476 31.8158 31.8141C34.9494 28.6806 36.7098 24.4306 36.7098 19.9991C36.7098 15.5675 34.9494 11.3175 31.8158 8.184C28.6823 5.05046 24.4323 3.29005 20.0008 3.29005C15.5693 3.29005 11.3193 5.05046 8.18573 8.184C5.05219 11.3175 3.29178 15.5675 3.29178 19.9991C3.29178 24.4306 5.05219 28.6806 8.18573 31.8141C11.3193 34.9476 15.5693 36.708 20.0008 36.708V36.708Z" fill="#1BB899"/>
</svg>
