<svg width="30" height="30" viewBox="0 0 30 30" fill="none" xmlns="http://www.w3.org/2000/svg">
<circle cx="15" cy="16" r="14" fill="#FCFCFC"/>
<g clip-path="url(#clip0)">
<path d="M15.0003 0.370941C11.4371 0.369255 7.98976 1.63603 5.27546 3.94441C2.56117 6.25279 0.757242 9.45202 0.186724 12.9692C-0.383793 16.4864 0.316357 20.0918 2.1618 23.1398C4.00724 26.1878 6.87744 28.4793 10.2584 29.6041C11.0084 29.7428 11.284 29.2778 11.284 28.8822C11.284 28.5241 11.269 27.3428 11.2634 26.0903C7.08967 26.9978 6.2103 24.3203 6.2103 24.3203C5.5278 22.5859 4.5453 22.1247 4.5453 22.1247C3.18405 21.1928 4.64842 21.2134 4.64842 21.2134C6.15405 21.3184 6.94717 22.7584 6.94717 22.7584C8.28592 25.0516 10.4572 24.3878 11.3122 24.0053C11.4472 23.0359 11.8353 22.3741 12.2647 21.9991C8.9328 21.6203 5.4303 20.3341 5.4303 14.5853C5.4303 12.9484 6.01717 11.6097 6.9753 10.5597C6.81967 10.1809 6.30592 8.65657 7.11967 6.59032C7.11967 6.59032 8.37967 6.18719 11.2465 8.12782C12.4701 7.79498 13.7323 7.62539 15.0003 7.62344C16.2753 7.62907 17.5597 7.79594 18.7578 8.12782C21.6209 6.18719 22.879 6.59032 22.879 6.59032C23.6947 8.65657 23.1828 10.1828 23.0272 10.5597C23.989 11.6097 24.5703 12.9484 24.5703 14.5853C24.5703 20.3472 21.0603 21.6147 17.7209 21.9859C18.259 22.4509 18.739 23.3641 18.739 24.7628C18.739 26.7691 18.7222 28.3853 18.7222 28.8784C18.7222 29.2778 18.9922 29.7447 19.7534 29.5984C23.1338 28.4724 26.003 26.18 27.8472 23.1314C29.6915 20.0829 30.3903 16.4775 29.8187 12.9607C29.2471 9.44386 27.4423 6.24536 24.7275 3.93787C22.0127 1.63039 18.5651 0.364615 15.0022 0.367191L15.0003 0.370941Z" fill="#292929"/>
</g>
<defs>
<clipPath id="clip0">
<rect width="30" height="30" fill="white"/>
</clipPath>
</defs>
</svg>
