<svg width="30" height="30" viewBox="0 0 30 30" fill="none" xmlns="http://www.w3.org/2000/svg">
<circle cx="15" cy="15" r="15" fill="#FDFDFD"/>
<circle cx="15" cy="15" r="14.75" stroke="black" stroke-opacity="0.5" stroke-width="0.5"/>
<g clip-path="url(#clip0)">
<path d="M10.7916 13.6031C11.0841 12.7184 11.6484 11.9486 12.4042 11.4036C13.16 10.8586 14.0686 10.5662 15.0004 10.5681C16.0566 10.5681 17.0116 10.9431 17.7616 11.5569L19.9441 9.375C18.6141 8.21563 16.9098 7.5 15.0004 7.5C12.0441 7.5 9.49914 9.18625 8.27539 11.6563L10.7916 13.6031Z" fill="#EA4335"/>
<path d="M17.5253 18.7581C16.8441 19.1975 15.9791 19.4319 15.0003 19.4319C14.0722 19.4338 13.1671 19.1437 12.413 18.6027C11.6589 18.0617 11.094 17.2972 10.7984 16.4175L8.27344 18.3344C8.89297 19.5883 9.85173 20.6433 11.0408 21.3797C12.2299 22.116 13.6017 22.5042 15.0003 22.5C16.8334 22.5 18.5847 21.8481 19.8966 20.625L17.5259 18.7581H17.5253Z" fill="#34A853"/>
<path d="M19.8962 20.625C21.2681 19.345 22.1587 17.44 22.1587 15C22.1587 14.5562 22.0906 14.0794 21.9887 13.6362H15V16.5344H19.0225C18.8244 17.5087 18.2912 18.2631 17.5256 18.7581L19.8962 20.625Z" fill="#4A90E2"/>
<path d="M10.7982 16.4175C10.6453 15.9606 10.5676 15.4818 10.5682 15C10.5682 14.5113 10.6463 14.0419 10.7913 13.6031L8.27507 11.6562C7.76031 12.6954 7.49495 13.8403 7.50007 15C7.50007 16.2 7.7782 17.3313 8.2732 18.3344L10.7982 16.4175Z" fill="#FBBC05"/>
</g>
<defs>
<clipPath id="clip0">
<rect width="15" height="15" fill="white" transform="translate(7.5 7.5)"/>
</clipPath>
</defs>
</svg>
