<svg width="100" height="100" viewBox="0 0 100 100" fill="none" xmlns="http://www.w3.org/2000/svg">
<g clip-path="url(#clip0)">
<path d="M68.0458 75.7086V71.0795L67.9542 71.1212C66.9125 71.6253 65.7792 71.9128 64.6167 71.967C63.4142 72.0586 62.2198 71.7074 61.2583 70.9795C60.5727 70.4503 60.0618 69.7274 59.7917 68.9045C59.4998 68.0054 59.4666 67.0424 59.6958 66.1253C59.9125 65.1878 60.4375 64.3503 61.1833 63.7545C61.85 63.1962 62.6625 62.8462 63.525 62.7462C65.0479 62.5756 66.587 62.8628 67.9458 63.5712L68.0458 63.6253V58.9712L67.8333 58.9128C66.4734 58.4788 65.0466 58.2925 63.6208 58.3628C62.322 58.3954 61.0428 58.6872 59.8583 59.2211C58.6625 59.7712 57.6083 60.5837 56.7792 61.6003C55.5141 63.1984 54.812 65.1694 54.7818 67.2074C54.7517 69.2454 55.3952 71.2364 56.6125 72.8712C57.8417 74.4462 59.5667 75.5587 61.5083 76.0212C63.5542 76.5212 65.7 76.4462 67.7042 75.8045L68.0458 75.7086ZM22.2333 75.7086V71.0795L22.1417 71.1212C21.1 71.6253 19.9667 71.9128 18.8042 71.967C17.6016 72.0598 16.4068 71.7084 15.4458 70.9795C14.7602 70.4511 14.2504 69.7278 13.9833 68.9045C13.6883 68.0061 13.6536 67.0426 13.8833 66.1253C14.1 65.1878 14.6208 64.3503 15.3708 63.7545C16.0375 63.1962 16.85 62.8462 17.7125 62.7462C19.2354 62.5756 20.7745 62.8628 22.1333 63.5712L22.2333 63.6253V58.9712L22.0208 58.9128C20.6609 58.4788 19.2341 58.2925 17.8083 58.3628C16.5096 58.3958 15.2304 58.6876 14.0458 59.2211C12.8509 59.77 11.7965 60.5836 10.9625 61.6003C9.69878 63.1988 8.99719 65.1693 8.96631 67.2068C8.93542 69.2442 9.57698 71.2351 10.7917 72.8712C12.0196 74.4475 13.7478 75.5585 15.6917 76.0212C17.7375 76.5212 19.8792 76.4462 21.8875 75.8045L22.2333 75.7086ZM38.5833 71.867L38.5667 75.8545L38.8583 75.9045C39.775 76.0753 40.6958 76.192 41.625 76.2586C42.4375 76.3378 43.2542 76.3503 44.0708 76.3087C44.85 76.2503 45.6208 76.1045 46.3667 75.8753C47.2417 75.6253 48.0542 75.1962 48.7458 74.6045C49.3702 74.0694 49.8478 73.3839 50.1333 72.6128C50.6301 71.3238 50.6197 69.8944 50.1042 68.6128C49.8357 67.946 49.4096 67.3541 48.8625 66.8878C48.3323 66.4138 47.7115 66.0523 47.0375 65.8253L44.0292 64.7087C43.6699 64.5553 43.3783 64.277 43.2083 63.9253C43.1427 63.7811 43.1115 63.6235 43.1173 63.4651C43.1231 63.3068 43.1657 63.1519 43.2417 63.0128C43.3962 62.7597 43.6185 62.5547 43.8833 62.4212C44.2204 62.2589 44.5824 62.1546 44.9542 62.1128C45.5917 62.0212 46.2375 62.0253 46.8708 62.1337C47.6208 62.217 48.3625 62.3461 49.0917 62.5336L49.25 62.567V58.8878L48.9625 58.8253C48.2168 58.6469 47.4614 58.5119 46.7 58.4212C45.7128 58.292 44.7133 58.2878 43.725 58.4087C42.475 58.5212 41.2875 59.0045 40.3042 59.7837C39.6375 60.3087 39.1333 61.0045 38.8417 61.8003C38.4083 63.0087 38.4042 64.3337 38.8417 65.5462C39.0667 66.1503 39.425 66.6878 39.8917 67.1337C40.2958 67.5212 40.7542 67.8545 41.2542 68.117C41.9083 68.467 42.6042 68.7378 43.325 68.9295C43.5625 69.0003 43.8 69.0753 44.0333 69.1545L44.3875 69.2836L44.4875 69.3253C44.8375 69.4503 45.1625 69.6503 45.4292 69.9086C45.6167 70.0836 45.7625 70.3003 45.85 70.5378C45.9076 70.7575 45.9091 70.9882 45.8542 71.2086C45.7416 71.5642 45.4929 71.8607 45.1625 72.0336C44.8035 72.217 44.4161 72.3381 44.0167 72.392C43.4283 72.4836 42.832 72.513 42.2375 72.4795C41.4589 72.4185 40.6842 72.3156 39.9167 72.1712C39.5166 72.0845 39.1179 71.9914 38.7208 71.892L38.5833 71.867ZM28.2708 76.0128H32.6458V58.6503H28.2708V76.0128ZM78.9458 63.7795C79.4106 63.4009 79.9454 63.1176 80.5196 62.9459C81.0939 62.774 81.6964 62.7171 82.2927 62.7782C82.8889 62.8394 83.4673 63.0174 83.9948 63.3022C84.5222 63.5869 84.9884 63.9728 85.3667 64.4378C85.746 64.9021 86.03 65.4366 86.2024 66.0108C86.3749 66.585 86.4324 67.1875 86.3716 67.7839C86.3108 68.3804 86.133 68.959 85.8483 69.4866C85.5636 70.0142 85.1777 70.4804 84.7125 70.8587L84.6417 70.917C83.6927 71.6446 82.4962 71.971 81.3092 71.826C80.1222 71.681 79.0394 71.0761 78.2935 70.1415C77.5476 69.2068 77.1981 68.0168 77.3201 66.8272C77.4421 65.6376 78.0258 64.5434 78.9458 63.7795ZM72.5917 67.3378C72.6129 68.693 72.9353 70.0265 73.5356 71.2417C74.1358 72.4569 74.9989 73.5233 76.0623 74.3637C77.1257 75.2041 78.3627 75.7974 79.6837 76.1007C81.0047 76.4039 82.3766 76.4095 83.7 76.117C85.476 75.7809 87.1079 74.9128 88.3791 73.6279C89.6503 72.3429 90.5008 70.7017 90.8176 68.9222C91.1345 67.1427 90.9027 65.3088 90.1532 63.664C89.4037 62.0192 88.1717 60.6412 86.6208 59.7128C85.242 58.8605 83.6625 58.3877 82.0421 58.3425C80.4218 58.2972 78.8183 58.6811 77.3941 59.4551C75.9698 60.2292 74.7756 61.366 73.9322 62.7503C73.0888 64.1346 72.6264 65.7172 72.5917 67.3378ZM95.6708 44.6962C95.6953 45.2538 95.934 45.7805 96.3373 46.1665C96.7406 46.5524 97.2772 46.7678 97.8354 46.7678C98.3936 46.7678 98.9303 46.5524 99.3335 46.1665C99.7368 45.7805 99.9755 45.2538 100 44.6962V39.8837C99.9755 39.326 99.7368 38.7993 99.3335 38.4134C98.9303 38.0274 98.3936 37.812 97.8354 37.812C97.2772 37.812 96.7406 38.0274 96.3373 38.4134C95.934 38.7993 95.6953 39.326 95.6708 39.8837V44.6962ZM83.8208 44.6962C83.8624 45.2429 84.1089 45.7538 84.511 46.1265C84.9132 46.4993 85.4413 46.7064 85.9896 46.7064C86.5379 46.7064 87.066 46.4993 87.4681 46.1265C87.8703 45.7538 88.1168 45.2429 88.1583 44.6962V33.9087C88.1241 33.3572 87.881 32.8396 87.4784 32.4613C87.0758 32.0829 86.5441 31.8723 85.9917 31.8723C85.4392 31.8723 84.9075 32.0829 84.5049 32.4613C84.1024 32.8396 83.8592 33.3572 83.825 33.9087V44.6962H83.8208ZM71.7958 49.042C71.8373 49.5877 72.0834 50.0975 72.4847 50.4695C72.8861 50.8415 73.4132 51.0482 73.9604 51.0482C74.5077 51.0482 75.0347 50.8415 75.4361 50.4695C75.8374 50.0975 76.0835 49.5877 76.125 49.042V25.7045C76.1005 25.1468 75.8618 24.6201 75.4585 24.2342C75.0553 23.8482 74.5186 23.6328 73.9604 23.6328C73.4022 23.6328 72.8656 23.8482 72.4623 24.2342C72.0591 24.6201 71.8203 25.1468 71.7958 25.7045V49.042ZM59.9708 44.6962C60.005 45.2476 60.2482 45.7652 60.6508 46.1435C61.0533 46.5219 61.585 46.7326 62.1375 46.7326C62.69 46.7326 63.2217 46.5219 63.6242 46.1435C64.0268 45.7652 64.27 45.2476 64.3042 44.6962V33.9087C64.2797 33.351 64.0409 32.8243 63.6377 32.4384C63.2344 32.0524 62.6978 31.837 62.1396 31.837C61.5814 31.837 61.0447 32.0524 60.6415 32.4384C60.2382 32.8243 59.9995 33.351 59.975 33.9087V44.6962H59.9708ZM47.8917 44.6962C47.9445 45.2336 48.1953 45.7322 48.5954 46.0949C48.9955 46.4576 49.5162 46.6585 50.0562 46.6585C50.5963 46.6585 51.117 46.4576 51.5171 46.0949C51.9172 45.7322 52.168 45.2336 52.2208 44.6962V39.8837C52.1964 39.326 51.9576 38.7993 51.5544 38.4134C51.1511 38.0274 50.6144 37.812 50.0562 37.812C49.4981 37.812 48.9614 38.0274 48.5581 38.4134C48.1549 38.7993 47.9161 39.326 47.8917 39.8837V44.6962ZM35.9333 44.6962C35.9578 45.2538 36.1966 45.7805 36.5998 46.1665C37.0031 46.5524 37.5397 46.7678 38.0979 46.7678C38.6561 46.7678 39.1928 46.5524 39.596 46.1665C39.9993 45.7805 40.238 45.2538 40.2625 44.6962V33.9087C40.238 33.351 39.9993 32.8243 39.596 32.4384C39.1928 32.0524 38.6561 31.837 38.0979 31.837C37.5397 31.837 37.0031 32.0524 36.5998 32.4384C36.1966 32.8243 35.9578 33.351 35.9333 33.9087V44.6962ZM23.9042 49.042C23.9286 49.5996 24.1674 50.1263 24.5706 50.5123C24.9739 50.8982 25.5106 51.1137 26.0687 51.1137C26.6269 51.1137 27.1636 50.8982 27.5669 50.5123C27.9701 50.1263 28.2089 49.5996 28.2333 49.042V25.7045C28.2089 25.1468 27.9701 24.6201 27.5669 24.2342C27.1636 23.8482 26.6269 23.6328 26.0687 23.6328C25.5106 23.6328 24.9739 23.8482 24.5706 24.2342C24.1674 24.6201 23.9286 25.1468 23.9042 25.7045V49.042ZM11.9833 44.6962C12.0309 45.238 12.2798 45.7423 12.6808 46.1097C13.0819 46.4771 13.6061 46.6809 14.15 46.6809C14.6939 46.6809 15.2181 46.4771 15.6192 46.1097C16.0202 45.7423 16.2691 45.238 16.3167 44.6962V33.9087C16.2922 33.351 16.0534 32.8243 15.6502 32.4384C15.2469 32.0524 14.7103 31.837 14.1521 31.837C13.5939 31.837 13.0572 32.0524 12.654 32.4384C12.2507 32.8243 12.012 33.351 11.9875 33.9087V44.6962H11.9833ZM0 44.6962C0.0414965 45.2418 0.287553 45.7517 0.688918 46.1237C1.09028 46.4957 1.61734 46.7024 2.16458 46.7024C2.71183 46.7024 3.23888 46.4957 3.64025 46.1237C4.04161 45.7517 4.28767 45.2418 4.32917 44.6962V39.8837C4.30469 39.326 4.06595 38.7993 3.66269 38.4134C3.25943 38.0274 2.72277 37.812 2.16458 37.812C1.60639 37.812 1.06974 38.0274 0.66648 38.4134C0.26322 38.7993 0.0244724 39.326 0 39.8837L0 44.6962Z" fill="#DFDFDF"/>
</g>
<defs>
<clipPath id="clip0">
<rect width="100" height="100" fill="white"/>
</clipPath>
</defs>
</svg>
