<svg width="30" height="30" viewBox="0 0 30 30" fill="none" xmlns="http://www.w3.org/2000/svg">
<path fill-rule="evenodd" clip-rule="evenodd" d="M28.2352 28.081C28.2352 29.0879 27.7499 29.9072 27.1499 29.9072H2.84994C2.24994 29.9072 1.76465 29.0879 1.76465 28.081C1.76465 27.0704 2.24994 26.251 2.84994 26.251H27.1499C27.7499 26.251 28.2352 27.0704 28.2352 28.081Z" fill="#1BB899"/>
<path fill-rule="evenodd" clip-rule="evenodd" d="M8.72983 22.9833C8.72983 23.6902 8.08395 24.2696 7.28983 24.2696H5.13159C4.33571 24.2696 3.69336 23.6902 3.69336 22.9833V16.5333C3.69336 15.8246 4.33571 15.2471 5.13159 15.2471H7.28983C8.08395 15.2471 8.72983 15.8246 8.72983 16.5333V22.9833Z" fill="#1BB899"/>
<path fill-rule="evenodd" clip-rule="evenodd" d="M17.4896 22.9852C17.4896 23.6939 16.8455 24.2695 16.0514 24.2695H13.8914C13.0972 24.2695 12.4531 23.6939 12.4531 22.9852V14.5852C12.4531 13.8764 13.0972 13.3008 13.8914 13.3008H16.0514C16.8455 13.3008 17.4896 13.8764 17.4896 14.5852V22.9852Z" fill="#1BB899"/>
<path fill-rule="evenodd" clip-rule="evenodd" d="M26.3609 22.9348C26.3609 23.6379 25.7132 24.2098 24.9068 24.2098H22.7256C21.9209 24.2098 21.2715 23.6379 21.2715 22.9348V10.7379C21.2715 10.0348 21.9209 9.46289 22.7256 9.46289H24.9068C25.7132 9.46289 26.3609 10.0348 26.3609 10.7379V22.9348Z" fill="#1BB899"/>
<path fill-rule="evenodd" clip-rule="evenodd" d="M3.06011 12.9766C2.73945 12.9779 2.43078 12.8472 2.19883 12.612C1.96688 12.3767 1.82968 12.0552 1.816 11.7148C1.81106 11.5421 1.83835 11.3701 1.89628 11.2087C1.95421 11.0473 2.04163 10.8997 2.15351 10.7744C2.2654 10.6491 2.39952 10.5485 2.54816 10.4785C2.69679 10.4085 2.85699 10.3705 3.01953 10.3666C11.8501 10.0348 20.2572 6.41976 26.0913 0.442257C26.3296 0.199716 26.648 0.0662017 26.978 0.070409C27.308 0.0746163 27.6232 0.21621 27.856 0.464757C27.9703 0.586559 28.0605 0.731342 28.1215 0.890642C28.1825 1.04994 28.213 1.22056 28.2112 1.39252C28.2093 1.56449 28.1753 1.73434 28.111 1.89215C28.0467 2.04997 27.9534 2.19257 27.8366 2.31163C21.4731 8.83101 12.6901 12.6185 3.106 12.9748L3.06011 12.9766Z" fill="#1BB899"/>
</svg>
