<?xml version="1.0"?>
<svg xmlns="http://www.w3.org/2000/svg" viewBox="0 0 512 512" width="512" height="512"><g id="outline"><path d="M74,472H310a26.03,26.03,0,0,0,26-26V384H456a8,8,0,0,0,8-8V136a8,8,0,0,0-8-8H424.826c-8.186-1.8-16.5-3.3-24.826-4.484V80a8,8,0,0,0-11.578-7.155L336,99.056V82a26.03,26.03,0,0,0-26-26H74A26.03,26.03,0,0,0,48,82V446A26.03,26.03,0,0,0,74,472Zm118-16a16,16,0,1,1,16-16A16.019,16.019,0,0,1,192,456Zm128-10a10.011,10.011,0,0,1-10,10H219.7a31.885,31.885,0,0,0,0-32H320Zm109.006-95.76A8,8,0,0,0,432,344V144h16V368H319.548a35.929,35.929,0,0,1-29.954-16.031l-1.056-1.585a326.213,326.213,0,0,1,133.727,1.426A8,8,0,0,0,429.006,350.24Zm-33.428-55.085A8,8,0,0,0,400,288V139.689c5.352.8,10.7,1.726,16,2.794v191.7a342.611,342.611,0,0,0-88.145-5.162ZM384,92.944V283.056l-96,48V140.944ZM64,82A10.011,10.011,0,0,1,74,72H310a10.011,10.011,0,0,1,10,10v6H64Zm0,22H320v3.056l-41.065,20.533A342.241,342.241,0,0,0,135.151,128H104a8,8,0,0,0-8,8V376a8,8,0,0,0,8,8H240.452A51.874,51.874,0,0,0,280,365.754,51.874,51.874,0,0,0,319.548,384H320v24H64Zm66.994,246.24a8,8,0,0,0,6.741,1.57,326.218,326.218,0,0,1,133.728-1.426l-1.057,1.585A35.929,35.929,0,0,1,240.452,368H112V144h16V344A8,8,0,0,0,130.994,350.24ZM144,334.179V142.484a326.4,326.4,0,0,1,128,.021V334.194A342.713,342.713,0,0,0,144,334.179ZM64,424H164.305a31.885,31.885,0,0,0,0,32H74a10.011,10.011,0,0,1-10-10Z"/><path d="M159.99,171.49a8.11,8.11,0,0,0,1.167-.085,323.7,323.7,0,0,1,93.686,0,8,8,0,0,0,2.314-15.832,339.724,339.724,0,0,0-98.314,0,8,8,0,0,0,1.147,15.917Z"/><path d="M257.157,195.573c-5.417-.792-10.93-1.461-16.386-1.99a8,8,0,1,0-1.542,15.926c5.2.5,10.452,1.141,15.614,1.9a8.11,8.11,0,0,0,1.167.085,8,8,0,0,0,1.147-15.917Z"/><path d="M159.99,211.49a8.11,8.11,0,0,0,1.167-.085A325.052,325.052,0,0,1,208,208a8,8,0,0,0,0-16,341.042,341.042,0,0,0-49.157,3.573,8,8,0,0,0,1.147,15.917Z"/><path d="M257.157,235.573A341.042,341.042,0,0,0,208,232a8,8,0,0,0,0,16,325.052,325.052,0,0,1,46.843,3.405,8.11,8.11,0,0,0,1.167.085,8,8,0,0,0,1.147-15.917Z"/><path d="M159.99,251.49a8.11,8.11,0,0,0,1.167-.085c7.739-1.131,15.62-1.992,23.422-2.557a8,8,0,1,0-1.158-15.958c-8.187.593-16.456,1.5-24.578,2.683a8,8,0,0,0,1.147,15.917Z"/><path d="M224.386,272.4a340.6,340.6,0,0,0-65.543,3.178,8,8,0,0,0,1.147,15.917,8.11,8.11,0,0,0,1.167-.085,324.59,324.59,0,0,1,62.457-3.029,8,8,0,1,0,.772-15.981Z"/><path d="M304.006,164a7.976,7.976,0,0,0,3.572-.847l64-32a8,8,0,1,0-7.156-14.31l-64,32A8,8,0,0,0,304.006,164Z"/><path d="M304.006,204a7.976,7.976,0,0,0,3.572-.847l24-12a8,8,0,1,0-7.156-14.31l-24,12A8,8,0,0,0,304.006,204Z"/><path d="M352.006,180a7.976,7.976,0,0,0,3.572-.847l8-4a8,8,0,1,0-7.156-14.31l-8,4A8,8,0,0,0,352.006,180Z"/><path d="M304.006,284a7.976,7.976,0,0,0,3.572-.847l8-4a8,8,0,1,0-7.156-14.31l-8,4A8,8,0,0,0,304.006,284Z"/><path d="M296.845,239.578a7.993,7.993,0,0,0,10.733,3.577l48-24a8,8,0,1,0-7.156-14.31l-48,24A8,8,0,0,0,296.845,239.578Z"/><path d="M364.422,236.845l-32,16a8,8,0,1,0,7.156,14.31l32-16a8,8,0,1,0-7.156-14.31Z"/><path d="M360,400a8,8,0,0,0,0,16h16a8,8,0,0,0,0-16Z"/><path d="M408,400a8,8,0,0,0,0,16h40a8,8,0,0,0,0-16Z"/></g></svg>
