<svg width="70" height="70" viewBox="0 0 70 70" fill="none" xmlns="http://www.w3.org/2000/svg">
<path d="M10.1172 64.5313H42.3828C43.3252 64.5302 44.2288 64.1553 44.8952 63.4889C45.5616 62.8225 45.9364 61.919 45.9375 60.9766V52.5H62.3438C62.6338 52.5 62.912 52.3848 63.1171 52.1797C63.3223 51.9745 63.4375 51.6963 63.4375 51.4063V18.5938C63.4375 18.3037 63.3223 18.0255 63.1171 17.8204C62.912 17.6152 62.6338 17.5 62.3438 17.5H58.0817C56.9625 17.2539 55.8258 17.0488 54.6875 16.887V10.9375C54.6875 10.7511 54.6398 10.5677 54.549 10.4049C54.4582 10.2421 54.3273 10.1051 54.1687 10.0071C54.0101 9.90911 53.8291 9.85326 53.6429 9.84489C53.4566 9.83652 53.2713 9.87589 53.1046 9.95928L45.9375 13.5428V11.2109C45.9364 10.2685 45.5616 9.36499 44.8952 8.69859C44.2288 8.03219 43.3252 7.65734 42.3828 7.65625H10.1172C9.17476 7.65734 8.27124 8.03219 7.60484 8.69859C6.93844 9.36499 6.56359 10.2685 6.5625 11.2109V60.9766C6.56359 61.919 6.93844 62.8225 7.60484 63.4889C8.27124 64.1553 9.17476 64.5302 10.1172 64.5313ZM26.25 62.3438C25.8174 62.3438 25.3944 62.2155 25.0347 61.9751C24.675 61.7347 24.3946 61.3931 24.229 60.9934C24.0634 60.5937 24.0201 60.1538 24.1045 59.7295C24.1889 59.3052 24.3973 58.9154 24.7032 58.6095C25.0091 58.3035 25.3989 58.0952 25.8232 58.0108C26.2476 57.9264 26.6874 57.9697 27.0871 58.1353C27.4868 58.3008 27.8285 58.5812 28.0688 58.9409C28.3092 59.3007 28.4375 59.7236 28.4375 60.1563C28.4368 60.7362 28.2061 61.2922 27.796 61.7023C27.386 62.1124 26.83 62.3431 26.25 62.3438ZM43.75 60.9766C43.7496 61.339 43.6054 61.6866 43.3491 61.9429C43.0928 62.1992 42.7453 62.3434 42.3828 62.3438H30.0371C30.4226 61.6792 30.6257 60.9245 30.6257 60.1563C30.6257 59.388 30.4226 58.6333 30.0371 57.9688H43.75V60.9766ZM58.6532 47.8844C58.7809 47.7819 58.884 47.652 58.9549 47.5044C59.0257 47.3567 59.0625 47.195 59.0625 47.0313V19.6875H61.25V50.3125H43.6882C42.8778 50.3134 42.0797 50.1137 41.3651 49.7313C40.6506 49.3489 40.0418 48.7956 39.5929 48.1208L39.4486 47.9041C45.4909 46.7057 51.7161 46.7721 57.7315 48.099C57.8914 48.1345 58.0573 48.1337 58.2168 48.0965C58.3763 48.0594 58.5254 47.9869 58.6532 47.8844ZM54.0829 40.3532C54.2646 40.2624 54.4174 40.1228 54.5242 39.95C54.6309 39.7772 54.6875 39.5781 54.6875 39.375V19.0981C55.4192 19.2075 56.1504 19.3341 56.875 19.4801V45.6891C52.9052 44.935 48.8546 44.6978 44.8239 44.9833L54.0829 40.3532ZM52.5 12.7072V38.6991L39.375 45.2616V19.2697L52.5 12.7072ZM8.75 11.2109C8.7504 10.8485 8.89457 10.5009 9.15088 10.2446C9.40719 9.98832 9.75471 9.84415 10.1172 9.84375H42.3828C42.7453 9.84415 43.0928 9.98832 43.3491 10.2446C43.6054 10.5009 43.7496 10.8485 43.75 11.2109V12.0313H8.75V11.2109ZM8.75 14.2188H43.75V14.6366L38.1356 17.4438C31.6529 16.0703 24.9524 16.0895 18.4777 17.5H14.2188C13.9287 17.5 13.6505 17.6152 13.4454 17.8204C13.2402 18.0255 13.125 18.3037 13.125 18.5938V51.4063C13.125 51.6963 13.2402 51.9745 13.4454 52.1797C13.6505 52.3848 13.9287 52.5 14.2188 52.5H32.8743C33.9025 52.501 34.9186 52.2784 35.8523 51.8477C36.7859 51.4169 37.6147 50.7883 38.2812 50.0054C38.9478 50.7883 39.7766 51.4169 40.7102 51.8477C41.6439 52.2784 42.66 52.501 43.6882 52.5H43.75V55.7813H8.75V14.2188ZM17.9093 47.8844C18.0371 47.9869 18.1862 48.0594 18.3457 48.0965C18.5052 48.1337 18.6711 48.1345 18.831 48.099C24.8465 46.7721 31.0716 46.7057 37.1141 47.9041L36.9696 48.1208C36.5207 48.7956 35.9119 49.3489 35.1974 49.7313C34.4828 50.1137 33.6847 50.3134 32.8743 50.3125H15.3125V19.6875H17.5V47.0313C17.5 47.195 17.5368 47.3567 17.6076 47.5044C17.6785 47.652 17.7816 47.7819 17.9093 47.8844ZM19.6875 45.6885V19.4802C25.4639 18.3262 31.4115 18.3272 37.1875 19.4831V45.6906C31.4061 44.5909 25.4692 44.5902 19.6875 45.6885ZM8.75 57.9688H22.4636C22.078 58.6333 21.875 59.388 21.875 60.1563C21.875 60.9245 22.078 61.6792 22.4636 62.3438H10.1172C9.75471 62.3434 9.40719 62.1992 9.15088 61.9429C8.89457 61.6866 8.7504 61.339 8.75 60.9766V57.9688Z" fill="#1BB899"/>
<path d="M21.8737 23.4462C21.9271 23.4462 21.9804 23.4423 22.0332 23.4346C26.2802 22.8135 30.5949 22.8135 34.8419 23.4346C35.1289 23.4765 35.4209 23.4027 35.6535 23.2295C35.8861 23.0562 36.0404 22.7975 36.0823 22.5105C36.1243 22.2235 36.0505 21.9315 35.8772 21.6989C35.7039 21.4663 35.4453 21.312 35.1583 21.2701C30.7015 20.6183 26.1736 20.6183 21.7169 21.2701C21.4433 21.3098 21.195 21.4516 21.0217 21.667C20.8485 21.8824 20.7632 22.1554 20.7831 22.4311C20.803 22.7068 20.9265 22.9647 21.1288 23.1531C21.3312 23.3414 21.5973 23.4461 21.8737 23.4462Z" fill="#1BB899"/>
<path d="M35.1582 26.7401C34.4176 26.6318 33.6639 26.5403 32.9179 26.468C32.775 26.4541 32.6307 26.4686 32.4933 26.5105C32.3559 26.5524 32.2281 26.621 32.1172 26.7123C32.0064 26.8036 31.9146 26.9159 31.8471 27.0427C31.7796 27.1695 31.7377 27.3083 31.7238 27.4513C31.71 27.5942 31.7245 27.7385 31.7664 27.8759C31.8083 28.0133 31.8769 28.1411 31.9682 28.252C32.0595 28.3628 32.1717 28.4547 32.2985 28.5222C32.4253 28.5897 32.5642 28.6315 32.7071 28.6454C33.4181 28.7137 34.1361 28.8014 34.8419 28.9051C34.8947 28.9128 34.948 28.9167 35.0014 28.9168C35.2778 28.9167 35.544 28.8119 35.7463 28.6236C35.9486 28.4353 36.0721 28.1773 36.092 27.9016C36.1119 27.6259 36.0266 27.3529 35.8534 27.1375C35.6801 26.9221 35.4318 26.7803 35.1582 26.7406V26.7401Z" fill="#1BB899"/>
<path d="M21.8737 28.9147C21.9271 28.9146 21.9804 28.9107 22.0332 28.903C24.154 28.5936 26.2944 28.438 28.4376 28.4375C28.7276 28.4375 29.0058 28.3223 29.211 28.1172C29.4161 27.912 29.5313 27.6338 29.5313 27.3438C29.5313 27.0537 29.4161 26.7755 29.211 26.5704C29.0058 26.3652 28.7276 26.25 28.4376 26.25C26.1885 26.2505 23.9424 26.4138 21.7169 26.7385C21.4433 26.7782 21.195 26.92 21.0217 27.1354C20.8485 27.3508 20.7632 27.6238 20.7831 27.8995C20.803 28.1752 20.9265 28.4332 21.1288 28.6215C21.3312 28.8098 21.5973 28.9146 21.8737 28.9147Z" fill="#1BB899"/>
<path d="M35.1582 32.2072C32.9327 31.8825 30.6866 31.7193 28.4375 31.7188C28.1474 31.7188 27.8692 31.834 27.6641 32.0391C27.459 32.2442 27.3438 32.5224 27.3438 32.8125C27.3438 33.1026 27.459 33.3808 27.6641 33.5859C27.8692 33.791 28.1474 33.9062 28.4375 33.9062C30.5807 33.9068 32.721 34.0624 34.8418 34.3718C34.8946 34.3795 34.948 34.3834 35.0013 34.3834C35.2778 34.3833 35.5439 34.2786 35.7462 34.0902C35.9485 33.9019 36.0721 33.644 36.0919 33.3683C36.1118 33.0926 36.0265 32.8196 35.8533 32.6042C35.6801 32.3888 35.4317 32.247 35.1582 32.2072Z" fill="#1BB899"/>
<path d="M21.8737 34.3839C21.9271 34.3839 21.9804 34.38 22.0332 34.3723C23.0913 34.2177 24.1688 34.0999 25.2355 34.0227C25.379 34.0126 25.519 33.9743 25.6477 33.91C25.7764 33.8457 25.8911 33.7567 25.9853 33.648C26.0795 33.5393 26.1513 33.413 26.1967 33.2765C26.242 33.14 26.26 32.9959 26.2496 32.8525C26.2392 32.709 26.2006 32.569 26.136 32.4405C26.0714 32.312 25.9821 32.1975 25.8732 32.1035C25.7643 32.0095 25.6379 31.938 25.5013 31.8929C25.3647 31.8479 25.2206 31.8302 25.0772 31.8409C23.9578 31.922 22.8273 32.046 21.7169 32.2078C21.4433 32.2475 21.195 32.3893 21.0217 32.6047C20.8485 32.8201 20.7632 33.0931 20.7831 33.3688C20.803 33.6445 20.9265 33.9024 21.1288 34.0908C21.3311 34.2791 21.5973 34.3838 21.8737 34.3839Z" fill="#1BB899"/>
<path d="M30.6778 37.2412C27.6838 37.0973 24.6829 37.2428 21.7169 37.6757C21.4433 37.7154 21.195 37.8572 21.0217 38.0726C20.8485 38.288 20.7632 38.561 20.7831 38.8367C20.803 39.1124 20.9265 39.3704 21.1288 39.5587C21.3311 39.747 21.5973 39.8518 21.8737 39.8518C21.9271 39.8518 21.9804 39.8479 22.0332 39.8402C24.8596 39.4277 27.7192 39.289 30.5723 39.4261C30.7163 39.434 30.8605 39.4134 30.9965 39.3654C31.1326 39.3174 31.2577 39.2429 31.3649 39.1463C31.472 39.0497 31.559 38.9329 31.6208 38.8025C31.6825 38.6722 31.7179 38.5309 31.7249 38.3868C31.7319 38.2427 31.7103 38.0987 31.6613 37.963C31.6124 37.8273 31.5371 37.7026 31.4398 37.5961C31.3424 37.4896 31.225 37.4034 31.0942 37.3425C30.9635 37.2816 30.822 37.2472 30.6778 37.2412Z" fill="#1BB899"/>
<path d="M41.5628 22.422C41.7324 22.4219 41.8996 22.3823 42.0512 22.3062L50.8012 17.9313C50.9308 17.8677 51.0465 17.7791 51.1417 17.6706C51.2369 17.5621 51.3097 17.4358 51.3559 17.2991C51.4021 17.1623 51.4207 17.0178 51.4108 16.8737C51.4008 16.7297 51.3624 16.5891 51.2979 16.46C51.2333 16.3309 51.1438 16.2159 51.0346 16.1215C50.9253 16.0271 50.7985 15.9553 50.6614 15.9102C50.5243 15.8651 50.3796 15.8476 50.2356 15.8587C50.0917 15.8698 49.9514 15.9092 49.8228 15.9748L41.0728 20.3498C40.8523 20.46 40.6754 20.6414 40.5709 20.8647C40.4664 21.088 40.4404 21.3401 40.4971 21.58C40.5539 21.8199 40.69 22.0336 40.8834 22.1865C41.0769 22.3393 41.3163 22.4223 41.5628 22.422Z" fill="#1BB899"/>
<path d="M41.5628 27.8908C41.7324 27.8907 41.8996 27.8511 42.0512 27.775L45.3324 26.1344C45.462 26.0708 45.5778 25.9822 45.673 25.8737C45.7682 25.7652 45.841 25.639 45.8872 25.5022C45.9333 25.3654 45.952 25.2209 45.942 25.0769C45.9321 24.9329 45.8937 24.7923 45.8291 24.6632C45.7646 24.534 45.6751 24.419 45.5658 24.3246C45.4566 24.2303 45.3298 24.1585 45.1926 24.1134C45.0555 24.0683 44.9108 24.0507 44.7669 24.0618C44.623 24.0729 44.4827 24.1124 44.3541 24.1779L41.0728 25.8186C40.8523 25.9287 40.6754 26.1102 40.5709 26.3335C40.4664 26.5568 40.4404 26.8088 40.4971 27.0487C40.5539 27.2887 40.69 27.5024 40.8834 27.6552C41.0769 27.8081 41.3163 27.8911 41.5628 27.8908Z" fill="#1BB899"/>
<path d="M48.1253 24.6096C48.2949 24.6095 48.4621 24.5698 48.6137 24.4938L49.7074 23.9469C49.837 23.8833 49.9528 23.7947 50.048 23.6862C50.1432 23.5777 50.216 23.4515 50.2622 23.3147C50.3083 23.1779 50.327 23.0334 50.317 22.8894C50.3071 22.7454 50.2687 22.6048 50.2041 22.4757C50.1396 22.3465 50.0501 22.2315 49.9408 22.1371C49.8316 22.0428 49.7048 21.971 49.5676 21.9259C49.4305 21.8808 49.2858 21.8632 49.1419 21.8743C48.998 21.8854 48.8577 21.9249 48.7291 21.9904L47.6353 22.5373C47.4148 22.6475 47.2379 22.8289 47.1334 23.0522C47.0289 23.2755 47.0029 23.5276 47.0596 23.7675C47.1164 24.0074 47.2525 24.2211 47.4459 24.374C47.6394 24.5268 47.8788 24.6099 48.1253 24.6096Z" fill="#1BB899"/>
<path d="M41.5628 38.8283C41.7324 38.8282 41.8996 38.7886 42.0512 38.7125L43.1449 38.1656C43.2745 38.1021 43.3903 38.0135 43.4855 37.905C43.5807 37.7965 43.6535 37.6702 43.6997 37.5335C43.7458 37.3967 43.7645 37.2521 43.7545 37.1081C43.7446 36.9641 43.7062 36.8235 43.6416 36.6944C43.5771 36.5653 43.4876 36.4502 43.3783 36.3559C43.2691 36.2615 43.1423 36.1897 43.0051 36.1446C42.868 36.0995 42.7233 36.082 42.5794 36.0931C42.4355 36.1042 42.2952 36.1436 42.1666 36.2092L41.0728 36.7561C40.8523 36.8662 40.6754 37.0477 40.5709 37.271C40.4664 37.4943 40.4404 37.7463 40.4971 37.9862C40.5539 38.2262 40.69 38.4399 40.8834 38.5927C41.0769 38.7456 41.3163 38.8286 41.5628 38.8283Z" fill="#1BB899"/>
<path d="M40.5842 32.7547C40.6484 32.8833 40.7372 32.9979 40.8457 33.0921C40.9542 33.1862 41.0802 33.2581 41.2165 33.3035C41.3528 33.3489 41.4967 33.367 41.64 33.3568C41.7833 33.3465 41.9232 33.3081 42.0516 33.2438L48.6141 29.9625C48.7437 29.899 48.8595 29.8104 48.9547 29.7019C49.0499 29.5934 49.1227 29.4671 49.1688 29.3303C49.215 29.1936 49.2337 29.049 49.2237 28.905C49.2137 28.761 49.1754 28.6204 49.1108 28.4913C49.0462 28.3622 48.9568 28.2471 48.8475 28.1528C48.7383 28.0584 48.6115 27.9866 48.4743 27.9415C48.3372 27.8964 48.1925 27.8789 48.0486 27.8899C47.9047 27.901 47.7644 27.9405 47.6358 28.0061L41.0733 31.2873C40.8138 31.4171 40.6166 31.6445 40.5249 31.9197C40.4331 32.1949 40.4545 32.4953 40.5842 32.7547Z" fill="#1BB899"/>
<path d="M49.8231 32.3811L45.4481 34.5686C45.3185 34.6321 45.2028 34.7207 45.1076 34.8292C45.0124 34.9377 44.9396 35.064 44.8934 35.2008C44.8472 35.3375 44.8286 35.4821 44.8385 35.6261C44.8485 35.7701 44.8869 35.9107 44.9514 36.0398C45.016 36.1689 45.1055 36.284 45.2147 36.3783C45.324 36.4727 45.4508 36.5445 45.5879 36.5896C45.725 36.6347 45.8697 36.6522 46.0137 36.6411C46.1576 36.6301 46.2979 36.5906 46.4265 36.525L50.8015 34.3375C50.9311 34.274 51.0468 34.1854 51.142 34.0769C51.2372 33.9684 51.31 33.8421 51.3562 33.7053C51.4024 33.5686 51.421 33.424 51.4111 33.28C51.4011 33.136 51.3627 32.9954 51.2982 32.8663C51.2336 32.7372 51.1441 32.6221 51.0349 32.5278C50.9257 32.4334 50.7988 32.3616 50.6617 32.3165C50.5246 32.2714 50.3799 32.2539 50.236 32.2649C50.092 32.276 49.9517 32.3155 49.8231 32.3811Z" fill="#1BB899"/>
<path d="M49.2188 54.6875C48.9287 54.6875 48.6505 54.8027 48.4454 55.0079C48.2402 55.213 48.125 55.4912 48.125 55.7812C48.125 56.0713 48.2402 56.3495 48.4454 56.5546C48.6505 56.7598 48.9287 56.875 49.2188 56.875H51.4062C51.6963 56.875 51.9745 56.7598 52.1796 56.5546C52.3848 56.3495 52.5 56.0713 52.5 55.7812C52.5 55.4912 52.3848 55.213 52.1796 55.0079C51.9745 54.8027 51.6963 54.6875 51.4062 54.6875H49.2188Z" fill="#1BB899"/>
<path d="M55.7812 54.6875C55.4912 54.6875 55.213 54.8027 55.0079 55.0079C54.8027 55.213 54.6875 55.4912 54.6875 55.7812C54.6875 56.0713 54.8027 56.3495 55.0079 56.5546C55.213 56.7598 55.4912 56.875 55.7812 56.875H61.25C61.5401 56.875 61.8183 56.7598 62.0234 56.5546C62.2285 56.3495 62.3438 56.0713 62.3438 55.7812C62.3438 55.4912 62.2285 55.213 62.0234 55.0079C61.8183 54.8027 61.5401 54.6875 61.25 54.6875H55.7812Z" fill="#1BB899"/>
</svg>
