<svg id="Capa_1" enable-background="new 0 0 512 512" height="512" viewBox="0 0 512 512" width="512" xmlns="http://www.w3.org/2000/svg"><path d="m298.38 512h-84.76c-11.385 0-20.872-8.543-22.069-19.873l-3.77-35.986c-.279-2.684-2.047-5.007-4.504-5.925-21.457-8.042-41.32-19.523-59.046-34.128-2.038-1.679-4.945-2.054-7.408-.958l-33.09 14.741c-10.407 4.635-22.55.693-28.247-9.169l-42.381-73.402c-5.695-9.859-3.041-22.347 6.175-29.046l29.305-21.273c2.208-1.606 3.312-4.247 2.875-6.889-1.857-11.23-2.8-22.701-2.8-34.092s.942-22.861 2.8-34.094c.436-2.64-.668-5.28-2.881-6.89l-29.295-21.266c-9.22-6.703-11.874-19.19-6.179-29.051l42.38-73.399c5.698-9.864 17.842-13.805 28.247-9.171l33.09 14.74c2.465 1.099 5.372.723 7.408-.956 7.84-6.457 16.197-12.37 24.84-17.577 3.548-2.138 8.157-.994 10.294 2.554s.994 8.157-2.554 10.294c-8.017 4.829-15.769 10.315-23.042 16.305-6.485 5.345-15.318 6.527-23.05 3.082l-33.089-14.74c-3.373-1.503-7.308-.225-9.154 2.97l-42.38 73.399c-1.845 3.195-.983 7.241 2.005 9.414l29.296 21.267c6.835 4.97 10.23 13.196 8.864 21.471-1.725 10.428-2.6 21.075-2.6 31.648s.875 21.22 2.599 31.646c1.367 8.277-2.028 16.503-8.858 21.47l-29.305 21.273c-2.983 2.169-3.846 6.216-2.001 9.409l42.38 73.402c1.845 3.194 5.78 4.471 9.153 2.969l33.09-14.74c7.732-3.445 16.565-2.263 23.052 3.084 16.443 13.548 34.868 24.199 54.761 31.654 7.742 2.89 13.307 10.121 14.168 18.418l3.769 35.973c.388 3.67 3.462 6.442 7.151 6.442h84.76c3.689 0 6.764-2.772 7.152-6.448l3.769-35.974c.861-8.291 6.426-15.521 14.176-18.415 19.884-7.452 38.309-18.103 54.753-31.652 6.486-5.347 15.318-6.528 23.052-3.083l33.089 14.74c3.373 1.503 7.308.226 9.154-2.97l42.379-73.399c1.845-3.195.983-7.241-2.005-9.414l-29.296-21.267c-6.835-4.97-10.23-13.196-8.864-21.471 1.725-10.428 2.6-21.075 2.6-31.648s-.875-21.22-2.599-31.646c-1.367-8.277 2.028-16.503 8.858-21.47l29.305-21.273c2.983-2.169 3.846-6.216 2.001-9.409l-42.378-73.401c-1.845-3.195-5.782-4.471-9.153-2.969l-33.09 14.74c-7.733 3.444-16.566 2.263-23.052-3.084-16.444-13.549-34.869-24.199-54.761-31.654-7.742-2.89-13.307-10.121-14.168-18.418l-3.769-35.973c-.388-3.67-3.463-6.442-7.152-6.442h-84.76c-3.689 0-6.764 2.772-7.152 6.448l-3.769 35.974c-.861 8.291-6.426 15.521-14.176 18.415-2.185.824-4.168 1.61-6.039 2.393-3.821 1.598-8.216-.203-9.813-4.025-1.599-3.821.203-8.215 4.025-9.813 2.035-.851 4.179-1.701 6.556-2.598 2.482-.927 4.25-3.25 4.528-5.928l3.771-35.987c1.197-11.336 10.684-19.879 22.069-19.879h84.76c11.385 0 20.872 8.543 22.069 19.872l3.77 35.986c.279 2.685 2.047 5.008 4.504 5.925 21.457 8.041 41.319 19.522 59.046 34.128 2.038 1.68 4.945 2.055 7.409.958l33.09-14.74c10.404-4.636 22.55-.693 28.247 9.17l42.38 73.401c5.695 9.859 3.041 22.347-6.175 29.046l-29.305 21.273c-2.208 1.606-3.312 4.247-2.875 6.889 1.857 11.23 2.8 22.701 2.8 34.092s-.942 22.861-2.8 34.094c-.436 2.64.668 5.28 2.881 6.89l29.295 21.267c9.22 6.703 11.874 19.19 6.179 29.051l-42.38 73.398c-5.697 9.865-17.841 13.806-28.247 9.171l-33.09-14.74c-2.463-1.099-5.371-.722-7.408.956-17.727 14.606-37.59 26.088-59.039 34.126-2.466.921-4.234 3.244-4.512 5.922l-3.771 35.986c-1.196 11.336-10.683 19.879-22.068 19.879z"/><path d="m332.19 332.34c-7.57 0-15.061-1.108-22.266-3.292-3.964-1.202-6.203-5.39-5.001-9.354s5.392-6.203 9.354-5.001c5.792 1.756 11.82 2.647 17.914 2.647 16.414 0 31.826-6.373 43.397-17.943 23.929-23.929 23.929-62.865 0-86.794-23.934-23.924-62.869-23.924-86.793 0l-27.49 27.49c-2.929 2.929-7.678 2.929-10.606 0l-27.49-27.49c-23.925-23.924-62.86-23.924-86.794.001-11.588 11.598-17.972 27.01-17.972 43.396s6.384 31.798 17.975 43.399c11.569 11.568 26.981 17.941 43.395 17.941 16.422 0 31.833-6.372 43.395-17.941l27.492-27.492c2.929-2.929 7.678-2.929 10.606 0l27.49 27.49c.941.941 1.882 1.826 2.796 2.628 3.112 2.733 3.419 7.472.686 10.584-2.734 3.113-7.473 3.42-10.584.687-1.156-1.015-2.335-2.123-3.504-3.292l-22.19-22.188-22.187 22.187c-14.393 14.403-33.572 22.336-54.003 22.336-20.42 0-39.599-7.933-54.003-22.336-14.425-14.435-22.367-33.613-22.367-54.003s7.942-39.568 22.365-54.001c29.785-29.774 78.237-29.773 108.008-.002l22.187 22.187 22.187-22.187c29.771-29.771 78.222-29.772 108.005-.001 29.779 29.778 29.779 78.23.001 108.008-14.404 14.403-33.583 22.336-54.003 22.336zm-152.376-29.986c-12.398 0-24.043-4.817-32.79-13.564-8.758-8.758-13.582-20.403-13.582-32.789s4.823-24.031 13.582-32.79c8.747-8.747 20.392-13.563 32.79-13.563s24.043 4.817 32.79 13.563l27.486 27.487c2.929 2.929 2.929 7.678 0 10.606l-27.486 27.486c-8.747 8.747-20.392 13.564-32.79 13.564zm0-77.708c-8.391 0-16.27 3.257-22.183 9.17-5.925 5.926-9.188 13.804-9.188 22.184s3.263 16.257 9.188 22.183c5.914 5.914 13.792 9.171 22.184 9.171 8.391 0 16.269-3.257 22.183-9.17l22.183-22.184-22.183-22.184c-5.914-5.913-13.792-9.17-22.184-9.17zm152.372 77.704c-11.875 0-23.75-4.52-32.79-13.559l-27.486-27.487c-2.929-2.929-2.929-7.678 0-10.606l27.486-27.487c18.081-18.08 47.5-18.079 65.58 0 8.758 8.758 13.582 20.403 13.582 32.79 0 12.386-4.823 24.031-13.582 32.79-9.04 9.039-20.915 13.559-32.79 13.559zm-44.366-46.35 22.183 22.184c12.232 12.231 32.134 12.231 44.366 0 5.925-5.926 9.188-13.804 9.188-22.184s-3.263-16.258-9.188-22.183c-12.231-12.231-32.134-12.232-44.367 0zm71.852 27.487h.01z"/><path d="m341.066 171.81c-1.826 0-3.657-.663-5.101-2.003-21.803-20.24-50.203-31.387-79.967-31.387s-58.164 11.147-79.967 31.387c-3.035 2.818-7.781 2.642-10.599-.394s-2.642-7.781.394-10.599c24.586-22.824 56.61-35.394 90.172-35.394s65.586 12.57 90.172 35.394c3.036 2.818 3.212 7.563.394 10.599-1.477 1.591-3.484 2.397-5.498 2.397z"/><path d="m255.999 388.58c-33.563 0-65.586-12.57-90.172-35.394-3.036-2.818-3.212-7.563-.394-10.599 2.817-3.036 7.563-3.213 10.599-.394 21.803 20.24 50.202 31.387 79.967 31.387s58.165-11.146 79.967-31.387c3.036-2.818 7.781-2.642 10.599.394s2.642 7.781-.394 10.599c-24.586 22.824-56.609 35.394-90.172 35.394z"/></svg>