<svg width="35" height="35" viewBox="0 0 35 35" fill="none" xmlns="http://www.w3.org/2000/svg">
<path d="M4.375 22.9688C4.375 22.6787 4.49023 22.4005 4.69535 22.1954C4.90047 21.9902 5.17867 21.875 5.46875 21.875H12.0312C12.3213 21.875 12.5995 21.9902 12.8046 22.1954C13.0098 22.4005 13.125 22.6787 13.125 22.9688C13.125 23.2588 13.0098 23.537 12.8046 23.7421C12.5995 23.9473 12.3213 24.0625 12.0312 24.0625H5.46875C5.17867 24.0625 4.90047 23.9473 4.69535 23.7421C4.49023 23.537 4.375 23.2588 4.375 22.9688ZM4.375 16.4062C4.375 16.1162 4.49023 15.838 4.69535 15.6329C4.90047 15.4277 5.17867 15.3125 5.46875 15.3125H20.7812C21.0713 15.3125 21.3495 15.4277 21.5546 15.6329C21.7598 15.838 21.875 16.1162 21.875 16.4062C21.875 16.6963 21.7598 16.9745 21.5546 17.1796C21.3495 17.3848 21.0713 17.5 20.7812 17.5H5.46875C5.17867 17.5 4.90047 17.3848 4.69535 17.1796C4.49023 16.9745 4.375 16.6963 4.375 16.4062ZM4.375 9.84375C4.375 9.55367 4.49023 9.27547 4.69535 9.07035C4.90047 8.86523 5.17867 8.75 5.46875 8.75H29.5312C29.8213 8.75 30.0995 8.86523 30.3046 9.07035C30.5098 9.27547 30.625 9.55367 30.625 9.84375C30.625 10.1338 30.5098 10.412 30.3046 10.6171C30.0995 10.8223 29.8213 10.9375 29.5312 10.9375H5.46875C5.17867 10.9375 4.90047 10.8223 4.69535 10.6171C4.49023 10.412 4.375 10.1338 4.375 9.84375Z" fill="white"/>
</svg>
