<svg width="31" height="31" viewBox="0 0 31 31" fill="none" xmlns="http://www.w3.org/2000/svg">
<g clip-path="url(#clip0)">
<path d="M28.5852 9.67004H27.7432V18.925C27.7432 20.366 26.9042 21.669 25.2222 21.669H8.74316V22.109C8.74316 23.383 10.1922 24.669 11.6802 24.669H24.2792L29.0992 27.503L28.4002 24.669H28.5852C30.0722 24.669 30.7432 23.386 30.7432 22.109V11.867C30.7432 10.593 30.0722 9.67004 28.5852 9.67004Z" fill="white"/>
<path d="M22.762 3.23999H3.622C1.938 3.23999 0 4.73599 0 6.17799V17.778C0 19.106 1.642 20.065 3.217 20.213L2.192 24.104L8.76 20.24H22.762C24.446 20.24 26 19.219 26 17.778V8.39299V6.17799C26 4.73599 24.445 3.23999 22.762 3.23999ZM6.542 13.032C5.587 13.032 4.813 12.258 4.813 11.303C4.813 10.348 5.587 9.57399 6.542 9.57399C7.496 9.57399 8.271 10.348 8.271 11.303C8.271 12.258 7.496 13.032 6.542 13.032ZM13 13.032C12.045 13.032 11.271 12.258 11.271 11.303C11.271 10.348 12.045 9.57399 13 9.57399C13.955 9.57399 14.729 10.348 14.729 11.303C14.729 12.258 13.955 13.032 13 13.032ZM19.459 13.032C18.504 13.032 17.729 12.258 17.729 11.303C17.729 10.348 18.504 9.57399 19.459 9.57399C20.412 9.57399 21.188 10.348 21.188 11.303C21.188 12.258 20.412 13.032 19.459 13.032Z" fill="white"/>
</g>
<defs>
<clipPath id="clip0">
<rect width="30.743" height="30.744" fill="white"/>
</clipPath>
</defs>
</svg>
