<svg width="25" height="25" viewBox="0 0 25 25" fill="none" xmlns="http://www.w3.org/2000/svg">
<path d="M22.9166 5.30524C21.9861 3.39552 19.3055 1.83302 16.1874 2.74274C14.6975 3.17312 13.3975 4.09606 12.4999 5.3608C11.6024 4.09606 10.3024 3.17312 8.81245 2.74274C5.68745 1.84691 3.01384 3.39552 2.08328 5.30524C0.777726 7.97885 1.31939 10.9858 3.69439 14.2427C5.5555 16.7914 8.21523 19.3747 12.0763 22.3747C12.1984 22.4699 12.3487 22.5215 12.5034 22.5215C12.6582 22.5215 12.8085 22.4699 12.9305 22.3747C16.7847 19.3816 19.4513 16.8191 21.3124 14.2427C23.6805 10.9858 24.2222 7.97885 22.9166 5.30524Z" fill="#D2D2D2"/>
</svg>
