<svg width="20" height="20" viewBox="0 0 20 20" fill="none" xmlns="http://www.w3.org/2000/svg">
<path d="M3.125 18.75C2.95924 18.75 2.80027 18.6842 2.68306 18.5669C2.56585 18.4497 2.5 18.2908 2.5 18.125C2.5 17.9592 2.56585 17.8003 2.68306 17.6831C2.80027 17.5658 2.95924 17.5 3.125 17.5H4.375V16.25C4.37474 15.1887 4.67473 14.149 5.24031 13.251C5.80589 12.3529 6.61399 11.6332 7.57125 11.175C7.93375 11.0012 8.125 10.7038 8.125 10.4375V9.5625C8.125 9.29625 7.9325 8.99875 7.57125 8.825C6.61399 8.36676 5.80589 7.64706 5.24031 6.74903C4.67473 5.851 4.37474 4.81129 4.375 3.75V2.5H3.125C2.95924 2.5 2.80027 2.43415 2.68306 2.31694C2.56585 2.19973 2.5 2.04076 2.5 1.875C2.5 1.70924 2.56585 1.55027 2.68306 1.43306C2.80027 1.31585 2.95924 1.25 3.125 1.25H16.875C17.0408 1.25 17.1997 1.31585 17.3169 1.43306C17.4342 1.55027 17.5 1.70924 17.5 1.875C17.5 2.04076 17.4342 2.19973 17.3169 2.31694C17.1997 2.43415 17.0408 2.5 16.875 2.5H15.625V3.75C15.6253 4.81129 15.3253 5.851 14.7597 6.74903C14.1941 7.64706 13.386 8.36676 12.4288 8.825C12.0662 8.99875 11.875 9.29625 11.875 9.5625V10.4375C11.875 10.7038 12.0675 11.0012 12.4288 11.175C13.386 11.6332 14.1941 12.3529 14.7597 13.251C15.3253 14.149 15.6253 15.1887 15.625 16.25V17.5H16.875C17.0408 17.5 17.1997 17.5658 17.3169 17.6831C17.4342 17.8003 17.5 17.9592 17.5 18.125C17.5 18.2908 17.4342 18.4497 17.3169 18.5669C17.1997 18.6842 17.0408 18.75 16.875 18.75H3.125ZM5.625 2.5V3.75C5.625 4.42125 5.775 5.05625 6.04625 5.625H13.9538C14.2238 5.05625 14.375 4.42125 14.375 3.75V2.5H5.625ZM9.375 10.4375C9.375 11.3138 8.7775 11.9825 8.11125 12.3025C7.36662 12.6589 6.73801 13.2187 6.29806 13.9172C5.85811 14.6157 5.62477 15.4245 5.625 16.25C5.625 16.25 6.7075 14.6263 9.375 14.4V10.4375ZM10.625 10.4375V14.4C13.2925 14.6263 14.375 16.25 14.375 16.25C14.3752 15.4245 14.1419 14.6157 13.7019 13.9172C13.262 13.2187 12.6334 12.6589 11.8888 12.3025C11.2225 11.9825 10.625 11.315 10.625 10.4387V10.4375Z" fill="#1BB899"/>
</svg>
