<svg width="100" height="100" viewBox="0 0 100 100" fill="none" xmlns="http://www.w3.org/2000/svg">
<g clip-path="url(#clip0)">
<path d="M29.4591 45.0042V61.1511H24.3154V40.8542H34.9279C39.4372 40.8542 40.9654 44.0448 40.9654 46.9261V61.1511H35.8372V46.9573C35.8372 45.7354 35.2185 45.0042 33.706 45.0042H29.4591ZM64.4216 44.7604C62.6466 44.7604 61.2966 45.6542 60.7279 46.8917C60.4039 47.5786 60.2374 48.3291 60.2404 49.0886H68.1497C68.0529 46.8917 67.0435 44.7604 64.4216 44.7604ZM60.2372 52.5885C60.2372 55.2104 61.8654 57.1636 64.7935 57.1636C67.056 57.1636 68.1779 56.5292 69.4966 55.2104L72.6716 58.2542C70.6529 60.2573 68.506 61.4761 64.7466 61.4761C59.831 61.4761 55.1279 58.7917 55.1279 50.9792C55.1279 44.2885 59.231 40.5136 64.6341 40.5136C70.1185 40.5136 73.2779 44.9417 73.2779 50.7354V52.576H60.2404L60.2372 52.5885ZM50.781 61.1167C46.5966 61.1167 44.8247 58.2042 44.8247 55.3229V35.3198H49.9529V40.8542H53.8091V45.0042H49.9529V54.9979C49.9529 56.1854 50.506 56.8386 51.7279 56.8386H53.8122V61.1198L50.781 61.1167ZM19.7435 38.0542H14.5685V33.1229H19.7435V38.0542ZM19.7591 61.3604C15.8841 60.9854 14.5685 58.6417 14.5685 55.9229V40.8511H19.7435V61.376L19.7591 61.3604ZM81.4466 60.9229C77.5716 60.5479 76.2716 58.2042 76.2716 55.5042V32.4417H81.4466V60.9417V60.9229ZM99.5591 35.7761C94.8716 12.876 50.4216 11.426 21.7935 28.8573V30.7948C50.3904 16.0823 90.9841 16.1792 94.6779 37.2417C95.8997 44.2229 91.9747 51.4823 84.9622 55.6667V61.1354C93.4091 58.0417 102.068 48.0167 99.5622 35.7761H99.5591ZM47.4935 75.8136C27.7341 77.6354 7.12786 74.7542 4.24661 59.326C2.84661 51.7073 6.33098 43.6354 10.9029 38.6229V35.9542C2.63411 43.2136 -1.85652 52.4104 0.730982 63.2667C4.03411 77.1979 21.7122 85.0917 48.681 82.4729C59.3591 81.4323 73.3404 77.9979 83.0404 72.6573V65.0886C74.2341 70.3448 59.6341 74.6917 47.4935 75.8136ZM87.4341 33.9542C87.4341 33.7104 87.2716 33.6292 86.9466 33.6292H86.6216V34.3448H86.9466C87.2716 34.3448 87.4341 34.2479 87.4341 34.0042V33.9542ZM87.9404 35.7261H87.5497C87.5328 35.7265 87.5161 35.722 87.5017 35.7131C87.4873 35.7042 87.4757 35.6914 87.4685 35.6761L86.9466 34.7823C86.924 34.7627 86.8953 34.7517 86.8654 34.7511H86.6372V35.6292C86.6372 35.6792 86.5872 35.7261 86.5404 35.7261H86.1997C86.1497 35.7261 86.1029 35.6761 86.1029 35.6292V33.3979C86.1029 33.2854 86.1685 33.2198 86.2654 33.201C86.4779 33.1854 86.6872 33.1854 86.8997 33.1854C87.5341 33.1854 87.9247 33.3636 87.9247 33.9667V33.9979C87.9247 34.3729 87.7279 34.5667 87.4529 34.6667L87.9904 35.5792C87.9904 35.5948 88.006 35.6292 88.006 35.6448C88.0216 35.6761 87.9904 35.7261 87.9404 35.7261ZM87.0279 32.7636C86.8034 32.7636 86.5811 32.8078 86.3737 32.8937C86.1663 32.9796 85.9779 33.1055 85.8192 33.2642C85.6604 33.4229 85.5345 33.6114 85.4486 33.8188C85.3627 34.0262 85.3185 34.2484 85.3185 34.4729C85.3341 35.4167 86.0997 36.1823 87.0435 36.1823C87.4919 36.1798 87.9213 36.0006 88.2384 35.6835C88.5555 35.3664 88.7348 34.937 88.7372 34.4886C88.7381 34.0335 88.5587 33.5966 88.2384 33.2734C87.9181 32.9502 87.4829 32.7669 87.0279 32.7636ZM87.0279 36.5417C86.7576 36.5417 86.49 36.4884 86.2404 36.385C85.9907 36.2816 85.7638 36.13 85.5728 35.939C85.3817 35.7479 85.2301 35.521 85.1267 35.2714C85.0233 35.0217 84.97 34.7541 84.97 34.4839C84.97 34.2136 85.0233 33.946 85.1267 33.6964C85.2301 33.4467 85.3817 33.2199 85.5728 33.0288C85.7638 32.8377 85.9907 32.6861 86.2404 32.5827C86.49 32.4793 86.7576 32.4261 87.0279 32.4261C88.1497 32.4261 89.0935 33.3542 89.0935 34.4917C89.0935 35.6292 88.1497 36.5417 87.0279 36.5417Z" fill="#DFDFDF"/>
</g>
<defs>
<clipPath id="clip0">
<rect width="100" height="100" fill="white"/>
</clipPath>
</defs>
</svg>
