<svg width="25" height="25" viewBox="0 0 25 25" fill="none" xmlns="http://www.w3.org/2000/svg">
<path d="M2.08366 8.33366H22.917M12.5003 23.9587C18.8284 23.9587 23.9587 18.8284 23.9587 12.5003C23.9587 6.1722 18.8284 1.04199 12.5003 1.04199C6.1722 1.04199 1.04199 6.1722 1.04199 12.5003C1.04199 18.8284 6.1722 23.9587 12.5003 23.9587ZM12.5003 23.9587C15.6253 23.9587 16.667 18.7503 16.667 12.5003C16.667 6.25033 15.6253 1.04199 12.5003 1.04199C9.37533 1.04199 8.33366 6.25033 8.33366 12.5003C8.33366 18.7503 9.37533 23.9587 12.5003 23.9587ZM2.08366 16.667H22.917H2.08366Z" stroke="white" stroke-width="2"/>
</svg>
