<svg width="30" height="30" viewBox="0 0 30 30" fill="none" xmlns="http://www.w3.org/2000/svg">
<path d="M15 1.875C12.266 1.87823 9.6448 2.96575 7.71153 4.89902C5.77826 6.83229 4.69074 9.45344 4.68751 12.1875C4.68424 14.4218 5.41406 16.5954 6.76501 18.375C6.76501 18.375 7.04626 18.7453 7.0922 18.7987L15 28.125L22.9116 18.7941C22.9528 18.7444 23.235 18.375 23.235 18.375L23.2359 18.3722C24.5862 16.5934 25.3157 14.4207 25.3125 12.1875C25.3093 9.45344 24.2218 6.83229 22.2885 4.89902C20.3552 2.96575 17.7341 1.87823 15 1.875ZM15.9375 16.875H14.0625V15H15.9375V16.875ZM15.9375 13.125H14.0625V11.25H15.9375V13.125ZM19.6875 16.875H17.8125V9.375H12.1875V16.875H10.3125V9.375C10.313 8.87787 10.5107 8.40125 10.8622 8.04972C11.2138 7.6982 11.6904 7.5005 12.1875 7.5H17.8125C18.3096 7.5005 18.7863 7.6982 19.1378 8.04972C19.4893 8.40125 19.687 8.87787 19.6875 9.375V16.875Z" fill="#1BB899"/>
</svg>
