<svg width="23" height="22" viewBox="0 0 23 22" fill="none" xmlns="http://www.w3.org/2000/svg">
<g clip-path="url(#clip0)">
<path d="M6.17592 18.8421L6.5314 19.0199C8.01279 19.9086 9.6718 20.3234 11.3309 20.3234C16.5451 20.3234 20.8112 16.0573 20.8112 10.8431C20.8112 8.35455 19.8039 5.9252 18.0264 4.14762C16.2488 2.37004 13.8786 1.36279 11.3309 1.36279C6.11672 1.36279 1.8505 5.62892 1.90979 10.9024C1.90979 12.6799 2.44306 14.3983 3.33181 15.8795L3.56879 16.235L2.62084 19.7309L6.17592 18.8421Z" fill="#00E676"/>
<path d="M19.0338 3.1996C17.0193 1.12582 14.2344 0 11.3903 0C5.34669 0 0.488001 4.91789 0.547205 10.9023C0.547205 12.7984 1.08047 14.6353 1.96931 16.2943L0.428711 21.9232L6.17615 20.4419C7.77595 21.3307 9.55344 21.7455 11.3311 21.7455C17.3155 21.7455 22.1742 16.8275 22.1742 10.8432C22.1742 7.93979 21.0484 5.21417 19.0339 3.1996H19.0338ZM11.3903 19.9087C9.79052 19.9087 8.19072 19.494 6.82791 18.6645L6.47242 18.4867L3.03584 19.3755L3.92459 15.9982L3.6876 15.6426C1.08047 11.4358 2.32479 5.86593 6.59092 3.2588C10.857 0.651761 16.3675 1.89608 18.9746 6.16221C21.5817 10.4283 20.3374 15.9388 16.0713 18.5459C14.7084 19.4347 13.0494 19.9086 11.3903 19.9086V19.9087ZM16.6045 13.3318L15.9527 13.0356C15.9527 13.0356 15.0048 12.6208 14.4122 12.3245C14.3529 12.3245 14.2937 12.2652 14.2344 12.2652C14.0566 12.2652 13.9382 12.3245 13.8197 12.3838C13.8197 12.3838 13.7605 12.443 12.9309 13.391C12.8716 13.5095 12.7531 13.5688 12.6346 13.5688H12.5753C12.5161 13.5688 12.3976 13.5095 12.3384 13.4503L12.0421 13.3318C11.3903 13.0356 10.7978 12.68 10.3238 12.206C10.2053 12.0875 10.0275 11.969 9.90901 11.8505C9.49424 11.4358 9.07947 10.9617 8.78327 10.4284L8.72398 10.3099C8.66478 10.2506 8.66478 10.1914 8.60549 10.0729C8.60549 9.95445 8.60549 9.83595 8.66478 9.77666C8.66478 9.77666 8.90177 9.48039 9.07947 9.30269C9.19805 9.18411 9.25725 9.00641 9.37574 8.88791C9.49424 8.71013 9.55353 8.47314 9.49424 8.29536C9.43503 7.99908 8.72398 6.39928 8.54629 6.0438C8.42771 5.86601 8.3093 5.80681 8.13151 5.74752H7.47975C7.36117 5.74752 7.24276 5.80681 7.12419 5.80681L7.0649 5.86601C6.9464 5.9253 6.82791 6.0438 6.70941 6.103C6.59092 6.22158 6.53163 6.33999 6.41314 6.45857C5.99836 6.99184 5.76137 7.6436 5.76137 8.29536C5.76137 8.76933 5.87987 9.2434 6.05765 9.65817L6.11694 9.83595C6.65021 10.9617 7.36117 11.969 8.3093 12.8578L8.54629 13.0948C8.72398 13.2725 8.90177 13.391 9.02026 13.5687C10.2646 14.6354 11.6866 15.4056 13.2864 15.8204C13.4642 15.8796 13.7012 15.8796 13.8789 15.9389H14.4714C14.7677 15.9389 15.1232 15.8204 15.3603 15.7019C15.538 15.5834 15.6564 15.5834 15.7749 15.4649L15.8935 15.3463C16.012 15.2278 16.1305 15.1686 16.249 15.0501C16.3675 14.9316 16.486 14.8131 16.5453 14.6946C16.6638 14.4576 16.723 14.1613 16.7823 13.8651V13.4503C16.7823 13.4503 16.723 13.391 16.6045 13.3318Z" fill="white"/>
</g>
<defs>
<clipPath id="clip0">
<rect width="21.7452" height="22" fill="white" transform="translate(0.428711)"/>
</clipPath>
</defs>
</svg>
