<svg width="20" height="22" viewBox="0 0 20 22" fill="none" xmlns="http://www.w3.org/2000/svg">
<g clip-path="url(#clip0)">
<path d="M11.1734 10.3771L13.9845 7.56572C8.84996 4.52491 1.2629 0.0637994 0.834124 0L0.799805 0.00351997L11.1734 10.3771Z" fill="#08B059"/>
<path d="M0.177348 0.625977L0.173828 0.660076V21.3399L0.177128 21.3727L10.5507 10.9993L0.177348 0.625977Z" fill="#1BB899"/>
<path d="M11.1749 11.623L0.801758 21.9964L0.834317 22.0001C1.26507 21.9315 8.85082 17.4726 13.9847 14.4331L11.1749 11.623Z" fill="#F04F3E"/>
<path d="M18.6538 10.3398C18.6538 10.3398 17.0319 9.37221 14.7675 8.02979L11.7969 11.0006L14.7662 13.9699C17.0313 12.6273 18.6538 11.6597 18.6538 11.6597C19.0073 11.4741 19.3138 11.3643 19.3138 10.9998C19.3138 10.6354 18.9653 10.5103 18.6538 10.3398Z" fill="#F99C1C"/>
</g>
<defs>
<clipPath id="clip0">
<rect width="19.1398" height="22" fill="white" transform="translate(0.173828)"/>
</clipPath>
</defs>
</svg>
