<svg width="70" height="70" viewBox="0 0 70 70" fill="none" xmlns="http://www.w3.org/2000/svg">
<path d="M66.4256 47.7965H3.57486C1.60371 47.7965 0 46.1935 0 44.2227V10.4275C0 8.4568 1.60371 6.85352 3.57486 6.85352H66.4256C68.396 6.85352 70 8.4568 70 10.4275V44.2227C70 46.1935 68.396 47.7965 66.4256 47.7965ZM3.57486 9.74052C3.19571 9.74052 2.88671 10.0487 2.88671 10.4275V44.2227C2.88671 44.6015 3.19571 44.9098 3.57486 44.9098H66.4256C66.8046 44.9098 67.1131 44.6015 67.1131 44.2227V10.4275C67.1131 10.0487 66.8047 9.74052 66.4256 9.74052H3.57486Z" fill="#1BB899"/>
<path d="M27.5274 38.2955C27.0534 38.0362 26.7451 37.5529 26.7451 37.0129V17.6388C26.7451 17.0985 27.0471 16.6038 27.5274 16.3559C28.0074 16.1082 28.5851 16.1495 29.0254 16.4626L42.648 26.1496C43.0291 26.4205 43.2549 26.8588 43.2549 27.3259C43.2549 27.7932 43.0291 28.2315 42.648 28.5024C42.648 28.5024 32.4306 35.7672 29.0254 38.1891C28.7765 38.3661 28.2401 38.6856 27.5274 38.2955ZM29.6324 20.4365V34.2152L39.3206 27.3259L29.6324 20.4365Z" fill="#1BB899"/>
<path d="M68.5567 55.9893H40.9667C40.326 53.535 38.09 51.7188 35.4379 51.7188C32.786 51.7188 30.5506 53.535 29.9097 55.9893H1.44343C0.646429 55.9893 0 56.6358 0 57.4328C0 58.23 0.646429 58.8762 1.44343 58.8762H29.9099C30.5507 61.3305 32.7863 63.147 35.438 63.147C38.0901 63.147 40.3261 61.3303 40.9669 58.8762H68.5567C69.3531 58.8762 70 58.2302 70 57.4328C70 56.6358 69.3531 55.9893 68.5567 55.9893ZM35.4379 60.2599C33.8796 60.2599 32.611 58.9916 32.611 57.4326C32.611 55.8739 33.8796 54.6058 35.4379 54.6058C36.9969 54.6058 38.2651 55.8739 38.2651 57.4326C38.2651 58.9918 36.9969 60.2599 35.4379 60.2599Z" fill="#1BB899"/>
</svg>
