<svg width="30" height="32" viewBox="0 0 30 32" fill="none" xmlns="http://www.w3.org/2000/svg">
<path d="M8.75 19.6792H17.5V22.3031H8.75V19.6792ZM8.75 14.4316H21.25V17.0554H8.75V14.4316ZM8.75 9.18396H21.25V11.8078H8.75V9.18396ZM23.75 3.93632H18.525C18 2.4145 16.625 1.3125 15 1.3125C13.375 1.3125 12 2.4145 11.475 3.93632H6.25C6.075 3.93632 5.9125 3.94944 5.75 3.9888C5.35189 4.07646 4.98005 4.26436 4.66649 4.53632C4.35293 4.80828 4.10704 5.15614 3.95 5.54997C3.825 5.85171 3.75 6.1928 3.75 6.56014V24.9269C3.75 25.2811 3.825 25.6353 3.95 25.9502C4.075 26.265 4.2625 26.5405 4.4875 26.7898C4.825 27.144 5.2625 27.4064 5.75 27.5113C5.9125 27.5376 6.075 27.5507 6.25 27.5507H23.75C25.125 27.5507 26.25 26.37 26.25 24.9269V6.56014C26.25 5.11704 25.125 3.93632 23.75 3.93632ZM15 3.60834C15.5125 3.60834 15.9375 4.05439 15.9375 4.59227C15.9375 5.13016 15.5125 5.57621 15 5.57621C14.4875 5.57621 14.0625 5.13016 14.0625 4.59227C14.0625 4.05439 14.4875 3.60834 15 3.60834ZM23.75 24.9269H6.25V6.56014H23.75V24.9269Z" fill="#1BB899"/>
</svg>
