<svg width="30" height="30" viewBox="0 0 30 30" fill="none" xmlns="http://www.w3.org/2000/svg">
<path d="M15 1.875C7.75195 1.875 1.875 7.75195 1.875 15C1.875 22.248 7.75195 28.125 15 28.125C22.248 28.125 28.125 22.248 28.125 15C28.125 7.75195 22.248 1.875 15 1.875ZM19.2217 15.2021L12.8232 19.8574C12.7882 19.8826 12.7468 19.8977 12.7037 19.9009C12.6607 19.9042 12.6175 19.8955 12.5791 19.8758C12.5406 19.8561 12.5083 19.8262 12.4858 19.7894C12.4632 19.7525 12.4512 19.7102 12.4512 19.667V10.3623C12.451 10.319 12.4629 10.2765 12.4854 10.2396C12.5079 10.2026 12.5402 10.1726 12.5788 10.1529C12.6173 10.1332 12.6605 10.1245 12.7037 10.1279C12.7468 10.1312 12.7882 10.1464 12.8232 10.1719L19.2217 14.8242C19.2519 14.8456 19.2766 14.8739 19.2936 14.9068C19.3106 14.9397 19.3195 14.9762 19.3195 15.0132C19.3195 15.0502 19.3106 15.0867 19.2936 15.1196C19.2766 15.1525 19.2519 15.1808 19.2217 15.2021Z" fill="#1BB899"/>
</svg>
