<svg width="46" height="46" viewBox="0 0 46 46" fill="none" xmlns="http://www.w3.org/2000/svg">
<g clip-path="url(#clip0)">
<path d="M45.3451 12.0792C45.345 12.0792 45.345 12.0792 45.3449 12.0792L45.3434 12.0777L42.3742 11.6541C41.9569 11.5946 41.6668 11.2081 41.7262 10.7908C41.7547 10.5902 41.8619 10.4093 42.0239 10.2878L44.4236 8.48798C44.7609 8.23505 44.8292 7.75666 44.5763 7.41939L41.8285 3.75565C41.5756 3.41837 41.0972 3.35006 40.7599 3.60299L38.3609 5.4028C38.0251 5.65764 37.5463 5.592 37.2915 5.25616C37.1677 5.0931 37.1147 4.88711 37.1442 4.68456L37.5686 1.7154C37.6285 1.29808 37.3387 0.91138 36.9215 0.851463C36.9212 0.851463 36.9209 0.851368 36.9206 0.851368L32.3898 0.204107C31.9726 0.144189 31.5857 0.433854 31.5257 0.851177C31.5257 0.851272 31.5257 0.851272 31.5257 0.851368L31.1014 3.82053C31.0419 4.23785 30.6554 4.52799 30.2381 4.46855C30.0375 4.44002 29.8566 4.33288 29.7351 4.17087L27.936 1.77112C27.6831 1.43385 27.2047 1.36553 26.8675 1.61846L24.5738 3.33966C23.5361 3.22937 22.4897 3.22937 21.452 3.33966C14.6563 4.11639 9.32718 9.53587 8.66475 16.3437C8.64415 16.5597 8.63651 16.7741 8.62583 16.9886H8.39684C8.03467 16.9893 7.72277 17.2444 7.65035 17.5992L7.12293 20.1074L5.01017 18.6503C4.70696 18.4411 4.29746 18.4784 4.03699 18.7388L1.74715 21.0287C1.48706 21.289 1.44985 21.698 1.65861 22.0011L3.10884 24.11L0.59994 24.6375C0.249022 24.7144 -0.000761535 25.0255 1.7445e-06 25.3847V28.4378C-0.000189075 28.7989 0.252743 29.1107 0.606046 29.1851L3.11495 29.7125L1.66471 31.8214C1.45596 32.1246 1.49317 32.5335 1.75326 32.7939L4.04309 35.0837C4.30356 35.3442 4.71306 35.3815 5.01628 35.1722L7.12522 33.7182L7.65264 36.2271C7.72506 36.5819 8.03695 36.837 8.39913 36.8377H11.4523C11.8133 36.8379 12.1251 36.585 12.1995 36.2317L12.7269 33.7228L14.8359 35.173C15.139 35.3818 15.5479 35.3445 15.8083 35.0845L16.9937 33.8953V36.0706C16.9971 37.1565 17.5788 38.1582 18.5202 38.6994V42.9401C18.5202 44.6263 19.8872 45.9933 21.5733 45.9933H24.6265C26.3126 45.9933 27.6796 44.6263 27.6796 42.9401V38.6994C28.621 38.1582 29.2027 37.1565 29.2061 36.0706V33.0496C29.2268 31.7784 29.8918 30.6049 30.9716 29.9338C31.605 29.5229 32.2057 29.0635 32.7684 28.5599L31.7502 27.4227C31.2469 27.8738 30.7091 28.2849 30.1419 28.6523C28.6263 29.6035 27.6986 31.2602 27.6796 33.0496V36.0706C27.6796 36.9138 26.9962 37.5972 26.153 37.5972H20.0468C19.2036 37.5972 18.5202 36.9138 18.5202 36.0706V32.9862C18.5026 31.2308 17.5894 29.606 16.0991 28.6783C10.0494 24.8769 8.22673 16.8912 12.028 10.8416C14.3866 7.08803 18.5028 4.80344 22.9358 4.7876C22.9244 4.81479 22.9144 4.84256 22.906 4.8708C22.8777 5.07116 22.9302 5.27467 23.0518 5.43639L24.8509 7.83538C25.0405 8.08087 25.0588 8.41804 24.8967 8.68262C24.7406 8.94881 24.4388 9.09402 24.1334 9.04975L21.1642 8.62537C20.7469 8.56555 20.3602 8.85531 20.3003 9.27254C20.3003 9.27282 20.3002 9.27311 20.3002 9.27339L19.6522 13.8065C19.5923 14.2237 19.8821 14.6105 20.2993 14.6704C20.2996 14.6704 20.2999 14.6705 20.3002 14.6705L23.2693 15.0949C23.6867 15.1544 23.9768 15.5409 23.9174 15.9582C23.8888 16.1587 23.7817 16.3396 23.6197 16.4612L21.2207 18.2602C20.8834 18.5132 20.8151 18.9916 21.068 19.3288L23.8159 22.9926C24.0688 23.3299 24.5472 23.3982 24.8844 23.1452L27.2842 21.3462C27.6218 21.0937 28.1001 21.1627 28.3526 21.5004C28.4734 21.6619 28.5254 21.8647 28.4971 22.0644L28.0734 25.0336C28.0135 25.4508 28.3032 25.8377 28.7205 25.8976C28.7206 25.8976 28.7206 25.8976 28.7207 25.8976L33.2546 26.5457C33.2903 26.5502 33.3262 26.5525 33.3622 26.5525C33.7422 26.553 34.0646 26.2738 34.1186 25.8976L34.5422 22.9285C34.6017 22.5111 34.9882 22.221 35.4055 22.2804C35.606 22.309 35.7869 22.4161 35.9085 22.5781L37.7083 24.9771C37.9612 25.3144 38.4396 25.3827 38.7769 25.1298L42.4406 22.382C42.7779 22.129 42.8462 21.6506 42.5933 21.3134L40.7943 18.9144C40.6054 18.6685 40.5872 18.3319 40.7485 18.0671C40.9012 17.7974 41.2058 17.6512 41.5117 17.7008L44.4809 18.1244C44.8981 18.1843 45.285 17.8945 45.3449 17.4773C45.3449 17.4772 45.3449 17.4772 45.3449 17.4771L45.9922 12.9432C46.0521 12.5259 45.7624 12.1391 45.3451 12.0792ZM20.0468 39.1237H26.153V40.6503H20.0468V39.1237ZM20.0468 42.1769H26.153V42.9401C26.153 43.7833 25.4696 44.4667 24.6265 44.4667H21.5733C20.7302 44.4667 20.0468 43.7833 20.0468 42.9401V42.1769ZM13.9703 29.0141C14.3871 29.3549 14.8225 29.6722 15.2748 29.9644C15.996 30.4202 16.5388 31.1097 16.8128 31.9176L15.1755 33.5518L13.5902 32.4588C12.896 31.9804 11.9454 32.1554 11.4669 32.8496C11.3523 33.0161 11.2717 33.2036 11.2301 33.4014L10.8302 35.3073H9.01586L8.6159 33.4045C8.44226 32.5795 7.6327 32.0514 6.80769 32.225C6.60991 32.2666 6.42233 32.3471 6.25584 32.4618L4.66975 33.5518L3.27905 32.1642L4.3713 30.5796C4.85017 29.8857 4.67576 28.935 3.98184 28.4561C3.81526 28.3412 3.62749 28.2605 3.42942 28.2188L1.52656 27.818V26.0045L3.42942 25.6038C4.25414 25.4289 4.781 24.6186 4.60611 23.7937C4.56461 23.5981 4.48513 23.4125 4.37207 23.2475L3.27905 21.6584L4.66975 20.2707L6.25661 21.3637C6.95109 21.8417 7.90166 21.6661 8.37957 20.9716C8.49407 20.8053 8.5744 20.6179 8.6159 20.4203L8.74948 19.7853C8.87179 20.6648 9.07435 21.5311 9.35476 22.3736C6.84328 22.673 5.05005 24.9517 5.34945 27.4632C5.64884 29.9747 7.92762 31.7679 10.4391 31.4685C11.951 31.2882 13.2744 30.3683 13.9703 29.0141ZM12.7849 27.9386C12.215 29.5229 10.4687 30.3452 8.88439 29.7753C7.3001 29.2053 6.47786 27.459 7.04774 25.8747C7.48377 24.6627 8.63451 23.8555 9.92254 23.8581C9.93247 23.8581 9.94162 23.8581 9.95155 23.8581C10.6535 25.3716 11.6121 26.7521 12.7849 27.9386ZM43.9374 16.5032L41.7239 16.1872C40.472 16.0084 39.3122 16.8784 39.1334 18.1303C39.0475 18.7315 39.204 19.3422 39.5684 19.828L40.9095 21.6164L38.467 23.4483L37.1252 21.6607C36.3665 20.6488 34.9312 20.4436 33.9195 21.2023C33.4337 21.5666 33.1124 22.109 33.0264 22.7102L32.7172 24.9267L29.6954 24.4947L30.0114 22.2812C30.1907 21.0293 29.3211 19.8691 28.0692 19.69C27.4677 19.6038 26.8567 19.7603 26.3706 20.1249L24.5822 21.466L22.7503 19.0235L24.5379 17.6817C25.5497 16.923 25.755 15.4877 24.9963 14.476C24.632 13.9902 24.0896 13.6689 23.4884 13.5829L21.2749 13.2669L21.7069 10.245L23.9204 10.561C25.1723 10.7403 26.3325 9.87076 26.5117 8.61888C26.5978 8.01732 26.4413 7.40632 26.0767 6.9202L24.731 5.13031L27.1735 3.29844L28.5154 5.08681C29.2741 6.09863 30.7093 6.30386 31.7211 5.54516C32.2069 5.18088 32.5281 4.63847 32.6142 4.0373L32.9302 1.82379L35.952 2.25504L35.636 4.46855C35.4572 5.72052 36.3272 6.88032 37.5791 7.05912C38.1803 7.14499 38.791 6.98852 39.2769 6.62405L41.0652 5.28297L42.8971 7.72546L41.1087 9.06731C40.0969 9.82601 39.8917 11.2613 40.6504 12.273C41.0146 12.7588 41.5571 13.0801 42.1582 13.1661L44.3717 13.4821L43.9374 16.5032Z" fill="#F04F3E"/>
<path d="M32.8211 7.26746C29.4487 7.26746 26.7148 10.0013 26.7148 13.3737C26.7148 16.7461 29.4487 19.4799 32.8211 19.4799C36.1934 19.4799 38.9273 16.7461 38.9273 13.3737C38.9235 10.0029 36.1919 7.27118 32.8211 7.26746ZM32.8211 17.9534C30.2918 17.9534 28.2414 15.903 28.2414 13.3737C28.2414 10.8444 30.2918 8.79402 32.8211 8.79402C35.3504 8.79402 37.4008 10.8444 37.4008 13.3737C37.3978 15.9018 35.3492 17.9504 32.8211 17.9534Z" fill="#F04F3E"/>
<path d="M23.8635 33.7808H22.3369V36.0706H23.8635V33.7808Z" fill="#F04F3E"/>
<path d="M19.761 26.2846C15.0492 24.4439 12.7217 19.1321 14.5624 14.4202C15.2757 12.5945 16.5558 11.0457 18.2146 10.0015L17.3987 8.71005C12.4053 11.8558 10.9074 18.4539 14.0532 23.4473C15.2715 25.3811 17.0778 26.8734 19.2069 27.705C21.0914 28.4271 22.3358 30.236 22.3363 32.2542H23.8629C23.8653 29.6063 22.2336 27.2317 19.761 26.2846Z" fill="#F04F3E"/>
<path d="M42.9455 28.4378H37.6025V29.9644H42.9455V28.4378Z" fill="#F04F3E"/>
<path d="M37.3277 32.4306L36.3506 33.6034L40.9306 37.4192L41.9077 36.2463L37.3277 32.4306Z" fill="#F04F3E"/>
<path d="M34.549 34.5441H33.0225V39.887H34.549V34.5441Z" fill="#F04F3E"/>
<path d="M6.88511 11.668L0.779297 13.1943L1.1493 14.6745L7.25512 13.1482L6.88511 11.668Z" fill="#F04F3E"/>
<path d="M2.93367 4.15601L2.04688 5.39755L7.38941 9.21355L8.2762 7.97201L2.93367 4.15601Z" fill="#F04F3E"/>
<path d="M10.0658 0.0063623L8.58691 0.384491L10.148 6.49025L11.627 6.11213L10.0658 0.0063623Z" fill="#F04F3E"/>
</g>
<defs>
<clipPath id="clip0">
<rect width="46" height="46" fill="white"/>
</clipPath>
</defs>
</svg>
