<svg width="70" height="71" viewBox="0 0 70 71" fill="none" xmlns="http://www.w3.org/2000/svg">
<g clip-path="url(#clip0)">
<path d="M68.9746 23.3789C69.541 23.3789 70 22.9199 70 22.3535V5.33203C70 2.50496 67.7001 0.205078 64.873 0.205078H35.047C32.22 0.205078 29.9201 2.50496 29.9201 5.33203V27.0225H5.12695C2.29988 27.0225 0 29.3223 0 32.1494V34.2515C0.0474414 35.613 2.0084 35.6024 2.05078 34.2515V32.1494C2.05078 30.4533 3.43082 29.0732 5.12695 29.0732H34.953C36.6491 29.0732 38.0291 30.4533 38.0291 32.1494V57.2299C38.0291 58.9261 36.6491 60.3061 34.953 60.3061H16.1569C15.8832 60.3061 15.6207 60.4156 15.4282 60.6102L9.41432 66.6859V61.3315C9.41432 60.7651 8.95535 60.3061 8.38893 60.3061H5.12695C3.43082 60.3061 2.05078 58.9261 2.05078 57.2299V39.7149C2.05078 39.1485 1.59182 38.6895 1.02539 38.6895C0.458965 38.6895 0 39.1485 0 39.7149V57.2299C0 60.057 2.29988 62.3569 5.12695 62.3569H7.3634V69.1796C7.3634 70.0648 8.46809 70.557 9.1175 69.9009L16.5845 62.3567H34.953C37.78 62.3567 40.0799 60.0569 40.0799 57.2298V35.5396H53.4153L60.8824 43.0836C61.5318 43.7397 62.6365 43.2476 62.6365 42.3623V35.5398H64.873C67.7001 35.5398 70 33.2399 70 30.4128V27.6377C70 27.0713 69.541 26.6123 68.9746 26.6123C68.4082 26.6123 67.9492 27.0713 67.9492 27.6377V30.4128C67.9492 32.1089 66.5692 33.489 64.873 33.489H61.6112C61.0448 33.489 60.5858 33.9479 60.5858 34.5144V39.8688L54.572 33.793C54.3795 33.5985 54.1171 33.489 53.8433 33.489H40.0799V32.1496C40.0799 29.3225 37.78 27.0226 34.953 27.0226H31.9709V5.33203C31.9709 3.6359 33.3509 2.25586 35.047 2.25586H64.873C66.5692 2.25586 67.9492 3.6359 67.9492 5.33203V22.3535C67.9492 22.9199 68.4082 23.3789 68.9746 23.3789Z" fill="#1BB899"/>
<path d="M13.887 53.8795C14.3 53.8795 14.6896 53.6279 14.8454 53.2187L16.0513 50.0524H24.0387L25.2325 53.216C25.7005 54.4564 27.6192 53.7321 27.1511 52.4918L21.3523 37.1256C20.9202 35.9625 19.2149 35.9598 18.781 37.1234L12.9289 52.4889C12.6906 53.1143 13.2386 53.8795 13.887 53.8795ZM20.0633 39.5184L23.2648 48.0017H16.8324L20.0633 39.5184Z" fill="#1BB899"/>
<path d="M49.9296 8.82264C45.0675 8.82264 41.1117 12.7783 41.1117 17.6405C41.0465 24.9884 49.8551 29.1456 55.462 24.4999L57.0571 26.095C57.9948 27.0322 59.4447 25.5825 58.5072 24.6448L56.8974 23.035C61.3833 17.3975 57.1928 8.75634 49.9296 8.82264ZM49.9296 24.4076C40.9646 24.0675 40.9666 11.2124 49.9298 10.8734C55.3818 10.8219 58.637 17.2103 55.4333 21.5707L53.5217 19.6591C52.5839 18.722 51.134 20.1717 52.0715 21.1093L54.0026 23.0404C52.8685 23.8979 51.4576 24.4076 49.9296 24.4076Z" fill="#1BB899"/>
</g>
<defs>
<clipPath id="clip0">
<rect width="70" height="70" fill="white" transform="translate(0 0.205078)"/>
</clipPath>
</defs>
</svg>
