<svg width="50" height="50" viewBox="0 0 50 50" fill="none" xmlns="http://www.w3.org/2000/svg">
<g clip-path="url(#clip0)">
<path d="M46.6479 12.4509C44.4123 8.6209 41.3798 5.58841 37.5496 3.35288C33.7188 1.11748 29.5369 0 25.0007 0C20.4651 0 16.2819 1.11748 12.4517 3.35288C8.62136 5.58806 5.58886 8.62056 3.35323 12.4509C1.11748 16.2816 0 20.4647 0 25.0001C0 29.5356 1.11782 33.7181 3.35288 37.5489C5.58841 41.379 8.6209 44.4115 12.4513 46.6472C16.2819 48.8825 20.4647 50.0001 25.0003 50.0001C29.5359 50.0001 33.7191 48.8825 37.5495 46.6472C41.3797 44.4123 44.4121 41.379 46.6475 37.5489C48.8825 33.7184 49.9999 29.5354 49.9999 25.0001C50 20.4643 48.8825 16.281 46.6479 12.4509ZM29.1677 40.6251C29.1677 40.9286 29.0694 41.1784 28.8743 41.3734C28.6801 41.5685 28.4302 41.6661 28.1267 41.6661H21.876C21.5723 41.6661 21.3226 41.5685 21.1273 41.3734C20.9318 41.1783 20.8342 40.9286 20.8342 40.6251V34.3744C20.8342 34.0709 20.9317 33.8211 21.1273 33.6261C21.3226 33.4314 21.5723 33.3339 21.876 33.3339H28.1267C28.4302 33.3339 28.6801 33.4314 28.8743 33.6261C29.0694 33.8212 29.1677 34.0709 29.1677 34.3744V40.6251ZM37.0939 21.3865C36.8223 22.1896 36.5188 22.8464 36.1825 23.3562C35.8462 23.8662 35.363 24.3871 34.7334 24.9185C34.1052 25.4502 33.6057 25.8302 33.2358 26.0585C32.8675 26.2859 32.3353 26.5958 31.6416 26.986C30.9253 27.3979 30.3344 27.9353 29.8681 28.5975C29.4014 29.2593 29.1682 29.7962 29.1682 30.2081C29.1682 30.5125 29.0699 30.7621 28.8747 30.9573C28.6801 31.1524 28.4304 31.2499 28.1267 31.2499H21.8763C21.5726 31.2499 21.3229 31.1524 21.1276 30.9573C20.9321 30.7621 20.8348 30.5125 20.8348 30.2081V29.0361C20.8348 27.5822 21.4041 26.2198 22.5436 24.9507C23.6831 23.681 24.9363 22.7424 26.3037 22.1347C27.3447 21.6574 28.0828 21.169 28.5168 20.6699C28.9514 20.1709 29.1684 19.5083 29.1684 18.6841C29.1684 17.9677 28.7611 17.3277 27.9472 16.763C27.1332 16.199 26.2061 15.9169 25.1641 15.9169C24.0354 15.9169 23.1025 16.1775 22.3645 16.6985C21.6481 17.219 20.7152 18.2174 19.5649 19.6929C19.3696 19.9536 19.0982 20.0841 18.7509 20.0841C18.4905 20.0841 18.2843 20.0191 18.1325 19.8893L13.8359 16.6339C13.3369 16.2431 13.2501 15.7876 13.5753 15.2667C16.3534 10.6442 20.3789 8.33301 25.6521 8.33301C27.5406 8.33301 29.3855 8.77802 31.1866 9.66792C32.9876 10.5574 34.4907 11.8162 35.6955 13.444C36.8988 15.0713 37.5021 16.8402 37.5021 18.75C37.5005 19.7048 37.3644 20.5833 37.0939 21.3865Z" fill="white"/>
</g>
<defs>
<clipPath id="clip0">
<rect width="50" height="50" fill="white"/>
</clipPath>
</defs>
</svg>
