<svg width="16" height="16" viewBox="0 0 16 16" fill="none" xmlns="http://www.w3.org/2000/svg">
<path d="M13.5453 2.65469L8.23594 0.845312C8.17188 0.823437 8.08594 0.8125 8 0.8125C7.91406 0.8125 7.82813 0.823437 7.76406 0.845312L2.45469 2.65469C2.325 2.69844 2.21875 2.84844 2.21875 2.98594V10.5234C2.21875 10.6609 2.30781 10.8422 2.41563 10.9281L7.80156 15.125C7.85625 15.1672 7.92656 15.1891 7.99844 15.1891C8.07031 15.1891 8.14219 15.1672 8.19531 15.125L13.5813 10.9281C13.6891 10.8438 13.7781 10.6625 13.7781 10.5234V2.98594C13.7813 2.84844 13.675 2.7 13.5453 2.65469ZM10.8516 5.32344L7.52969 9.89688C7.50633 9.92884 7.47577 9.95484 7.44047 9.97277C7.40518 9.99069 7.36615 10 7.32656 10C7.28698 10 7.24795 9.99069 7.21265 9.97277C7.17736 9.95484 7.14679 9.92884 7.12344 9.89688L5.14844 7.17812C5.08906 7.09531 5.14844 6.97969 5.25 6.97969H6.1125C6.19219 6.97969 6.26875 7.01875 6.31563 7.08281L7.32656 8.47344L9.68438 5.22656C9.73125 5.1625 9.80625 5.12344 9.8875 5.12344H10.75C10.8516 5.125 10.9109 5.24063 10.8516 5.32344Z" fill="#1BB899"/>
</svg>
