<svg width="20" height="20" viewBox="0 0 20 20" fill="none" xmlns="http://www.w3.org/2000/svg">
<path d="M10.8309 5.87816V3.33316C10.8309 3.16836 10.8798 3.00728 10.9714 2.87027C11.063 2.73327 11.1931 2.62648 11.3453 2.56342C11.4976 2.50037 11.6651 2.48386 11.8267 2.516C11.9884 2.54814 12.1368 2.62748 12.2534 2.74399L18.0867 8.57732C18.1642 8.65464 18.2256 8.74648 18.2675 8.84758C18.3095 8.94867 18.3311 9.05704 18.3311 9.16649C18.3311 9.27593 18.3095 9.3843 18.2675 9.4854C18.2256 9.5865 18.1642 9.67833 18.0867 9.75566L12.2534 15.589C12.137 15.7059 11.9885 15.7856 11.8267 15.818C11.665 15.8503 11.4972 15.8339 11.3448 15.7708C11.1924 15.7077 11.0622 15.6007 10.9707 15.4634C10.8792 15.3262 10.8305 15.1648 10.8309 14.9998V12.4198C10.5942 12.4032 10.3601 12.3957 10.1284 12.3957C5.60672 12.3957 3.26255 15.3723 3.16005 15.504C3.055 15.6429 2.9089 15.7453 2.74244 15.7966C2.57598 15.8479 2.39759 15.8455 2.23256 15.7898C2.067 15.7343 1.92307 15.6282 1.82109 15.4864C1.71911 15.3447 1.66424 15.1744 1.66422 14.9998C1.66422 7.39649 8.40255 6.09899 10.8309 5.87816ZM10.1284 10.729C10.6676 10.729 11.2217 10.7665 11.7742 10.8398C11.9744 10.8667 12.1581 10.9653 12.2912 11.1173C12.4242 11.2693 12.4975 11.4645 12.4976 11.6665V12.9882L16.3192 9.16649L12.4976 5.34482V6.66649C12.4976 7.12649 12.1051 7.49982 11.6459 7.49982C10.8876 7.49982 4.88422 7.66732 3.58005 12.854C4.95839 11.839 7.14756 10.729 10.1284 10.729Z" fill="white"/>
</svg>
