<svg width="512" height="512" viewBox="0 0 512 512" fill="none" xmlns="http://www.w3.org/2000/svg">
<g clip-path="url(#clip0)">
<path d="M419.561 449.443C403.16 465.844 402.441 466.799 402.516 466.723C349.082 520.135 262.604 520.265 209.035 466.83C204.127 461.921 50.6152 308.409 39.9529 297.747C-13.3163 244.478 -13.3163 157.813 39.9529 104.544L57.3072 87.1892C77.3534 67.1431 109.776 67.1868 129.756 87.1892L177.304 134.727C197.284 154.707 197.284 187.206 177.304 207.186L157.431 227.059C147.996 236.494 147.996 251.832 157.431 261.267L245.484 349.319C254.908 358.754 270.256 358.754 279.691 349.319L299.564 329.446C319.544 309.466 352.043 309.466 372.023 329.446L419.561 376.994C439.537 396.948 439.634 429.369 419.561 449.443ZM512 47.8483V133.233C512 156.777 492.853 175.925 469.308 175.925H336.013L277.3 211.007C271.622 214.387 264.386 210.31 264.386 203.675V175.925H255.847C232.303 175.925 213.155 156.777 213.155 133.233V47.8483C213.155 24.3036 232.303 5.15613 255.847 5.15613H469.308C492.853 5.15613 512 24.3036 512 47.8483V47.8483ZM273.991 111.887V105.483C273.991 101.951 276.864 99.079 280.395 99.079C293.343 99.079 303.876 88.5457 303.876 75.5982C303.876 62.6508 293.343 52.1175 280.395 52.1175H265.453C260.738 52.1175 256.915 55.9406 256.915 60.656C256.915 65.3713 260.738 69.1944 265.453 69.1944H280.395C283.927 69.1944 286.799 72.0665 286.799 75.5982C286.799 79.13 283.927 82.0021 280.395 82.0021C267.448 82.0021 256.915 92.5353 256.915 105.483V120.425C256.915 125.14 260.738 128.963 265.453 128.963H295.338C300.053 128.963 303.876 125.14 303.876 120.425C303.876 115.71 300.053 111.887 295.338 111.887H273.991ZM363.645 60.656C363.645 55.9406 359.822 52.1175 355.107 52.1175C350.391 52.1175 346.568 55.9406 346.568 60.656V82.0021H333.761V60.656C333.761 55.9406 329.937 52.1175 325.222 52.1175C320.507 52.1175 316.684 55.9406 316.684 60.656V90.5405C316.684 95.2559 320.507 99.079 325.222 99.079H346.568V120.425C346.568 125.14 350.391 128.963 355.107 128.963C359.822 128.963 363.645 125.14 363.645 120.425C363.645 113.171 363.645 67.9382 363.645 60.656ZM401.76 52.3491C397.184 51.2071 392.549 53.9875 391.405 58.5619L376.462 118.331C375.319 122.907 378.101 127.542 382.675 128.686C387.256 129.83 391.887 127.043 393.03 122.473L407.972 62.7041C409.117 58.1286 406.335 53.4933 401.76 52.3491ZM459.458 52.1175H429.818C425.103 52.1175 421.28 55.9406 421.28 60.656C421.28 65.3713 425.103 69.1944 429.818 69.1944H447.495L430.838 117.649C428.925 123.216 433.089 128.969 438.914 128.966C442.458 128.966 445.771 126.741 446.988 123.201L467.533 63.432C469.436 57.8927 465.314 52.1175 459.458 52.1175Z" fill="white"/>
</g>
<defs>
<clipPath id="clip0">
<rect width="512" height="512" fill="white"/>
</clipPath>
</defs>
</svg>
