<svg width="50" height="50" viewBox="0 0 50 50" fill="none" xmlns="http://www.w3.org/2000/svg">
<g clip-path="url(#clip0)">
<path d="M40.9737 43.8909C39.372 45.4926 39.3017 45.5858 39.3091 45.5784C34.0909 50.7944 25.6458 50.8072 20.4145 45.5888C19.9351 45.1095 4.94378 30.1181 3.90253 29.0769C-1.29954 23.8748 -1.29954 15.4114 3.90253 10.2093L5.59729 8.51458C7.55492 6.55695 10.7212 6.56122 12.6724 8.51458L17.3158 13.1569C19.2669 15.1081 19.2669 18.2819 17.3158 20.233L15.375 22.1738C14.4536 23.0952 14.4536 24.5929 15.375 25.5143L23.9739 34.1132C24.8942 35.0346 26.3931 35.0346 27.3144 34.1132L29.2552 32.1725C31.2064 30.2213 34.3801 30.2213 36.3313 32.1725L40.9737 36.8159C42.9244 38.7644 42.9339 41.9306 40.9737 43.8909ZM50.0009 4.6727V13.011C50.0009 15.3103 48.1311 17.1802 45.8318 17.1802H32.8146L27.081 20.6062C26.5265 20.9363 25.8198 20.5381 25.8198 19.8901V17.1802H24.986C22.6867 17.1802 20.8168 15.3103 20.8168 13.011V4.6727C20.8168 2.37341 22.6867 0.50354 24.986 0.50354H45.8318C48.1311 0.50354 50.0009 2.37341 50.0009 4.6727V4.6727ZM26.7579 10.9264V10.3011C26.7579 9.95617 27.0383 9.67569 27.3832 9.67569C28.6476 9.67569 29.6763 8.64705 29.6763 7.38265C29.6763 6.11825 28.6476 5.08962 27.3832 5.08962H25.924C25.4635 5.08962 25.0902 5.46296 25.0902 5.92345C25.0902 6.38393 25.4635 6.75728 25.924 6.75728H27.3832C27.7281 6.75728 28.0086 7.03776 28.0086 7.38265C28.0086 7.72755 27.7281 8.00803 27.3832 8.00803C26.1188 8.00803 25.0902 9.03666 25.0902 10.3011V11.7603C25.0902 12.2208 25.4635 12.5941 25.924 12.5941H28.8424C29.3029 12.5941 29.6763 12.2208 29.6763 11.7603C29.6763 11.2998 29.3029 10.9264 28.8424 10.9264H26.7579ZM35.5131 5.92345C35.5131 5.46296 35.1398 5.08962 34.6793 5.08962C34.2188 5.08962 33.8454 5.46296 33.8454 5.92345V8.00803H32.5947V5.92345C32.5947 5.46296 32.2213 5.08962 31.7609 5.08962C31.3004 5.08962 30.927 5.46296 30.927 5.92345V8.84186C30.927 9.30234 31.3004 9.67569 31.7609 9.67569H33.8454V11.7603C33.8454 12.2208 34.2188 12.5941 34.6793 12.5941C35.1398 12.5941 35.5131 12.2208 35.5131 11.7603C35.5131 11.0518 35.5131 6.6346 35.5131 5.92345ZM39.2352 5.11223C38.7884 5.00071 38.3357 5.27222 38.224 5.71895L36.7648 11.5558C36.6532 12.0026 36.9248 12.4553 37.3715 12.567C37.8189 12.6787 38.2711 12.4066 38.3827 11.9603L39.8419 6.12346C39.9537 5.67663 39.682 5.22397 39.2352 5.11223ZM44.8698 5.08962H41.9753C41.5148 5.08962 41.1415 5.46296 41.1415 5.92345C41.1415 6.38393 41.5148 6.75728 41.9753 6.75728H43.7015L42.0749 11.4892C41.8881 12.0328 42.2948 12.5946 42.8635 12.5943C43.2097 12.5943 43.5332 12.3771 43.652 12.0314L45.6584 6.19455C45.8443 5.6536 45.4417 5.08962 44.8698 5.08962Z" fill="black"/>
</g>
<defs>
<clipPath id="clip0">
<rect width="50" height="50" fill="white"/>
</clipPath>
</defs>
</svg>
