<svg width="30" height="30" viewBox="0 0 30 30" fill="none" xmlns="http://www.w3.org/2000/svg">
<path d="M15.3002 4.91993C20.5952 4.91993 24.9452 8.83493 25.6802 13.9199H28.8002L23.5502 19.9199L18.3002 13.9199H21.7802C21.4446 12.4516 20.6211 11.1404 19.4442 10.2005C18.2672 9.26056 16.8064 8.74745 15.3002 8.74493C13.1252 8.74493 11.2052 9.80993 9.99019 11.4149L7.42519 8.48993C8.40696 7.36726 9.61772 6.4678 10.976 5.85203C12.3344 5.23625 13.8088 4.91843 15.3002 4.91993ZM14.7002 25.0799C9.4202 25.0799 5.0552 21.1649 4.3202 16.0799H1.2002L6.4502 10.0799C8.2052 12.0749 9.9452 14.0849 11.7002 16.0799H8.22019C8.55577 17.5483 9.37927 18.8595 10.5562 19.7994C11.7332 20.7393 13.194 21.2524 14.7002 21.2549C16.8752 21.2549 18.7952 20.1899 20.0102 18.5849L22.5752 21.5099C21.5944 22.6337 20.3838 23.534 19.0253 24.1498C17.6667 24.7657 16.1918 25.0829 14.7002 25.0799Z" fill="white"/>
</svg>
