<svg width="512" height="512" viewBox="0 0 512 512" fill="none" xmlns="http://www.w3.org/2000/svg">
<path d="M256 447.774C261.523 447.774 266 443.297 266 437.774C266 432.251 261.523 427.774 256 427.774C250.477 427.774 246 432.251 246 437.774C246 443.297 250.477 447.774 256 447.774Z" fill="#1BB899"/>
<path d="M251.919 374.965L232.11 322.47C232.074 322.377 232.038 322.284 232 322.192C230.263 317.975 226.197 315.253 221.638 315.253C221.633 315.253 221.627 315.253 221.621 315.253C217.056 315.259 212.99 317.994 211.264 322.221C211.234 322.295 211.204 322.369 211.176 322.444L191.184 374.937C189.218 380.098 191.808 385.875 196.969 387.841C202.13 389.806 207.907 387.216 209.873 382.055L212.399 375.423H230.716L233.208 382.027C234.72 386.032 238.524 388.499 242.566 388.499C243.739 388.499 244.932 388.291 246.094 387.852C251.262 385.902 253.869 380.132 251.919 374.965V374.965ZM220.015 355.423L221.598 351.266L223.167 355.423H220.015Z" fill="#1BB899"/>
<path d="M340.924 315.253C335.402 315.253 330.924 319.73 330.924 325.253V378.496C330.924 384.019 335.402 388.496 340.924 388.496C346.446 388.496 350.924 384.019 350.924 378.496V372.584L364.512 385.693C366.453 387.565 368.955 388.496 371.454 388.496C374.073 388.496 376.689 387.473 378.652 385.439C382.486 381.464 382.373 375.134 378.398 371.299L357.213 350.861L376.332 333.287C380.397 329.55 380.664 323.223 376.927 319.158C373.191 315.092 366.865 314.825 362.797 318.563L350.923 329.477V325.253C350.924 319.73 346.446 315.253 340.924 315.253V315.253Z" fill="#1BB899"/>
<path d="M140.545 388.496H140.589C140.589 388.496 154.796 388.433 158.712 388.433C172.128 388.433 183.043 377.518 183.043 364.101C183.043 357.486 180.386 351.482 176.087 347.091C177.48 344.186 178.261 340.934 178.261 337.503C178.261 325.234 168.28 315.252 156.01 315.252H140.544C135.022 315.252 130.544 319.729 130.544 325.252V378.495C130.544 381.155 131.604 383.705 133.488 385.582C135.364 387.449 137.9 388.496 140.545 388.496V388.496ZM158.712 368.433C157.129 368.433 153.872 368.443 150.545 368.455V359.769H158.712C161.1 359.769 163.043 361.712 163.043 364.101C163.043 366.49 161.1 368.433 158.712 368.433ZM150.545 335.253H156.011C157.252 335.253 158.262 336.263 158.262 337.504C158.262 338.745 157.252 339.755 156.011 339.755C154.898 339.755 152.823 339.761 150.545 339.769V335.253Z" fill="#1BB899"/>
<path d="M317.93 380.679C319.053 379.678 320.12 378.578 321.102 377.408C324.652 373.177 324.099 366.869 319.868 363.32C315.639 359.771 309.329 360.322 305.78 364.554C305.419 364.985 305.032 365.385 304.63 365.743C302.549 367.596 299.945 368.496 296.67 368.496C287.505 368.496 280.049 361.04 280.049 351.875C280.049 342.71 287.505 335.253 296.67 335.253C300.002 335.253 303.213 336.233 305.955 338.085C310.528 341.178 316.748 339.975 319.839 335.399C322.932 330.823 321.729 324.607 317.153 321.514C311.092 317.418 304.009 315.253 296.671 315.253C276.478 315.253 260.05 331.681 260.05 351.875C260.05 372.068 276.478 388.496 296.671 388.496C304.836 388.496 312.188 385.793 317.93 380.679V380.679Z" fill="#1BB899"/>
<path d="M502 158.697H392.737L290.38 105.752C290.781 103.636 291 101.456 291 99.2261C291 79.9271 275.299 64.2261 256 64.2261C236.701 64.2261 221 79.9271 221 99.2261C221 101.457 221.219 103.636 221.62 105.752L119.264 158.697H10C4.477 158.697 0 163.174 0 168.697V437.774C0 443.297 4.477 447.774 10 447.774H211C216.523 447.774 221 443.297 221 437.774C221 432.251 216.523 427.774 211 427.774H20V178.697H492V427.774H301C295.478 427.774 291 432.251 291 437.774C291 443.297 295.478 447.774 301 447.774H502C507.522 447.774 512 443.297 512 437.774V168.697C512 163.174 507.522 158.697 502 158.697ZM256 84.2261C264.272 84.2261 271 90.9551 271 99.2261C271 107.497 264.272 114.226 256 114.226C247.729 114.226 241 107.497 241 99.2261C241 90.9551 247.729 84.2261 256 84.2261ZM230.827 123.506C237.197 130.107 246.124 134.226 256 134.226C265.876 134.226 274.803 130.108 281.173 123.506L349.206 158.697H162.794L230.827 123.506Z" fill="#1BB899"/>
<path d="M360.433 290.402C365.866 291.383 371.07 287.773 372.05 282.338L374.766 267.289L379.399 282.989C379.433 283.107 379.47 283.224 379.509 283.341C381.043 287.914 385.304 290.976 390.123 290.976H390.179C395.021 290.953 399.279 287.842 400.774 283.237C400.812 283.122 400.847 283.007 400.881 282.89L405.348 267.219L408.257 282.44C409.294 287.864 414.531 291.421 419.956 290.385C425.381 289.348 428.938 284.11 427.901 278.685L418.034 227.057C418.026 227.019 418.019 226.98 418.012 226.942C416.999 221.962 412.747 218.282 407.673 217.995C402.63 217.71 397.958 220.883 396.389 225.717C396.352 225.832 396.317 225.947 396.284 226.063L389.98 248.176L383.427 225.966C383.393 225.847 383.356 225.73 383.317 225.613C381.699 220.794 377.038 217.667 371.953 218.005C366.88 218.345 362.667 222.069 361.706 227.062C361.699 227.1 361.692 227.137 361.685 227.174L352.37 278.786C351.387 284.22 354.998 289.421 360.433 290.402Z" fill="#1BB899"/>
<path d="M206.929 280.875C206.898 275.371 202.427 270.931 196.93 270.931C196.911 270.931 196.892 270.931 196.873 270.931C194.031 270.947 191.061 270.96 188.37 270.968V227.976C188.37 222.453 183.892 217.976 178.37 217.976C172.848 217.976 168.37 222.453 168.37 227.976V280.932C168.37 285.801 171.877 289.962 176.676 290.787C177.394 290.911 177.805 290.981 183.88 290.981C186.762 290.981 190.919 290.965 196.985 290.931C202.508 290.899 206.959 286.397 206.929 280.875Z" fill="#1BB899"/>
<path d="M467.234 238.459C472.756 238.459 477.234 233.982 477.234 228.459C477.234 222.936 472.756 218.459 467.234 218.459H445.106C439.584 218.459 435.106 222.936 435.106 228.459V280.975C435.106 286.498 439.584 290.975 445.106 290.975H467.234C472.756 290.975 477.234 286.498 477.234 280.975C477.234 275.452 472.756 270.975 467.234 270.975H455.106V264.717H465.602C471.124 264.717 475.602 260.24 475.602 254.717C475.602 249.194 471.124 244.717 465.602 244.717H455.106V238.459H467.234Z" fill="#1BB899"/>
<path d="M151.341 238.459C156.863 238.459 161.341 233.982 161.341 228.459C161.341 222.936 156.863 218.459 151.341 218.459H129.213C123.69 218.459 119.213 222.936 119.213 228.459V280.975C119.213 286.498 123.691 290.975 129.213 290.975H151.341C156.863 290.975 161.341 286.498 161.341 280.975C161.341 275.452 156.863 270.975 151.341 270.975H139.213V264.717H149.71C155.232 264.717 159.71 260.24 159.71 254.717C159.71 249.194 155.232 244.717 149.71 244.717H139.213V238.459H151.341Z" fill="#1BB899"/>
<path d="M246.457 237.975C249.765 237.975 252.952 238.947 255.676 240.787C260.251 243.879 266.469 242.675 269.56 238.099C272.652 233.523 271.449 227.306 266.871 224.215C260.829 220.133 253.77 217.975 246.457 217.975C226.331 217.975 209.957 234.349 209.957 254.475C209.957 274.601 226.331 290.975 246.457 290.975C254.598 290.975 261.927 288.28 267.651 283.181C268.774 282.181 269.839 281.084 270.815 279.918C274.363 275.685 273.807 269.378 269.575 265.83C265.343 262.283 259.035 262.838 255.487 267.07C255.132 267.494 254.75 267.889 254.349 268.245C252.288 270.082 249.706 270.974 246.456 270.974C237.358 270.974 229.956 263.572 229.956 254.474C229.957 245.377 237.359 237.975 246.457 237.975V237.975Z" fill="#1BB899"/>
<path d="M92.3767 226.121L88.8407 243.889L83.0317 225.032C81.4047 219.755 75.8087 216.791 70.5307 218.42C67.0387 219.496 64.5727 222.312 63.7667 225.621L58.1087 243.899L54.5757 226.037C53.5057 220.62 48.2437 217.095 42.8257 218.167C37.4077 219.239 33.8847 224.5 34.9567 229.918L45.2827 282.123C45.3777 282.602 45.5067 283.073 45.6707 283.533C47.2567 287.995 51.4887 290.978 56.2197 290.978H56.2967C61.0577 290.945 65.2867 287.895 66.8187 283.387C66.8487 283.3 66.8777 283.212 66.9047 283.123L73.4677 261.919L80.0017 283.127C80.0437 283.263 80.0887 283.399 80.1367 283.533C81.7227 287.995 85.9547 290.978 90.6857 290.978H90.7627C95.5237 290.945 99.7517 287.895 101.286 283.387C101.427 282.972 101.54 282.549 101.626 282.119L111.993 230.028C113.071 224.611 109.553 219.346 104.138 218.268C98.7177 217.185 93.4547 220.704 92.3767 226.121V226.121Z" fill="#1BB899"/>
<path d="M312.681 217.975C292.555 217.975 276.181 234.349 276.181 254.475C276.181 274.601 292.555 290.975 312.681 290.975C332.807 290.975 349.181 274.601 349.181 254.475C349.181 234.349 332.807 217.975 312.681 217.975V217.975ZM312.681 270.975C303.583 270.975 296.181 263.573 296.181 254.475C296.181 245.377 303.583 237.975 312.681 237.975C321.779 237.975 329.181 245.377 329.181 254.475C329.181 263.573 321.778 270.975 312.681 270.975Z" fill="#1BB899"/>
</svg>
