<svg width="40" height="40" viewBox="0 0 40 40" fill="none" xmlns="http://www.w3.org/2000/svg">
<g clip-path="url(#clip0)">
<path d="M26.5968 13.7164C26.2266 13.6157 25.8452 13.6133 25.4832 13.7057L24.2674 11.5808L23.249 12.1634L24.4648 14.2886C24.2018 14.5535 24.0101 14.8837 23.9094 15.2539C23.7559 15.8182 23.8313 16.4084 24.1218 16.9159L24.7319 17.9825C25.0221 18.49 25.493 18.8541 26.0573 19.0079C26.2483 19.0598 26.4427 19.0857 26.6356 19.0857C26.8162 19.0857 26.9957 19.0628 27.1708 19.0182L27.4101 19.436C26.7363 20.1178 26.5678 21.1914 27.0665 22.063L27.6765 23.1296C27.967 23.6371 28.4376 24.0012 29.0019 24.1547C29.1929 24.2068 29.3873 24.2325 29.5802 24.2325C29.7609 24.2325 29.9406 24.2099 30.1155 24.165L31.3402 26.3058L32.3588 25.7233L31.1335 23.5818C31.8074 22.9004 31.9758 21.8265 31.4772 20.9552L30.8671 19.8886C30.3685 19.017 29.3574 18.6182 28.4285 18.8535L28.1892 18.4357C28.4526 18.1705 28.6439 17.8406 28.7446 17.4704C28.8981 16.9061 28.8228 16.3156 28.5322 15.8081L27.9222 14.7418C27.632 14.234 27.1611 13.8699 26.5968 13.7164ZM29.8485 20.4712L30.4588 21.5378C30.6285 21.8344 30.6315 22.1817 30.4979 22.4704L30.1567 21.8744L29.1383 22.457L29.4798 23.0536C29.423 23.0481 29.3663 23.0377 29.3101 23.0225C29.0483 22.9514 28.8298 22.7823 28.6949 22.5467L28.0848 21.4804C27.9152 21.1835 27.9118 20.8362 28.0458 20.5475L28.3955 21.1588L29.4142 20.5762L29.0641 19.9646C29.3809 19.9957 29.6788 20.1746 29.8485 20.4712ZM27.212 16.7276L26.1937 17.3102L26.5349 17.9068C26.4781 17.9013 26.4213 17.8909 26.3652 17.8757C26.1033 17.8043 25.8848 17.6355 25.7502 17.3999L25.1402 16.3333C25.0053 16.0977 24.9702 15.8237 25.0416 15.5618C25.0569 15.5057 25.0767 15.4517 25.1005 15.3998L25.4509 16.012L26.4692 15.4291L26.1195 14.8178C26.4363 14.8486 26.7341 15.0275 26.9038 15.3241L27.5139 16.3907C27.6487 16.6263 27.6838 16.9 27.6124 17.1622C27.5972 17.2183 27.5773 17.2723 27.5535 17.3242L27.212 16.7276Z" fill="#1BB899"/>
<path d="M8.69122 26.3058L9.9165 24.1644C10.0929 24.209 10.2726 24.231 10.4512 24.231C11.2114 24.231 11.9511 23.8351 12.3549 23.1293L12.9652 22.063C13.2554 21.5555 13.3308 20.965 13.1773 20.4007C13.0766 20.0305 12.8849 19.7006 12.6219 19.4354L12.8611 19.0176C13.0378 19.0622 13.2173 19.0842 13.3958 19.0842C14.156 19.0842 14.8958 18.6884 15.2998 17.9825L15.9099 16.9159C16.4085 16.0446 16.2401 14.971 15.5662 14.2892L16.7827 12.1634L15.7643 11.5808L14.5479 13.7067C13.6189 13.4711 12.6078 13.8702 12.1092 14.7415L11.4991 15.8081C11.0005 16.6797 11.1689 17.7533 11.8428 18.4348L11.6035 18.8528C11.2416 18.7604 10.8601 18.7625 10.4899 18.8632C9.92566 19.0167 9.45508 19.3808 9.16455 19.8883L8.5545 20.9549C8.05585 21.8265 8.2243 22.9001 8.89783 23.5818L7.67285 25.723L8.69122 26.3058ZM12.4189 17.1622C12.3478 16.9 12.3826 16.6263 12.5175 16.3907L13.1276 15.3241C13.2972 15.0275 13.5951 14.8489 13.9122 14.8178L13.5624 15.4294L14.5808 16.012L14.9305 15.4004C15.0645 15.6894 15.0615 16.0367 14.8915 16.3333L14.2814 17.3999C14.1115 17.6965 13.8139 17.8754 13.4968 17.9062L13.8377 17.3105L12.8193 16.7276L12.4781 17.3242C12.454 17.2723 12.4342 17.2183 12.4189 17.1622ZM9.57288 21.5378L10.1829 20.4712C10.3178 20.2356 10.536 20.0665 10.7979 19.9954C10.854 19.9802 10.9108 19.9698 10.9675 19.9643L10.6175 20.5762L11.6359 21.1588L11.9856 20.5475C12.1196 20.8362 12.1165 21.1835 11.9468 21.4804L11.3365 22.5467C11.1668 22.8436 10.869 23.0222 10.5522 23.0533L10.8931 22.4573L9.8747 21.8747L9.53381 22.4707C9.39984 22.1817 9.40289 21.8344 9.57288 21.5378Z" fill="#1BB899"/>
<path d="M25.9052 32.4786L28.3536 32.4716L28.3503 31.2982L25.9009 31.3052C25.6418 30.3848 24.7947 29.7085 23.7934 29.7085H23.787L22.5583 29.7122C21.5543 29.7149 20.7078 30.397 20.4536 31.3207L19.972 31.3223C19.8716 30.9625 19.6793 30.6329 19.4071 30.3625C18.9939 29.9517 18.4461 29.7256 17.8635 29.7256H17.8571L16.6285 29.7289C16.0438 29.7308 15.4948 29.96 15.0825 30.3747C14.8118 30.6469 14.6213 30.9774 14.5231 31.3378L12.0566 31.3448L12.06 32.5179L14.527 32.5109C14.7861 33.4316 15.6336 34.1076 16.6349 34.1076H16.641L17.8696 34.1039C18.4543 34.1024 19.0037 33.8729 19.416 33.4585C19.6863 33.1863 19.8768 32.8558 19.9753 32.4954L20.456 32.4938C20.5564 32.8536 20.749 33.1832 21.0209 33.4539C21.4341 33.8647 21.9819 34.0905 22.5645 34.0905H22.5709L23.7995 34.0872C24.3842 34.0853 24.9335 33.8561 25.3458 33.4414C25.6162 33.1695 25.8066 32.839 25.9052 32.4786ZM18.584 32.6312C18.3927 32.8237 18.1379 32.9299 17.8666 32.9308L16.6379 32.9342H16.6349C16.2943 32.9342 15.9919 32.7657 15.8076 32.5073L16.4942 32.5054L16.4908 31.332L15.8033 31.3342C15.8362 31.2875 15.8732 31.2432 15.9144 31.202C16.1057 31.0095 16.3605 30.9033 16.6318 30.9023L17.8605 30.8987H17.8635C18.1339 30.8987 18.3881 31.0037 18.5798 31.1944C18.6213 31.2353 18.6585 31.2792 18.6918 31.3259L17.9865 31.3278L17.9899 32.5012L18.6951 32.499C18.6622 32.5457 18.6249 32.59 18.584 32.6312ZM23.7961 32.9138L22.5675 32.9174H22.5645C22.2941 32.9174 22.0399 32.8124 21.8482 32.622C21.807 32.5808 21.7695 32.5369 21.7365 32.4905L22.4238 32.4883L22.4204 31.3152L21.7338 31.3171C21.9172 31.0571 22.2199 30.8865 22.5617 30.8853L23.7903 30.8819H23.7934C24.134 30.8819 24.4361 31.0504 24.6207 31.3088L23.9164 31.311L23.9197 32.4841L24.6247 32.4822C24.5917 32.5289 24.5548 32.5729 24.5136 32.6144C24.3223 32.8066 24.0674 32.9131 23.7961 32.9138Z" fill="#1BB899"/>
<path d="M20.602 16.5468V10.0493L26.2291 6.80035L25.6423 5.78442L20.0154 9.03302L14.3886 5.78442L13.8018 6.80035L19.4289 10.0493V16.5468H20.602Z" fill="#1BB899"/>
<path d="M37.5518 26.3561L31.9265 29.6077L26.2972 26.3613L25.7109 27.3775L31.3402 30.624L31.3433 37.1215L32.5164 37.1212L32.5136 30.6237L38.1389 27.3717L37.5518 26.3561Z" fill="#1BB899"/>
<path d="M8.65826 37.0803V30.5828L14.2851 27.3342L13.6985 26.3183L8.07172 29.5669L2.44397 26.318L1.85742 27.3342L7.48486 30.5828V37.0803H8.65826Z" fill="#1BB899"/>
<path d="M13.1174 5.72815L20.0156 1.7453L26.9138 5.72815V13.0289H28.0872V5.05066L20.0156 0.390625L11.9443 5.05066V13.0289H13.1174V5.72815Z" fill="#1BB899"/>
<path d="M20.0154 19.0308L23.2557 17.1601L22.6692 16.1442L20.0154 17.6761L17.361 16.1436L16.7744 17.1595L20.0154 19.0308Z" fill="#1BB899"/>
<path d="M8.07159 38.2083L1.1734 34.2255V26.2601L7.58148 22.5604L6.99493 21.5442L0 25.5829V34.903L8.07159 39.563L15.5209 35.2621L14.9344 34.2459L8.07159 38.2083Z" fill="#1BB899"/>
<path d="M16.1429 28.9394V25.584L12.9938 23.7657L12.4072 24.782L14.9698 26.2612V28.9394H16.1429Z" fill="#1BB899"/>
<path d="M39.9958 25.6208L33.0356 21.6068L32.4494 22.623L38.823 26.2986L38.827 34.264L31.9306 38.2502L25.1868 34.361L24.6006 35.3773L31.9312 39.6049L40.0004 34.9409L39.9958 25.6208Z" fill="#1BB899"/>
<path d="M27.0514 23.7806L23.8525 25.6297L23.8541 28.7986L25.0275 28.798L25.0259 26.3066L27.6385 24.7963L27.0514 23.7806Z" fill="#1BB899"/>
<path d="M16.3332 6.13874L15.7451 5.12342L16.7601 4.53534L17.3485 5.55036L16.3332 6.13874ZM23.2958 5.89795L20.0157 4.00433L19.717 4.17767L19.1286 3.16235L20.0145 2.64905L23.8826 4.88202L23.2958 5.89795ZM18.0251 5.15821L17.437 4.14288L18.452 3.55481L19.0401 4.56983L18.0251 5.15821Z" fill="#1BB899"/>
<path d="M34.178 36.0477L33.5908 35.0321L36.8699 33.1367L36.8693 32.7912L38.0424 32.7888L38.0446 33.8126L34.178 36.0477ZM36.8675 32.009L36.8651 30.8359L38.0381 30.8332L38.0409 32.0066L36.8675 32.009ZM36.8632 30.0538L36.8608 28.8804L38.0342 28.8779L38.0366 30.051L36.8632 30.0538Z" fill="#1BB899"/>
<path d="M6.23303 36.2355L1.95508 33.7752V32.5481H3.12817V33.0968L6.81775 35.2187L6.23303 36.2355ZM1.95508 31.7659V30.5925H3.12817V31.7656L1.95508 31.7659ZM3.12817 29.8104H1.95508V28.637H3.12817V29.8104Z" fill="#1BB899"/>
</g>
<defs>
<clipPath id="clip0">
<rect width="40" height="40" fill="white"/>
</clipPath>
</defs>
</svg>
