<svg width="46" height="46" viewBox="0 0 46 46" fill="none" xmlns="http://www.w3.org/2000/svg">
<path d="M42.6309 9.52344H32.4336V6.1543C32.4336 4.29651 30.9222 2.78516 29.0645 2.78516H16.9355C15.0778 2.78516 13.5664 4.29651 13.5664 6.1543V10.1973C13.5664 10.5695 13.8681 10.8711 14.2402 10.8711H42.6309C43.7455 10.8711 44.6523 11.778 44.6523 12.8926V29.0645C44.6523 30.1791 43.7455 31.0859 42.6309 31.0859H28.9477C29.0225 30.8749 29.0645 30.6485 29.0645 30.4121C29.0645 29.5337 28.501 28.7847 27.7168 28.5065V22.3262C27.7168 21.9539 27.4152 21.6523 27.043 21.6523H18.957C18.5849 21.6523 18.2832 21.9539 18.2832 22.3262V28.5065C17.499 28.7847 16.9355 29.5337 16.9355 30.4121C16.9355 30.6485 16.9775 30.8749 17.0523 31.0859H3.36914C2.25445 31.0859 1.34766 30.1791 1.34766 29.0645V12.8926C1.34766 11.778 2.25445 10.8711 3.36914 10.8711H11.5449C11.9171 10.8711 12.2188 10.5695 12.2188 10.1973C12.2188 9.82504 11.9171 9.52344 11.5449 9.52344H3.36914C1.51135 9.52344 0 11.0348 0 12.8926V29.0645C0 30.1643 0.529898 31.1426 1.34766 31.758V39.8457C1.34766 41.7035 2.85901 43.2148 4.7168 43.2148H41.2832C43.141 43.2148 44.6523 41.7035 44.6523 39.8457V31.758C45.4701 31.1427 46 30.1644 46 29.0645V12.8926C46 11.0348 44.4886 9.52344 42.6309 9.52344ZM28.3906 9.52344H17.6094V8.17578H28.3906V9.52344ZM31.0859 9.52344H29.7383V7.50195C29.7383 7.12973 29.4367 6.82812 29.0645 6.82812H16.9355C16.5634 6.82812 16.2617 7.12973 16.2617 7.50195V9.52344H14.9141V6.1543C14.9141 5.0397 15.8209 4.13281 16.9355 4.13281H29.0645C30.1791 4.13281 31.0859 5.0397 31.0859 6.1543V9.52344ZM26.3691 23V28.3906H19.6309V23H26.3691ZM18.2832 30.4121C18.2832 30.0405 18.5854 29.7383 18.957 29.7383H27.043C27.4146 29.7383 27.7168 30.0405 27.7168 30.4121C27.7168 30.7837 27.4146 31.0859 27.043 31.0859H18.957C18.5854 31.0859 18.2832 30.7837 18.2832 30.4121ZM19.6309 32.4336H26.3691V35.8027C26.3691 37.6605 24.8578 39.1719 23 39.1719C21.1422 39.1719 19.6309 37.6605 19.6309 35.8027V32.4336ZM2.69531 39.8457V32.3658C2.91309 32.4101 3.13842 32.4336 3.36914 32.4336H6.73828V39.8457C6.73828 40.6036 6.98993 41.3037 7.41391 41.8672H4.7168C3.60211 41.8672 2.69531 40.9603 2.69531 39.8457ZM10.1074 41.8672C8.99273 41.8672 8.08594 40.9603 8.08594 39.8457V32.4336H18.2832V35.8027C18.2832 38.4035 20.3991 40.5195 23 40.5195C25.6008 40.5195 27.7168 38.4035 27.7168 35.8027V32.4336H37.9141V39.8457C37.9141 40.9603 37.0072 41.8672 35.8926 41.8672H10.1074ZM43.3047 39.8457C43.3047 40.9603 42.3978 41.8672 41.2832 41.8672H38.5861C39.0101 41.3037 39.2617 40.6036 39.2617 39.8457V32.4336H42.6309C42.8616 32.4336 43.0869 32.4101 43.3047 32.3658V39.8457Z" fill="#CC2B5E"/>
<path d="M23 37.8242C24.1146 37.8242 25.0215 36.9173 25.0215 35.8027C25.0215 34.6881 24.1146 33.7812 23 33.7812C21.8853 33.7812 20.9785 34.6881 20.9785 35.8027C20.9785 36.9173 21.8853 37.8242 23 37.8242ZM23 35.1289C23.3716 35.1289 23.6738 35.4311 23.6738 35.8027C23.6738 36.1743 23.3716 36.4766 23 36.4766C22.6284 36.4766 22.3262 36.1743 22.3262 35.8027C22.3262 35.4311 22.6284 35.1289 23 35.1289Z" fill="#CC2B5E"/>
</svg>
