<svg width="32" height="32" viewBox="0 0 32 32" fill="none" xmlns="http://www.w3.org/2000/svg">
<path d="M20.2 10C24.2 9.4 28 7.8 24.6 2.8C23.2 0.8 21.8 0 20.6 0C18.6 0 17.2 2.2 16 4.4C14.8 2.2 13.4 0 11.4 0C10.2 0 8.8 0.8 7.4 2.8C3.8 7.8 7.8 9.4 11.8 10H0V16H32V10H20.2ZM20.6 2C20.8 2 21.6 2.2 23 4C24 5.4 24.2 6.2 24 6.6C23.6 7.2 21.4 8 17.4 8.2C17.4 7.8 17.2 7.4 17 7C18.2 4.2 19.6 2 20.6 2ZM8 6.6C7.8 6.2 8 5.4 9 4C10.4 2.2 11.2 2 11.4 2C12.4 2 13.8 4.2 15 7C14.8 7.4 14.6 7.8 14.6 8.2C10.6 8 8.4 7.2 8 6.6ZM14 14V10H18V14H14Z" fill="white"/>
<path d="M18 30H14V18H2V32H30V18H18V30Z" fill="white"/>
</svg>
