<svg width="32" height="22" viewBox="0 0 32 22" fill="none" xmlns="http://www.w3.org/2000/svg">
<g clip-path="url(#clip0)">
<path d="M30.7345 3.43139C30.5542 2.76816 30.2026 2.16351 29.7146 1.67766C29.2266 1.1918 28.6192 0.841697 27.953 0.6622C25.5141 0 15.6984 0 15.6984 0C15.6984 0 5.88208 0.0200444 3.44317 0.682244C2.77697 0.861752 2.16963 1.21188 1.68163 1.69775C1.19363 2.18363 0.841993 2.7883 0.661742 3.45156C-0.0759697 7.76576 -0.362142 14.3396 0.681999 18.4812C0.862268 19.1445 1.21391 19.7491 1.70191 20.235C2.18991 20.7208 2.79724 21.0709 3.46343 21.2504C5.90233 21.9126 15.7184 21.9126 15.7184 21.9126C15.7184 21.9126 25.5343 21.9126 27.9731 21.2504C28.6393 21.0709 29.2466 20.7208 29.7346 20.235C30.2227 19.7491 30.5743 19.1445 30.7546 18.4812C31.5327 14.1609 31.7725 7.59122 30.7345 3.43151V3.43139Z" fill="#FF0000"/>
<path d="M12.5742 15.6518L20.7173 10.9563L12.5743 6.26074L12.5742 15.6518Z" fill="white"/>
</g>
<defs>
<clipPath id="clip0">
<rect width="31.4286" height="22" fill="white"/>
</clipPath>
</defs>
</svg>
