<?xml version="1.0" encoding="iso-8859-1"?>
<!-- Generator: Adobe Illustrator 19.0.0, SVG Export Plug-In . SVG Version: 6.00 Build 0)  -->
<svg version="1.1" id="Capa_1" xmlns="http://www.w3.org/2000/svg" xmlns:xlink="http://www.w3.org/1999/xlink" x="0px" y="0px"
	 viewBox="0 0 512 512" style="enable-background:new 0 0 512 512;" xml:space="preserve">
<g>
	<g>
		<path d="M189.018,6.688C186.01,2.496,181.146,0,175.994,0h-160C9.978,0,4.506,3.328,1.786,8.672
			c-2.752,5.344-2.272,11.744,1.184,16.64l128.928,180.32C165.37,177.216,208.634,160,255.994,160
			c16.224,0,31.872,2.24,46.912,6.016L189.018,6.688z"/>
	</g>
</g>
<g>
	<g>
		<path d="M510.202,8.672C507.482,3.328,502.01,0,495.994,0h-160c-5.152,0-10.016,2.496-13.024,6.688l-47.296,66.176l84.224,117.824
			c7.072,4.576,13.824,9.536,20.224,14.944L509.05,25.312C512.506,20.416,512.954,14.016,510.202,8.672z"/>
	</g>
</g>
<g>
	<g>
		<path d="M255.994,192c-88.352,0-160,71.648-160,160s71.648,160,160,160s160-71.648,160-160S344.346,192,255.994,192z M287.994,416
			c0,8.832-7.168,16-16,16c-8.832,0-16-7.168-16-16V304h-16c-8.832,0-16-7.168-16-16c0-8.832,7.168-16,16-16h32
			c8.832,0,16,7.168,16,16V416z"/>
	</g>
</g>
<g>
</g>
<g>
</g>
<g>
</g>
<g>
</g>
<g>
</g>
<g>
</g>
<g>
</g>
<g>
</g>
<g>
</g>
<g>
</g>
<g>
</g>
<g>
</g>
<g>
</g>
<g>
</g>
<g>
</g>
</svg>
