<?xml version="1.0" encoding="iso-8859-1"?>
<!-- Generator: Adobe Illustrator 18.0.0, SVG Export Plug-In . SVG Version: 6.00 Build 0)  -->
<!DOCTYPE svg PUBLIC "-//W3C//DTD SVG 1.1//EN" "http://www.w3.org/Graphics/SVG/1.1/DTD/svg11.dtd">
<svg version="1.1" id="Capa_1" xmlns="http://www.w3.org/2000/svg" xmlns:xlink="http://www.w3.org/1999/xlink" x="0px" y="0px"
	 viewBox="0 0 486.082 486.082" style="enable-background:new 0 0 486.082 486.082;" xml:space="preserve">
<g>
	<path d="M318.341,142.398c1.576,1.583,3.717,2.466,5.938,2.466s4.361-0.883,5.938-2.466L458.269,14.345
		c2.409-2.409,3.117-6.023,1.825-9.155C458.789,2.047,455.733,0,452.332,0H196.225c-3.402,0-6.456,2.047-7.764,5.189
		c-1.29,3.133-0.582,6.746,1.827,9.155L318.341,142.398z"/>
	<path d="M481.716,30.155c-1.938-0.803-4.173-0.363-5.653,1.125L343.381,163.964c-10.551,10.55-27.652,10.55-38.203,0
		L172.478,31.289c-1.479-1.488-3.715-1.929-5.653-1.126c-1.937,0.804-3.195,2.693-3.195,4.788v51.625
		c36.233,9.952,58.279,36.879,65.46,80.883c15.871,11.779,23.699,34.014,18.502,57.431h215.905c11.826,0,21.416-9.591,21.416-21.417
		V34.951C484.913,32.848,483.653,30.958,481.716,30.155z"/>
	<path d="M244.363,388.082c-4.598-23.069-22.645-41.093-45.713-45.65l-15.7-3.095c-9.021-1.787-16.093-8.795-17.966-17.802
		l-2.993-14.416c-0.96-4.614,0.726-9.394,4.362-12.401c14.157-11.73,27.146-28.997,34.644-49.382
		c10.425-1.874,19.919-11.889,22.991-25.676c3.794-17.084-3.733-33.288-16.803-36.193c-0.142-0.024-0.283-0.008-0.458-0.024
		c-3.936-44.366-21.021-77.214-77.852-77.214c-55.869,0-73.601,32.84-77.773,77.191c-0.189,0.039-0.379,0.022-0.52,0.047
		c-13.07,2.905-20.597,19.109-16.802,36.193c3.038,13.787,12.55,23.802,22.975,25.676c7.512,20.393,20.486,37.651,34.643,49.39
		c3.622,3,5.307,7.779,4.346,12.386l-2.975,14.407c-1.859,9.016-8.945,16.031-17.969,17.818l-15.683,3.095
		c-23.069,4.558-41.116,22.581-45.714,45.65L1.814,446.33c-1.953,9.77,0.583,19.896,6.897,27.588
		c6.315,7.699,15.763,12.164,25.714,12.164h188.916c9.951,0,19.399-4.465,25.714-12.164c6.314-7.691,8.851-17.818,6.898-27.588
		L244.363,388.082z"/>
</g>
<g>
</g>
<g>
</g>
<g>
</g>
<g>
</g>
<g>
</g>
<g>
</g>
<g>
</g>
<g>
</g>
<g>
</g>
<g>
</g>
<g>
</g>
<g>
</g>
<g>
</g>
<g>
</g>
<g>
</g>
</svg>
