<?xml version="1.0" encoding="iso-8859-1"?>
<!-- Generator: Adobe Illustrator 18.0.0, SVG Export Plug-In . SVG Version: 6.00 Build 0)  -->
<!DOCTYPE svg PUBLIC "-//W3C//DTD SVG 1.1//EN" "http://www.w3.org/Graphics/SVG/1.1/DTD/svg11.dtd">
<svg version="1.1" id="Capa_1" xmlns="http://www.w3.org/2000/svg" xmlns:xlink="http://www.w3.org/1999/xlink" x="0px" y="0px"
	 viewBox="0 0 454.535 454.535" style="enable-background:new 0 0 454.535 454.535;" xml:space="preserve">
<g>
	<path d="M243.194,356.052c-4.598-23.07-22.645-41.093-45.713-45.65l-15.699-3.095c-9.023-1.787-16.094-8.795-17.967-17.802
		l-2.992-14.416c-0.961-4.615,0.725-9.395,4.361-12.401c14.157-11.73,27.148-28.997,34.645-49.382
		c10.424-1.874,19.918-11.889,22.99-25.676c3.795-17.084-3.732-33.288-16.803-36.194c-0.142-0.024-0.283-0.008-0.458-0.024
		c-3.935-44.365-21.021-77.213-77.851-77.213c-55.869,0-73.602,32.84-77.773,77.19c-0.19,0.039-0.379,0.023-0.52,0.047
		c-13.071,2.906-20.598,19.11-16.803,36.194c3.039,13.787,12.551,23.802,22.975,25.676c7.512,20.393,20.486,37.651,34.643,49.39
		c3.623,2.999,5.307,7.778,4.346,12.386L91.6,289.489c-1.859,9.016-8.945,16.031-17.969,17.818l-15.682,3.095
		c-23.07,4.558-41.117,22.58-45.715,45.65L0.645,414.3c-1.953,9.77,0.584,19.897,6.898,27.588
		c6.315,7.699,15.763,12.164,25.714,12.164h188.916c9.952,0,19.4-4.465,25.715-12.164c6.314-7.691,8.85-17.818,6.898-27.588
		L243.194,356.052z"/>
	<path d="M426.086,0.483H196.123c-15.688,0-28.449,12.761-28.449,28.449v26.132c6.854,2.269,13.18,5.197,18.966,8.774V28.932
		c0-0.038,0.019-0.064,0.019-0.103l68.066,68.066l-27.989,27.99c0.75,3.301,1.421,6.703,1.989,10.238
		c2.707,2.072,5.19,4.479,7.438,7.153l31.973-31.972l26.633,26.634c4.367,4.366,10.169,6.77,16.336,6.77
		c6.168,0,11.97-2.403,16.337-6.77l26.634-26.634l58.994,59H248.07c0.942,6.163,0.964,12.57,0.027,18.966h177.988
		c15.688,0,28.449-12.762,28.449-28.449V28.932C454.535,13.244,441.774,0.483,426.086,0.483z M314.031,123.531
		c-1.565,1.564-4.289,1.564-5.854,0L204.101,19.449h214.011L314.031,123.531z M435.569,159.823c0,1.496-0.421,2.861-1.042,4.121
		l-67.044-67.048l68.066-68.066c0,0.038,0.02,0.065,0.02,0.103V159.823z"/>
</g>
<g>
</g>
<g>
</g>
<g>
</g>
<g>
</g>
<g>
</g>
<g>
</g>
<g>
</g>
<g>
</g>
<g>
</g>
<g>
</g>
<g>
</g>
<g>
</g>
<g>
</g>
<g>
</g>
<g>
</g>
</svg>
