<svg xmlns="http://www.w3.org/2000/svg" viewBox="0 0 120 78"><path fill="#30a6ce" d="M0 0h120v78H0z"/><path d="M19 26L7 52.47h14.32l1.78-4.22h4.06l1.77 4.22h15.76v-3.22l1.41 3.22h8.15l1.41-3.29v3.29h32.78l4-4.11 3.73 4.11h16.84l-12-13.2L113 26H96.42l-3.88 4-3.61-4H53.26l-3.06 6.83L47.06 26H32.77v3.11L31.18 26z" fill="#fff"/><path fill="#30a6ce" d="M67.92 29.76h18.83l5.75 6.22 5.95-6.22h5.76l-8.75 9.55 8.75 9.43h-6.02l-5.76-6.29-5.98 6.29H67.92V29.76z"/><path fill="#fff" d="M72.57 33.69v3.47h10.27v3.87H72.57v3.78h11.52l5.35-5.58-5.12-5.54H72.57z"/><path d="M21.73 29.76h7l7.94 18v-18h7.63l6.13 12.87 5.64-12.87h7.61v19h-4.63V33.87l-6.78 14.89h-4.15l-6.78-14.89v14.89h-9.53L30 44.5h-9.75l-1.8 4.25h-5.11z" fill="#30a6ce"/><path fill="#fff" d="M25.13 32.97l-3.21 7.59h6.42l-3.21-7.59z"/></svg>