<svg xmlns="http://www.w3.org/2000/svg" viewBox="0 0 40 26"><path fill="#0079BE" d="M0 0h40v26H0z"/><path fill="#FFF" d="M18.1 24C12.01 24.03 7 19.1 7 13.1 7 6.54 12.01 2 18.1 2h2.85c6.01 0 11.5 4.53 11.5 11.1 0 6-5.49 10.9-11.5 10.9H18.1zm.02-21.09c-5.56 0-10.07 4.51-10.07 10.07 0 5.56 4.51 10.07 10.07 10.07 5.56 0 10.07-4.51 10.07-10.07 0-5.56-4.51-10.07-10.07-10.07zm-2.29 16.03V7.02c-2.39.92-4.09 3.24-4.1 5.96.01 2.72 1.71 5.04 4.1 5.96zm8.67-5.96c0-2.72-1.7-5.04-4.1-5.96v11.92c2.4-.92 4.1-3.24 4.1-5.96z"/></svg>