<svg viewBox="0 0 120 78" width="120" height="78" xmlns="http://www.w3.org/2000/svg"><g fill="none" fill-rule="evenodd"><path d="M120 78V46c-7.684 5.06-36.7 22.42-84 32h84zM71 35.485C71 31.331 67.64 28 63.485 28A7.459 7.459 0 0 0 56 35.485C56 39.639 59.33 43 63.485 43A7.51 7.51 0 0 0 71 35.485z" fill="#F58220"/><path d="M17.35 28.337H13v15.294h4.32c2.311 0 3.955-.55 5.416-1.776 1.734-1.441 2.767-3.617 2.767-5.857-.032-4.505-3.347-7.66-8.153-7.66zm3.47 11.495c-.944.827-2.13 1.194-4.046 1.194h-.794V30.94h.794c1.915 0 3.07.339 4.045 1.227 1.002.92 1.613 2.33 1.613 3.802 0 1.47-.61 2.94-1.613 3.862zm6.023-11.495h2.948v15.294h-2.948V28.337zm10.19 5.884c3.375 1.227 4.348 2.33 4.348 4.752 0 2.943-2.16 5.027-5.2 5.027-2.252 0-3.896-.92-5.264-2.911l1.916-1.87c.67 1.317 1.796 2.022 3.226 2.022 1.308 0 2.28-.888 2.28-2.146 0-.643-.305-1.165-.882-1.563-.304-.184-.881-.458-2.038-.89-2.768-.98-3.741-2.053-3.741-4.168 0-2.514 2.07-4.382 4.745-4.382 1.645 0 3.164.58 4.442 1.715l-1.55 2.024c-.761-.859-1.493-1.225-2.374-1.225-1.279 0-2.22.735-2.22 1.684 0 .827.547 1.258 2.311 1.93zm5.291 1.778c0-4.445 3.59-7.999 8.06-7.999 1.279 0 2.343.275 3.65.949v3.496c-1.247-1.197-2.311-1.718-3.71-1.718-2.766 0-4.957 2.33-4.957 5.243 0 3.095 2.1 5.271 5.08 5.271 1.339 0 2.403-.49 3.588-1.686v3.525c-1.368.643-2.432.888-3.71.888-4.503 0-8-3.493-8-7.97zm35.653 2.605l4.076-10.267h3.195L78.707 44h-1.582l-6.42-15.663h3.227l4.045 10.267zm8.638 5.027V28.337h8.367v2.604h-5.415v3.372h5.2v2.608h-5.2v4.105h5.415v2.605h-8.367zm20.077-10.757c0 2.329-1.247 3.86-3.466 4.32L108 43.632h-3.619l-4.107-6.16h-.395v6.16h-2.952V28.337h4.38c3.409 0 5.385 1.655 5.385 4.537zm-5.93 2.51c1.883 0 2.889-.826 2.89-2.357 0-1.502-1.007-2.269-2.86-2.269h-.913v4.627h.883z" fill="#081A23"/></g></svg>