<svg xmlns="http://www.w3.org/2000/svg" xmlns:xlink="http://www.w3.org/1999/xlink" viewBox="0 0 120 78"><defs><linearGradient id="a" x1="117.53" y1="506.26" x2="137.33" y2="506.26" gradientTransform="matrix(1.13 0 0 1.13 -58.74 -529.59)" gradientUnits="userSpaceOnUse"><stop offset="0" stop-color="#007940"/><stop offset=".23" stop-color="#00873f"/><stop offset=".74" stop-color="#40a737"/><stop offset="1" stop-color="#5cb531"/></linearGradient><linearGradient id="b" x1="117.53" y1="503.2" x2="137.31" y2="503.2" xlink:href="#a"/><linearGradient id="c" x1="117.53" y1="499.88" x2="137.33" y2="499.88" xlink:href="#a"/><linearGradient id="d" x1="73.21" y1="503.18" x2="93.32" y2="503.18" gradientTransform="matrix(1.13 0 0 1.13 -58.74 -529.59)" gradientUnits="userSpaceOnUse"><stop offset="0" stop-color="#1f286f"/><stop offset=".48" stop-color="#004e94"/><stop offset=".83" stop-color="#0066b1"/><stop offset="1" stop-color="#006fbc"/></linearGradient><linearGradient id="e" x1="95.27" y1="503.22" x2="114.79" y2="503.22" gradientTransform="matrix(1.13 0 0 1.13 -58.74 -529.59)" gradientUnits="userSpaceOnUse"><stop offset="0" stop-color="#6c2c2f"/><stop offset=".17" stop-color="#882730"/><stop offset=".57" stop-color="#be1833"/><stop offset=".86" stop-color="#dc0436"/><stop offset="1" stop-color="#e60039"/></linearGradient></defs><path d="M100.53 57.64A12.6 12.6 0 0188 70.14H19.47V20.36a12.6 12.6 0 0112.58-12.5h68.48z" fill="#fff"/><path d="M78.24 44.85h5.84a2.33 2.33 0 001.83-2.33 2.41 2.41 0 00-1.83-2.38 3.53 3.53 0 00-.65 0h-5.19z" fill="url(#a)"/><path d="M82.83 12a9 9 0 00-9 9v9.4h12.72a6.76 6.76 0 01.9 0c2.87.14 5 1.56 5 4.21a4.2 4.2 0 01-4.11 4.11v.09c2.92.21 5.16 1.85 5.16 4.36s-2.5 4.52-5.76 4.52h-14v18.36H87a9 9 0 009-9V12z" fill="url(#b)"/><path d="M85.27 35.23a2.07 2.07 0 00-1.84-2.12h-5.18v4.33h5.18a2.09 2.09 0 001.84-2.21z" fill="url(#c)"/><path d="M33 12a9 9 0 00-9 9v22.27a17.72 17.72 0 007.81 2 4.31 4.31 0 004.79-3.78 3.76 3.76 0 000-.67v-10.5h7.72v10.46c0 4.07-2.53 7.38-11.1 7.38A37.92 37.92 0 0124 47v19h13.18a9 9 0 009-9V12z" fill="url(#d)"/><path d="M57.91 12a9 9 0 00-9 9v11.75c2.26-1.94 6.25-3.13 12.63-2.88A41.21 41.21 0 0168.62 31v3.82a17.22 17.22 0 00-6.83-2c-4.86-.34-7.82 2-7.82 6.26s2.93 6.59 7.82 6.25a17.75 17.75 0 006.83-2v3.82a39.31 39.31 0 01-7.08 1.07c-6.39.3-10.37-.93-12.63-2.87v20.74H62.2a9 9 0 009-9V12z" fill="url(#e)"/></svg>