<?xml version="1.0" encoding="utf-8"?>
<!-- Generator: Adobe Illustrator 24.2.1, SVG Export Plug-In . SVG Version: 6.00 Build 0)  -->
<svg version="1.1" id="Layer_1" xmlns="http://www.w3.org/2000/svg" xmlns:xlink="http://www.w3.org/1999/xlink" x="0px" y="0px"
	 viewBox="0 0 56 56" style="enable-background:new 0 0 56 56;" xml:space="preserve">
<style type="text/css">
	.st0{fill:#FFB3C7;}
	.st1{fill:#0A0B09;}
</style>
<g transform="translate(310 37)">
	<path class="st0" d="M-300.2-37h36.4c5.4,0,9.8,4.3,9.8,9.7V9.3c0,5.3-4.4,9.7-9.8,9.7h-36.4c-5.4,0-9.8-4.3-9.8-9.7v-36.6
		C-310-32.7-305.6-37-300.2-37z"/>
	<path class="st1" d="M-267.8-1.2c-2,0-3.7,1.7-3.7,3.8c0,2.1,1.6,3.8,3.7,3.8c2,0,3.7-1.7,3.7-3.8C-264.1,0.5-265.8-1.2-267.8-1.2z
		 M-297,5.9h6.4v-28.9h-6.4V5.9z M-274.4-22.9c0,6.3-2.4,12.1-6.6,16.4l8.9,12.5h-8l-9.7-13.6l2.5-1.9c4.1-3.2,6.5-8.1,6.5-13.4
		L-274.4-22.9L-274.4-22.9z"/>
</g>
</svg>
