<svg viewBox="0 0 120 78" width="120" height="78" xmlns="http://www.w3.org/2000/svg"><g fill="none" fill-rule="evenodd"><path d="M79.038 34.08c-.43 2.714-2.585 2.714-4.67 2.714H73.18l.833-5.067a.648.648 0 0 1 .647-.532h.544c1.419 0 2.76 0 3.451.778.414.465.539 1.154.382 2.107zM78.131 27h-7.864c-.538 0-.995.376-1.08.887l-3.179 19.385c-.063.382.245.728.648.728h4.034a.756.756 0 0 0 .756-.62l.901-5.496c.084-.51.542-.887 1.08-.887h2.488c5.18 0 8.169-2.41 8.95-7.186.352-2.09.014-3.73-1.003-4.88C82.744 27.668 80.762 27 78.13 27z" fill="#2494D7"/><path d="M24.038 34.08c-.43 2.714-2.585 2.714-4.67 2.714H18.18l.832-5.067a.649.649 0 0 1 .648-.532h.544c1.419 0 2.76 0 3.45.778.415.465.54 1.154.383 2.107zM23.131 27h-7.864c-.537 0-.995.376-1.079.887l-3.18 19.385c-.062.382.245.728.648.728h3.754c.538 0 .996-.376 1.08-.886l.858-5.23c.083-.51.541-.887 1.079-.887h2.488c5.18 0 8.169-2.41 8.95-7.186.352-2.09.014-3.73-1.003-4.88C27.743 27.668 25.762 27 23.13 27zM40.565 41.043c-.335 1.972-1.908 3.296-3.914 3.296-1.005 0-1.81-.322-2.328-.932-.513-.604-.706-1.465-.543-2.424.312-1.955 1.91-3.321 3.885-3.321.985 0 1.784.325 2.312.94.531.62.74 1.487.588 2.44zm4.831-6.718H41.93a.602.602 0 0 0-.596.507l-.152.965-.243-.35C40.188 34.363 38.514 34 36.843 34c-3.83 0-7.102 2.89-7.74 6.943-.33 2.021.14 3.954 1.291 5.302C31.452 47.485 32.962 48 34.761 48c3.088 0 4.8-1.975 4.8-1.975l-.155.96a.602.602 0 0 0 .596.695h3.123c.495 0 .916-.359.993-.846l1.874-11.815a.601.601 0 0 0-.596-.694z" fill="#003E92"/><path d="M95.565 41.043c-.335 1.972-1.908 3.296-3.914 3.296-1.005 0-1.81-.322-2.328-.932-.513-.604-.706-1.465-.543-2.424.312-1.955 1.91-3.321 3.885-3.321.985 0 1.784.325 2.312.94.53.62.74 1.487.588 2.44zm4.831-6.718H96.93a.602.602 0 0 0-.596.507l-.152.965-.243-.35C95.188 34.363 93.514 34 91.843 34c-3.83 0-7.102 2.89-7.74 6.943-.33 2.021.14 3.954 1.291 5.302C86.453 47.485 87.962 48 89.761 48c3.088 0 4.8-1.975 4.8-1.975l-.155.96a.602.602 0 0 0 .597.695h3.122c.495 0 .916-.359.993-.846l1.874-11.815a.601.601 0 0 0-.596-.694z" fill="#2494D7"/><path d="M64.387 34h-3.535c-.338 0-.655.164-.844.438l-4.876 7.039-2.067-6.764a1.018 1.018 0 0 0-.977-.713h-3.475a.602.602 0 0 0-.58.794l3.893 11.196-3.661 5.063c-.288.397.002.947.499.947h3.532c.334 0 .648-.16.838-.43L64.89 34.941c.281-.398-.01-.942-.503-.942" fill="#003E92"/><path d="M105.168 27.532l-3.16 19.74a.634.634 0 0 0 .634.728h3.178c.526 0 .974-.376 1.056-.886l3.116-19.386a.634.634 0 0 0-.634-.728h-3.556a.638.638 0 0 0-.634.532" fill="#2494D7"/></g></svg>