<svg viewBox="0 0 120 78" width="120" height="78" xmlns="http://www.w3.org/2000/svg"><g fill="none" fill-rule="evenodd"><path d="M33.807 12h20.15c2.813 0 4.562 2.449 3.905 5.466l-9.38 43.07C47.82 63.553 45.005 66 42.192 66h-20.15c-2.815 0-4.563-2.447-3.903-5.464l9.382-43.07C28.18 14.45 30.991 12 33.807 12z" fill="#ED1C24" fill-rule="nonzero"/><path d="M55.81 12h20.147c2.815 0 4.564 2.449 3.903 5.466l-9.38 43.07C69.817 63.553 67.005 66 64.186 66H44.043c-2.818 0-4.564-2.447-3.903-5.464l9.378-43.07C50.178 14.45 52.994 12 55.81 12z" fill="#00569E" fill-rule="nonzero"/><path d="M77.812 12h20.145c2.816 0 4.564 2.449 3.904 5.466l-9.378 43.07C91.822 63.553 89.007 66 86.19 66H66.043c-2.816 0-4.564-2.447-3.903-5.464l9.378-43.07C72.178 14.45 74.993 12 77.812 12z" fill="#00898E" fill-rule="nonzero"/><path d="M79.4 45.372l-1.974 8.35h.683l-.413 1.734h-.683l-.126.53h-2.424l.125-.53H69.66l.385-1.598.502-.008 2.005-8.478.399-1.713h2.476l-.196.868s.624-.474 1.237-.633c.615-.16 4.2-.222 4.2-.222l-.417 1.7h-.85zm-4.362 0l-.505 2.137s.71-.33 1.105-.436c.398-.105 1.004-.146 1.004-.146l.365-1.555h-1.969zm-.759 3.201l-.524 2.214s.723-.38 1.121-.486c.395-.106 1.004-.173 1.004-.173l.374-1.555h-1.975zm-1.221 5.175l.444-1.88h1.971l-.444 1.88h-1.971zm7.744-10.072h2.64l.03.972c-.015.158.125.237.435.242h.443l-.398 1.61h-1.426c-1.237.088-1.705-.44-1.674-1.029l-.05-1.795zm.447 7.63h-2.52l.338-1.433h2.874l.322-1.312h-2.84l.381-1.611h7.905l-.386 1.611h-2.654l-.321 1.312h2.657l-.34 1.434h-2.872l-.474.605h1.166l.414 1.806c.033.177.051.294.113.368.06.064.416.096.618.096h.352l-.416 1.762h-.897c-.138 0-.346-.006-.627-.03-.273-.021-.478-.176-.665-.261a.95.95 0 0 1-.514-.615l-.401-1.8-1.182 1.778c-.383.552-.915.98-1.861.98h-1.837l.37-1.561h.705c.202 0 .379-.082.504-.147a.788.788 0 0 0 .368-.317l1.72-2.664zm-27.834-3.921h6.663l-.382 1.576H57.02l-.326 1.343h2.72l-.395 1.63H56.3l-.528 2.175c-.061.244.666.277.93.277l1.35-.178-.434 1.79h-3.075c-.245 0-.433-.027-.704-.093-.263-.062-.384-.179-.511-.355-.121-.17-.302-.318-.21-.696l.701-2.892h-1.515l.402-1.658h1.519l.322-1.343h-1.512l.381-1.576zm4.312-2.828h2.737l-.398 1.642H56.33l-.386.353c-.158.163-.227.095-.442.212a2.588 2.588 0 0 1-1.214.315H53.09l.384-1.582h.359c.305 0 .512-.027.615-.095.11-.069.234-.24.369-.512l.608-1.236h2.724l-.423.903zm3.851-.89h2.333l-.27 1.163s.702-.583 1.207-.779c.502-.197 1.653-.363 1.653-.363l3.765-.024-1.017 4.236c-.174.725-.395 1.195-.535 1.411a1.554 1.554 0 0 1-.603.58c-.312.164-.594.258-.857.285-.254.022-.634.03-1.16.035h-3.631l-.811 3.354c-.083.332-.117.488-.05.576.062.081.19.173.362.173l1.589-.152L63.12 56h-1.797c-.566 0-.986-.007-1.273-.035-.279-.021-.567 0-.765-.151-.181-.142-.445-.33-.45-.527.005-.184.06-.485.152-.898l2.59-10.722zm5.216 4.285h-3.817l-.187.76h3.306c.39-.039.472.01.502-.004l.196-.756zm-3.652-.688s.701-.676 1.969-.897c.288-.052 2.11-.037 2.11-.037l.216-.906h-3.85l-.445 1.84zm5.657 3.244l-.146 1.02c-.08.314-.138.555-.368.764-.242.215-.53.437-1.227.437l-1.286.05.055 1.148c.01.334.092.299.147.351.061.056.12.081.178.096l.41-.015 1.224-.074-.401 1.686h-1.414c-.998 0-1.733-.03-1.987-.209-.248-.162-.294-.348-.306-.662l-.19-4.49h2.263l.027.918h.542c.19 0 .312-.018.389-.066.064-.05.107-.125.138-.24l.171-.714h1.781zM36.471 28.026c.203.047.84.072 2.985.04l-.021.093c-.27.817-1.84 7.097-1.84 7.097l-.175.676c-.38 1.312-.808 2.8-2.424 3.754-.937.555-2.317.874-3.79.874-1.141 0-3.165-.185-3.872-1.416-.224-.382-.334-.84-.334-1.403l.254-1.885.135-.577 1.555-6.815s.08-.376.095-.44c.037.052.566.08 3.533.042a.828.828 0 0 0-.025.095c-.27.803-1.797 6.846-1.797 6.846-.003.01-.294 1.806-.294 1.806l.019.302c.097.89.655 1.36 1.607 1.36.594 0 1.099-.173 1.546-.528.768-.618.994-1.582 1.307-2.919.003-.003 1.457-6.631 1.536-7.002zm8.682 12.464a36.708 36.708 0 0 0-2.65.043l-.05-.082c.107-.47.227-.925.334-1.394l.147-.63c.23-.992.453-2.13.477-2.48.025-.212.092-.737-.51-.737-.258 0-.527.122-.797.243-.147.521-.447 1.997-.587 2.667-.304 1.42-.325 1.58-.46 2.276l-.089.094a38.115 38.115 0 0 0-2.706.043l-.058-.094c.208-.846.417-1.69.612-2.534.527-2.278.65-3.15.793-4.301l.098-.082c1.219-.16 1.51-.2 2.832-.468l.107.12-.2.736c.221-.133.439-.267.669-.388a4.265 4.265 0 0 1 1.686-.388c.576 0 1.21.161 1.472.818.255.588.086 1.313-.244 2.746l-.169.725c-.34 1.594-.395 1.888-.578 2.973l-.129.094zm4.277 0a69.526 69.526 0 0 0-1.442-.004 37.5 37.5 0 0 0-1.372.047l-.033-.049-.037-.045c.16-.607.245-.819.328-1.031.079-.214.156-.429.297-1.04a31.74 31.74 0 0 0 .38-1.84c.082-.48.134-.88.192-1.342l.049-.04.052-.042c.63-.086 1.032-.144 1.439-.21.41-.064.826-.138 1.485-.26l.042.11c-.122.495-.245.994-.364 1.49-.12.495-.235.993-.352 1.489-.239 1.049-.33 1.445-.385 1.715-.056.27-.071.416-.163.958l-.058.048-.058.046zm9.448-3.585c-.113.482-.438 1.66-1.154 2.435-.923.977-2.154 1.311-3.36 1.311-.468 0-1.19-.067-1.705-.282-1.634-.641-1.37-2.42-1.144-3.398.223-.964.603-1.967 1.404-2.7 1.124-1.03 2.56-1.097 3.163-1.097 1.007 0 1.97.227 2.52.921.365.456.646 1.205.276 2.81zm-2.747-.12c.281-1.217.242-1.966-.416-1.966-.833 0-1.16 1.016-1.44 2.22-.097.428-.174.816-.168 1.19.013.764.533.764.616.764.294 0 .566-.188.783-.497.328-.427.563-1.443.625-1.711zm30.105-3.53l.043.106c-.242.982-.484 1.964-.713 2.948-.484 2.072-.662 3.12-.845 4.196l-.116.094c-1.271-.015-1.632-.015-2.81.04l-.074-.094c.04-.152.076-.305.116-.456-.431.357-.89.618-1.392.643a3.267 3.267 0 0 1-1.458-.251c-1.634-.637-1.371-2.403-1.145-3.374.224-.956.603-1.951 1.405-2.682 1.124-1.021 2.446-1.303 3.01-1.088.443.168.719.447.915.766.015-.102.027-.199.043-.305l.097-.079a52.82 52.82 0 0 0 2.924-.464zm-4.163 5.367c.107-.14.199-.346.285-.564.091-.371.195-.738.284-1.111.052-.228.089-.402.132-.594.073-.856-.19-1.382-.732-1.382-.833 0-1.16 1.009-1.439 2.203-.098.424-.174.81-.168 1.182.012.758.533.758.615.758.294 0 .806-.188 1.023-.492zM66.066 40.49a36.732 36.732 0 0 0-2.65.043l-.05-.082c.11-.47.226-.925.337-1.394l.144-.63c.23-.992.453-2.13.48-2.48.021-.212.089-.737-.514-.737-.254 0-.523.122-.793.243-.147.521-.447 1.997-.59 2.667-.3 1.42-.325 1.58-.46 2.276l-.089.094a38.066 38.066 0 0 0-2.703.043l-.058-.094c.208-.846.416-1.69.612-2.534.527-2.278.646-3.15.793-4.301l.098-.082c1.215-.16 1.509-.2 2.829-.468l.107.12-.196.736c.217-.133.437-.267.664-.388a4.268 4.268 0 0 1 1.687-.388c.575 0 1.21.161 1.475.818.251.588.083 1.313-.248 2.746l-.165.725c-.343 1.594-.398 1.888-.582 2.973l-.128.094zm9.12-12.478c1.78.018 3.315.032 4.089 1.097.306.41.41.93.41 1.443 0 .4-.061.797-.14 1.133-.316 1.358-1.023 2.474-2.052 3.225-1.515 1.107-3.452 1.107-5.164 1.107h-.177c-.129.066-.248.24-.248.24-.025.05-.42 1.683-.42 1.683-.003.004-.465 2.22-.545 2.595-.34-.037-1.157-.036-3.14-.008l2.04-8.326.812-3.744.095-.457c.377.047 1.29.053 3.564.03l.875-.018zm1.138 3.898c.208-.907-.089-1.604-.793-1.87-.046-.01-1.83-.167-1.83-.167l-.343-.033-.019.15-.024.19-.86 3.718-.043.19h.474c.729 0 1.43-.025 2.012-.311.7-.343 1.236-1.04 1.426-1.867zm-25.74 2.188c-.698.479-1.742.587-2.333.242-.587-.344-.505-1.009.196-1.488.698-.474 1.739-.582 2.33-.24.59.346.502 1.011-.193 1.486zM95 33.243l-6.024 10.465-1.004 1.734c-.328.588-.93 1.053-1.883 1.061l-1.64.024.367-1.63h.44c.166 0 .291-.016.383-.055.08-.03.141-.09.205-.188l.579-.906v-.003c.808-1.221 1.01-1.746 1.858-3.14-.15-1.54-.217-2.052-.346-3.06-.07-.612-.168-1.234-.238-1.847-.157-1.251-.123-1.076-.276-1.876l-.013-.012.019-.141.101-.08c1.255-.158 1.289-.199 2.65-.464l.111.118.18 3.463.01.195c.722-1.594.692-1.154 1.586-3.188l.006.015.009-.06.095-.079c1.19-.158 1.426-.199 2.722-.464l.103.118z" fill="#FFF"/></g></svg>