<svg fill="#5c5c5c" xmlns="http://www.w3.org/2000/svg"  viewBox="0 0 26 26" width="26px" height="26px"><path fill="none" d="M0 0H26V26H0z"/><path d="M14,9.9c-1.9,0-3.6,1.1-4.5,2.7C8.7,11,7,9.9,5,9.9c-1.1,0-2.2,0.4-3,1V6.4h0c0-0.5-0.5-1-1-1 c-0.6,0-1,0.4-1,1h0V15h0c0,2.7,2.3,5,5,5c1.9,0,3.6-1.1,4.5-2.7C10.4,18.9,12,20,14,20c2.8,0,5-2.3,5-5C19,12.2,16.8,9.9,14,9.9 M5,18c-1.7,0-3-1.4-3-3c0-1.7,1.4-3,3-3s3,1.4,3,3C8.1,16.6,6.7,18,5,18z M14,18c-1.7,0-3-1.4-3-3c0-1.7,1.4-3,3-3c1.7,0,3,1.4,3,3 C17,16.6,15.6,18,14,18z"/><path d="M25.8,18.4l-2.6-3.5l2.6-3.5l0,0c0.3-0.4,0.2-1.1-0.2-1.4c-0.4-0.3-1.1-0.2-1.4,0.2l0,0l-2.2,3l-2.2-3l0,0 c-0.3-0.4-1-0.5-1.4-0.2s-0.5,1-0.2,1.4l0,0l2.6,3.5l-2.6,3.5l0,0c-0.3,0.4-0.2,1.1,0.2,1.4c0.4,0.3,1.1,0.2,1.4-0.2l0,0l2.2-3 l2.2,3l0,0c0.3,0.4,1,0.5,1.4,0.2C26,19.5,26.1,18.8,25.8,18.4L25.8,18.4"/></svg>