<svg fill="#5c5c5c" xmlns="http://www.w3.org/2000/svg"  viewBox="0 0 26 26" width="26px" height="26px"><path d="M24.1,14.6l-0.5-0.2l-0.1-0.7c-0.2-2.4-2.6-3.8-5.1-3L17.9,11l-0.6-0.6c-1-1.1-1.8-1.4-3.2-1.4 c-1,0-1.5,0.1-2.3,0.5c-0.8,0.4-1.6,1.4-2,2.6c-0.1,0.3-0.2,0.6-0.2,0.7c0,0.3-0.2,0.5-0.8,0.6c-1.3,0.3-2.2,1-2.6,1.9 C6,15.6,6,15.9,6,16.5c0,1.8,0.9,3.1,2.4,3.4C8.8,20,10.7,20,16.6,20l7.7,0l0.3-0.2c0.7-0.4,1.2-1.2,1.3-2.2 C26.1,16.1,25.5,15.1,24.1,14.6z"/><path d="M19.6,8.5c-0.8-2.3-2.9-3.9-5.4-3.9c-0.9,0-1.6,0.2-2.3,0.5c-0.7,0.3-1.5,1-1.9,1.5c-0.7,0.9-0.6,0.9-1,0.7 C8.1,7,7,6.9,6.1,7.2c-1.7,0.5-2.9,2.2-3,4c0,0.3,0,0.6-0.1,0.6C3,11.9,2.8,12,2.5,12c-1,0.3-1.9,0.9-2.3,1.9C0,14.3,0,14.5,0,15.3 c0,0.9,0,1,0.3,1.5c0.5,0.9,1.4,1.7,2.3,2c0.3,0.1,2.7,0.1,2.8,0c0,0,0-0.2-0.1-0.4c-0.2-0.5-0.4-1.3-0.4-2c0-1.9,1.1-3.3,3.1-4 c0.6-0.2,0.8-0.3,0.8-0.5c0-0.3,0.5-1.3,0.8-1.8c0.5-0.8,1.2-1.4,2-1.8c2.1-1,4.6-0.7,6.1,0.8l0.5,0.5l0.6-0.2 c0.3-0.1,0.7-0.2,0.8-0.2C19.8,9.4,19.8,9,19.6,8.5z"/></svg>